<?xml version="1.0" standalone="yes"?>
<svg xmlns="http://www.w3.org/2000/svg" width="229" height="312">
<path style="fill:#f1f2f2; stroke:none;" d="M0 0L0 283L64 283L66 292C67.7968 292 67.5215 291.986 69 291C67.2811 282.136 67.9905 276.686 70 268C32.5213 241.703 15.7543 187.708 24.4637 144C26.228 135.146 30.5725 127.232 34 119C54.1938 142.693 59.765 170.843 53.331 201C50.8564 212.599 44.5424 224.129 44 236C49.5582 229.515 51.8453 219.149 53.8951 211C59.5612 188.474 62.4824 163.063 53.0455 141C47.4433 127.902 34.4909 117.928 33.0895 103C31.8782 90.0966 32.3297 76.8543 38.3125 65C40.0947 61.4687 42.2607 56.2075 46.1744 54.6042C50.7994 52.7094 56.6221 55.576 61 57C56.542 61.4957 52.0405 66.2409 49.2377 72C38.9819 93.0725 50.7897 113.738 70 124.208C96.4884 138.644 130.378 138.067 158 127.526C177.709 120.005 193.08 105.422 190.829 83C189.764 72.3816 183.061 64.8846 178 56C181.637 54.6743 186.044 53.0364 189.895 54.6034C193.457 56.0526 195.456 60.7824 197.1 64C202.384 74.3443 204.208 86.5747 202.845 98C200.677 116.164 188.139 129.096 182.242 146C175.716 164.708 178.002 183.92 180.715 203C181.848 210.974 184.12 218.361 186.667 226C187.921 229.762 188.635 233.697 192 236C188.683 219.919 182.763 204.463 181.17 188C179.835 174.21 181.55 160.196 185.623 147C188.774 136.79 196.387 128.868 200 119L202 119C206.267 130.744 211.343 141.503 213.536 154C217.347 175.717 212.221 200.244 203.208 220C198.161 231.061 192.018 241.86 183.949 251C180.692 254.689 177.579 258.526 173.996 261.91C171.725 264.056 168.398 266.065 167.132 269.039C166.019 271.653 167.432 274.379 167.791 277C168.372 281.245 168 285.722 168 290C169.607 287.899 170.666 284.732 173.225 283.603C177.727 281.617 185.15 283 190 283L229 283L229 0L0 0z"/>
<path style="fill:#35c8d1; stroke:none;" d="M105 108C106.092 114.321 109.507 120.706 113.105 125.995C114.41 127.914 116.335 130.793 118.971 130.793C124.125 130.793 128.715 118.035 130.03 114C132.244 107.21 125.014 104.125 123.533 98C120.754 86.5074 129.693 74.19 138 67.3287C157.973 50.8312 192.629 59.108 202.945 31C204.354 27.1625 205.448 23.0815 205.829 19C206.087 16.2374 206.217 10.8515 201.941 11.8896C198.923 12.6226 196.377 15.4949 194 17.3349C189.874 20.5287 185.494 23.3441 181 25.9892C165.371 35.1885 147.345 41.6379 133.001 52.8148C127.207 57.3293 120.76 62.5979 119 70C115.415 66.464 113.433 61.7111 109.907 58.0394C103.191 51.0461 94.5309 45.7304 86 41.2554C77.5157 36.8048 69.2107 31.9363 61 27C54.0486 22.8208 47.253 18.4236 41 13.2462C38.7202 11.3585 35.3527 7.37711 32.1481 7.34491C28.1078 7.30429 28.9077 14.4963 29.0903 17C29.7718 26.3471 34.528 37.0498 41.3002 43.5355C49.0509 50.9583 59.042 52.381 69 54.679C81.9826 57.6751 96.7591 63.1685 105.101 74.0039C113.115 84.4131 117.391 99.0055 105 108M77 34C93.1178 40.7015 105.681 49.6805 118 62C125.47 56.7377 131.175 49.6462 139 44.696C146.908 39.6936 156.266 37.2023 164 32C144.997 23.8218 125.188 24.0442 105 24.9606C95.8176 25.3775 83.5405 26.8395 77 34M45 236C44.0329 231.357 45.9018 227.424 47.3295 223C49.5337 216.17 51.8331 209.021 53.331 202C58.4858 177.839 57.2483 151.977 43.3326 131C40.5022 126.733 37.9642 122.276 34 119C13.5911 153.967 20.8598 200.055 39.7315 234C46.4638 246.11 57.1047 261.995 70 268C68.7266 271.915 67.0985 275.822 67.0795 280C67.0589 284.506 69.1213 288.275 66 292L64 283L0 283L0 298L229 298L229 283L185 283C177.471 283 171.098 281.377 169 290C167.72 285.671 168.28 281.452 167.897 277C167.703 274.756 166.687 272.24 167.403 270.015C168.823 265.596 174.783 262.324 177.83 258.996C185.706 250.395 192.759 241.341 198.219 231C216.651 196.09 220.708 154.705 202 119L200 119C195.225 127.971 188.66 136.16 185.623 146C176.155 176.674 183.596 206.106 192 236C184.733 228.487 182.147 212.073 180.715 202C178.107 183.662 176.157 166.083 181.9 148C186.243 134.328 196.345 123.431 201.034 110C202.851 104.796 202.968 98.4671 203.561 93C204.592 83.4871 201.411 71.4355 197.1 63C195.77 60.3991 194.162 56.648 191.61 55.0278C187.749 52.5758 181.717 54.2114 178 56C183.08 69.2073 192.944 77.4351 190.7 93C188.539 107.992 177.449 116.891 165 123.846C139.596 138.037 103.483 139.257 77 127.208C62.0637 120.412 43.3332 105.644 45.304 87C46.6451 74.3132 54.0586 66.8928 61 57C56.5757 55.0418 50.1327 52.4993 45.304 54.6034C42.0733 56.0112 40.3836 60.0725 38.841 63C34.0537 72.0854 31.6528 83.7362 32.1042 94C32.4567 102.016 33.7145 109.789 37.3735 117C43.5612 129.195 52.6836 138.506 56.4059 152C62.0757 172.554 58.4646 195.967 52.4298 216C50.3798 222.805 47.0873 229.227 45 236M77 67.5185C61.7765 70.6989 54.1473 89.383 64.419 101.907C69.8284 108.502 79.9791 110.197 88 108.482C101.144 105.673 108.48 90.0544 101.721 78.0008C97.3132 70.1394 85.7216 65.6965 77 67.5185M152 67.4406C132.074 70.5515 123.567 99.1812 145 107.656C149.194 109.314 154.589 109.446 159 108.671C185.386 104.034 178.266 63.34 152 67.4406z"/>
<path style="fill:#f1f2f2; stroke:none;" d="M155.105 77.7608C146.815 80.9308 151.666 93.565 159.941 90.392C167.545 87.4762 162.991 74.7451 155.105 77.7608M83.1088 79.0285C75.047 83.5064 82.2168 94.475 89.8519 89.9722C96.9201 85.8037 90.3458 75.0088 83.1088 79.0285M64 160C66.4299 171.581 76.2195 177.995 88 175.482C92.2581 174.574 96.7604 170.836 101 170.776C104.638 170.725 108.489 174.098 112 175.12C120.684 177.646 131.014 174.668 137 168C146.203 175.222 162.563 181.147 171.005 168.895C172.637 166.527 173.347 163.75 174 161C166.709 166.11 158.673 172.906 149 168.991C145.332 167.506 142.02 162.251 138 162.203C134.576 162.162 131.045 166.26 128 167.647C117.947 172.227 108.573 169.549 102 161C98.2705 162.729 95.6015 165.767 92 167.697C80.5859 173.813 72.3885 166.737 64 160M65 190C66.0251 202.432 77.2092 208.713 89 205.363C92.7874 204.286 96.9677 200.182 101 200.687C104.248 201.093 106.905 204.102 110 205.146C118.948 208.165 130.203 205.387 136 198C139.64 200.879 143.456 204.05 148 205.362C159.74 208.751 172.288 202.641 174 190C166.075 194.537 160.582 203.217 150 200.21C145.561 198.948 140.991 192.207 136.91 192.207C133.36 192.207 130.065 196.906 127 198.442C117.292 203.308 108.011 199.457 102 191C91.3789 195.923 83.8772 205.952 72.0039 196.61C69.4818 194.626 67.3519 192.172 65 190M64 219C64.2696 228.286 69.6961 234.527 79 235.71C83.2904 236.255 87.9802 235.637 92 234.02C94.8316 232.881 97.7722 230.022 101 230.444C103.556 230.779 105.702 232.898 108 233.926C111.614 235.542 116.064 236.174 120 235.903C125.784 235.504 131.629 230.042 137 230.404C140.804 230.659 144.221 234.217 148 235.152C160.146 238.157 171.825 232.634 174 220C164.453 228.16 155.036 234.912 143.045 226.204C141.015 224.731 139.549 222.94 138 221C133.651 223.016 130.432 226.72 126 228.633C116.672 232.657 108.188 227.936 102 221C92.6532 227.365 83.1536 234.791 72.0154 227.147C68.8108 224.947 66.7626 221.644 64 219M167 247C161.136 253.419 153.105 259.696 144.039 255.231C140.688 253.581 138.385 250.62 135 249C129.866 255.95 120.401 259.388 112 255.991C108.716 254.663 105.631 250.21 102 250.205C98.2996 250.2 94.6072 254.778 91 255.941C80.7988 259.232 75.7679 252.779 68 248C69.2264 259.896 81.1283 265.061 92 262.468C95.2294 261.697 98.0938 258.68 101.285 258.352C103.971 258.076 106.645 260.316 109 261.316C112.27 262.705 115.48 263.025 119 262.995C125.243 262.943 130.329 257.766 136 257.857C141.676 257.949 145.62 263.34 152 262.903C159.363 262.399 169.954 255.539 167 247M134 274L135 291L138 291C138.786 284.782 140.034 277.956 134 274M152 274L152 291C158.388 287.268 155.979 278.826 152 274M83 275C80.7043 280.441 80.9383 285.281 82 291C84.6719 286.54 84.5947 280.136 85 275L83 275M101 275C98.533 280.126 99 285.418 99 291L102 291L103 275L101 275M118 276C116.499 281.078 116.499 286.922 118 292L120 292C121.601 286.571 120.697 280.963 118 276M0 298L0 312L229 312L229 298L0 298z"/>
</svg>
