<?xml version="1.0" standalone="yes"?>
<svg xmlns="http://www.w3.org/2000/svg" width="1024" height="1024">
<path style="fill:#041539; stroke:none;" d="M0 0L0 1024L1024 1024L1024 0L0 0z"/>
<path style="fill:#8cc1e6; stroke:none;" d="M328 117C328.021 148.658 346.471 178.112 371 197.112C387.376 209.796 406.075 218.296 424 228.424C427.987 230.677 433.426 232.805 436.421 236.364C439.501 240.023 438.139 243.577 443 246L443 241C450.561 243.507 457.033 249.615 463 254.729C481.761 270.81 495.99 293.726 501 318C503.39 312.248 499.669 303.413 497.208 298C490.204 282.594 480.535 270.697 471 257C474.206 256.56 476.059 256.216 477 253C483.954 258.747 486.129 268.307 493 274C491.622 266.271 486.517 259.354 482.115 253C471.307 237.398 458.414 224.744 443 213.71C435.538 208.368 428.392 201.955 419 201C425.182 208.265 435.501 210.909 442 218C433.745 214.438 425.885 206.522 417.015 204.697C410.879 203.435 410.045 212.057 403.995 211.888C398.953 211.748 393.132 207.134 389 204.576C376.119 196.598 362.781 187.605 354 175C357.078 175.064 359.975 175.438 363 176L363 174C372.891 178.92 380.986 188.474 392 191C390.861 189.985 390.388 189.691 389 189C395.45 188.309 399.941 191.832 406 193C400.96 187.906 393.086 185.153 387 181.319C374.893 173.692 363.235 165.06 353.09 154.911C346.426 148.244 340.791 140.268 336.309 132C333.82 127.41 332.167 120.126 328 117M694 117C690.031 133.711 676.876 151.225 663 161C663.986 159.521 664 159.797 664 158C662.449 158.961 660.759 160.315 658.975 160.821C650.605 163.196 650.004 153.446 650 148L648 148C647.971 156.064 644.576 158.649 637 161L635 173L623 173L623 175L634 175C634.058 177.784 634.352 180.291 635 183C625.978 186.284 617.42 192.07 609 196.694C584.149 210.342 561.84 225.866 544.885 249C537.923 258.499 527.778 271.904 527 284C530.647 279.598 532.957 273.939 535.861 269C540.802 260.595 546.402 252.185 553 245C550.647 249.3 548.779 253.92 555 255C542.815 272.301 523.992 290.245 523 313C525.719 309.205 526.688 304.319 528.452 300C531.003 293.752 534.417 287.79 537.864 282C548.238 264.576 565.33 248.838 583 239L584 245C587.237 243.647 588.412 242.483 589 239L593 238C595.175 239.907 597.525 238.305 600.001 237.078C605.117 234.544 609.722 231.212 615 229C611.469 227.563 608.472 228.735 605 230L604 226C648.894 207.309 695.994 169.799 696 117L694 117M326 148C326 160.233 328.458 171.547 332.814 183C334.774 188.154 336.76 193.365 341 197C341 195.203 340.986 195.478 340 194C343.072 191.027 339.344 186.235 337.756 183C334.168 175.692 331.625 167.829 329.428 160C328.294 155.958 328.174 151.623 326 148M696 150C695.413 163.638 688.676 175.235 685 188L688 190C694.634 178.332 697.998 163.33 698 150L696 150z"/>
<path style="fill:#041539; stroke:none;" d="M339 151C339.693 155.441 341.119 159.501 345 162C344.328 157.423 342.275 154.224 339 151z"/>
<path style="fill:#8cc1e6; stroke:none;" d="M406 182C411.762 184.243 419.431 179.485 425 177.67C434.193 174.673 445.178 174.43 453.942 179.442C458.261 181.912 458.721 186.906 460.821 191C463.591 196.4 467.768 200.733 472 205C467.756 204.464 464.17 203.779 460 205C464.437 207.675 470.112 207.953 475 209.698C480.772 211.76 485.572 215.312 491 218C485.947 217.847 481.674 215.441 477 213.684C469.517 210.872 462 208.632 454 208C455.45 209.608 456.051 210.064 458 211C451.219 211.397 447.612 204.791 442 202C450.602 220.395 470.932 215.341 486 222.324C500.126 228.87 505.36 243.969 509 258C510.797 258 510.521 257.986 512 257C513.001 258.924 513.077 259.098 515 260C516.26 244.579 525.949 226.575 541 220.951C547.396 218.562 554.389 219.159 561 217.711C569.715 215.801 577.896 209.91 582 202C573.165 207.052 568.083 213.764 557 214C562.969 211.431 570.329 210.966 574 205C566.504 202.323 559.58 202.597 552 205C560.087 195.614 565.999 189.926 566 177C563.868 177.776 563.229 178.13 562 180C567.849 184.622 559.219 194.46 555.486 197.999C549.123 204.033 540.648 206.567 534.004 212.301C522.249 222.445 517.738 235.558 514 250C512.206 243.916 514.025 238.073 515.197 232C517.651 219.279 521.355 206.959 528.545 196C531.875 190.923 537.186 187.271 540 182C535.924 183.65 530.257 191.601 526 188C520.946 192.188 517.801 198.747 516 205C514.502 197.334 520.932 190.177 523 183C521.091 184.88 520.089 186.542 519 189C513.455 186.331 509.096 186.142 503 186C504.85 192.471 508.085 198.239 509 205C505.058 198.863 501.922 192.532 496 188C496 189.797 495.986 189.521 495 191C491.932 187.642 489.222 184.802 485 183C488.526 189.159 494.489 193.71 498.124 200C506.469 214.439 509.704 231.577 511 248C504.972 237.558 503.404 226.386 494.826 217.015C486.93 208.388 475.447 204.906 467.304 196.575C464.372 193.575 462.388 189.979 461.094 186C460.341 183.682 460.439 180.518 458.976 178.514C456.349 174.916 447.175 173.873 443 173C453.517 169.068 462.592 175.091 473 176C471.179 174.005 469.506 173.011 467 172C474.222 169.926 480.207 174.058 487 176C482.561 170.643 475.887 167.605 469 167C477.867 164.452 484.132 170.119 492 173C491.528 171.584 491.186 171.186 490 170C496.523 170.502 499.915 172.017 505 176C503.309 172.37 500.811 169.842 498 167C506.001 169.916 514.592 169 523 169C520.92 172.344 518.536 175.365 517 179C522.674 174.443 526.201 169.422 534 169L533 172C540.411 169.655 545.915 166.167 554 166C546.81 169.203 538.217 171.824 534 179C543.492 174.278 549.957 170.03 561 170L561 172C554.288 172.673 548.977 176.21 543 179C547.899 180.343 553.346 175.892 558 174.359C565.576 171.863 573.131 172 581 172L569 177C575.818 179.097 583.031 174.319 590 175.213C601.278 176.66 610.563 184.756 622 185C618.879 180.594 611.899 178.604 607 176.603C593.749 171.193 580.107 166.461 566 163.917C526.857 156.857 488.854 155.911 450 165.627C435.066 169.361 419.351 174.209 406 182z"/>
<path style="fill:#041539; stroke:none;" d="M491 165C492.896 167.02 494.415 167.995 497 169C495.427 166.281 494.075 165.627 491 165M527 168C529.301 167.603 530.905 167.043 533 166C530.186 165.088 529.017 165.926 527 168z"/>
<path style="fill:#8cc1e6; stroke:none;" d="M416 182C420.374 183.569 425.437 181.402 430 181.089C435.564 180.708 440.606 181.887 446 183C437.574 174.558 425.749 178.707 416 182M572 188C575.566 185.802 578.933 183.027 583 181.8C590.923 179.411 599.145 181.942 607 183C597.899 175.05 577.773 176.708 572 188M704 182C696.388 194.858 686.862 204.386 674 212C678.923 213.307 683.941 208.452 688 206C684.684 213.111 677.538 218.132 671 222.186C651.999 233.968 629.68 234.44 609 241.333C601.434 243.855 588.537 247.073 584 254C596.823 249.053 609.668 244.75 623 241.374C638.687 237.402 654.867 234.256 669 225.988C679.17 220.039 689.62 212.8 695 202C693.601 212.297 682.81 218.601 679 228C690.77 222.511 698.425 206.875 702.116 195C703.416 190.815 705.658 186.257 704 182M320 184C320.363 201.471 333.565 225.041 350 232C343.787 220.974 333.101 213.823 328 202C331.783 206.766 335.268 211.636 340.001 215.535C362.267 233.883 390.123 238.073 417 245.71C427.143 248.592 436.131 253.877 446 257C439.699 249.649 427.918 245.83 419 242.587C389.882 231.999 354.962 234.338 335 206C337.077 207.109 338.677 207.642 341 208C337.958 203.717 333.799 200.819 330.289 196.961C326.566 192.867 323.947 187.823 320 184M530 202L529 208L525 207L518 227C523.064 223.786 526.438 217.543 530.579 213.17C536.415 207.008 545.179 202.298 548 194C543.523 194.944 541.134 197.805 538 201C540.017 194.015 544.3 189.346 550 185C540.934 183.793 536.856 198.438 530 202M468 185C469.065 190.091 470.357 195.16 475 198C472.761 193.726 471.169 188.591 468 185M555 185C553.605 190.532 550.152 194.814 548 200C552.96 196.169 555.37 190.959 557 185L555 185M433 188C435.82 189.772 438.714 190.515 442 191C439.201 188.917 436.458 188.304 433 188M479 188C482.268 192.963 485.687 197.474 488 203C486.461 201.044 485.219 199.17 484 197C481.9 197.413 480.765 197.816 479 199L477 194C475.704 198.938 480.61 201.537 484.001 204.31C492.009 210.861 498.49 217.214 504 226C506.056 220.058 499.614 211.901 498 206C495.642 205.341 494.757 204.733 493 203L491 204C488.444 197.422 485.681 191.142 479 188M583 190C585.749 190.58 588.251 189.624 591 189C588.15 188.156 585.817 189.111 583 190M418 189C419.978 190.732 421.435 191.402 424 192C422.02 190.116 420.69 189.531 418 189M600 191C602.462 191.697 603.665 191.11 606 190C603.63 189.411 602.293 190.045 600 191z"/>
<path style="fill:#041539; stroke:none;" d="M594 211C600.906 208.814 606.991 205.135 614 203C614.406 205.092 614.217 205.02 616 206C613.119 210.305 615.686 214.563 621.004 212.629C629.248 209.631 640.401 203.758 646 197C640.899 196.053 636.026 195.514 631 197C628.632 195.055 625.615 197.87 623 199C624.186 197.814 624.528 197.416 625 196L621 197C622.186 195.814 622.528 195.416 623 194C613.39 194.231 598.418 202.3 594 211z"/>
<path style="fill:#8cc1e6; stroke:none;" d="M433 195C440.978 199.781 453.888 198.283 463 200C456.713 193.506 441.57 195.676 433 195M561 199C564.339 199.789 567.603 198.516 571 198.171C578.008 197.459 585.002 196.884 592 196C588.708 194.715 585.478 195.809 582 195.961C574.654 196.282 567.324 194.602 561 199z"/>
<path style="fill:#041539; stroke:none;" d="M534 202L534 205C534.696 203.446 534.696 203.554 534 202M535 217C540.609 217.983 547.648 213.006 553 211.232C557.934 209.597 563.085 209.841 568 208C559.237 201.363 542.347 211.784 535 217z"/>
<path style="fill:#8cc1e6; stroke:none;" d="M463 224L470 232C471.59 229.446 472.895 226.798 474 224L463 224M550 224C551.063 227.406 551.896 230.415 552 234L561 225C557.568 223.56 553.7 224 550 224M483 243C482.658 240.67 481.834 238.338 481.623 236.003C480.786 226.738 490.73 232.449 495 234C492.038 229.894 485.878 223.887 480.109 225.836C471.561 228.723 478.959 239.829 483 243M528 236C531.294 233.851 540.981 226.022 542.593 234.059C543.088 236.53 542.197 239.507 542 242C546.348 239.331 550.984 229.501 544.772 226.068C538.496 222.6 530.285 231.114 528 236M505 262C507.475 255.021 499.811 244.638 494.96 240.109C493.178 238.446 490.77 236.338 488.133 236.546C484.917 236.8 484.364 240.457 484.883 243C485.821 247.592 489.202 250.557 492.965 252.976C497.218 255.711 501.371 258.454 505 262M520 257C524.799 252.386 529.94 245.905 533 240C533.196 242.826 532.833 245.089 535 247C532.616 251.121 529.768 254.104 526 257L531 251C524.82 252.686 520.467 257.831 519 264C525.964 259.258 534.855 254.507 537.66 246C538.415 243.708 539.869 238.821 537.393 237.072C535.017 235.394 531.804 237.715 530.04 239.228C524.931 243.611 520.692 250.285 520 257z"/>
<path style="fill:#041539; stroke:none;" d="M486 241C488 249.413 496.349 253.392 503 258C501.397 249.947 493.779 243.153 486 241z"/>
<path style="fill:#8cc1e6; stroke:none;" d="M340 247C321.918 277.979 313.587 319.76 322 355L324 355C326.634 345.833 323.042 334.681 324.428 325C325.647 316.487 327.02 307.12 329.865 299C332.488 291.516 336.811 284.6 339 277C334.902 280.756 331.906 285.793 330 291C328.66 279.575 341.699 269.665 346 260C341.01 262.666 337.799 267.875 334 272C336.677 265.571 340.634 260.047 344 254C341.971 255.125 340.657 256.336 339 258C340.939 254.078 342.109 251.065 340 247M683 247C683.558 250.818 683.606 254.365 685 258L683 257C684.524 261.604 687.613 265.32 689 270L679 261C683.497 271.637 692.949 279.087 695 291L686 277C685.51 280.361 687.688 282.981 689.111 286C691.86 291.83 694.277 297.715 695.765 304C697.619 311.83 699.607 319.931 699.961 328C700.388 337.751 699.006 347.301 699 357C705.557 351.174 704.959 337.235 704.999 329C705.097 308.814 701.263 289.028 694.656 270C692.005 262.367 688.815 252.753 683 247M363 248C339.632 273.388 333.486 306.095 342 339C344.274 332.659 340.553 322.761 340.09 316C339.365 305.416 341.491 294.042 344.745 284C347.452 275.649 351.563 267.348 356.345 260C358.651 256.457 363.142 252.288 363 248M663 251C665.086 256.422 669.067 260.834 671.742 266C677.855 277.809 682.402 290.695 683.826 304C684.825 313.328 683.83 322.88 681.88 332C680.924 336.47 679.212 340.373 679 345C683.105 339.512 683.953 331.61 685.196 325C688.805 305.808 684.818 282.743 674.792 266C671.573 260.623 667.982 254.844 663 251M648 252L645 260C647.957 258.038 649.186 255.426 648 252M375 253C375.46 257.135 376.742 259.418 380 262C378.707 258.769 377.15 255.737 375 253M490 253C491.625 255.808 492.941 256.914 496 258C494.158 255.92 492.35 254.491 490 253M681 255L682 256L681 255M368 256C366.074 264.09 366.541 271.903 371 279C371.749 274.73 368.835 270.342 368.315 266C367.902 262.555 369.172 259.267 368 256M655 256C656.311 266.374 653.885 271.625 650 281C657.611 276.378 660.632 263.082 655 256M496 260C498.949 266.627 503.606 271.971 506 279C508.282 272.404 500.959 263.661 496 260M651.333 260.667C651.278 260.722 651.222 261.778 651.667 261.333C651.722 261.278 651.778 260.222 651.333 260.667M373 261C373.849 263.806 374.548 265.388 377 267C375.995 264.415 375.02 262.896 373 261M526 262C520.519 268.107 516.381 275.686 516 284C518.322 280.309 519.311 275.918 521.27 272C522.907 268.725 525.573 265.629 526 262M391 294C394.033 289.993 395.71 285.095 398.761 281C404.618 273.138 412.84 268.119 422 265C417.516 263.254 412.891 265.682 409 268.069C399.957 273.614 391.572 282.978 391 294M608 266C610.71 268.557 614.083 270.055 617 272.38C623.1 277.242 627.601 283.051 631 290C632.216 285.831 629.512 282.117 626.812 279C621.679 273.076 615.985 267.246 608 266M358 269C360.724 280.463 370.462 288.271 382 290C376.936 286.167 370.875 284.175 366.094 279.7C362.733 276.553 361.547 271.652 358 269M664 269C662.131 278.39 653.306 284.416 645 288C655.584 290.189 663.934 277.697 666 269L664 269M357 273C357 283.624 359.21 293.419 370 298C366.749 293.952 362.71 290.798 360.403 286C358.389 281.812 358.751 277.133 357 273M666 273C665.992 284.342 662.408 290.573 653 297C663.914 298.582 669.41 281.126 666 273M420 276C420.547 284.17 414.375 288.408 413 296C416.392 292.714 418.792 288.516 422 285C421.563 287.043 421.059 288.936 421.782 291C425.352 301.188 441.405 296.231 438.242 286.025C437.623 284.028 436.27 282.592 435 281L439 280C433.447 275.519 426.776 276 420 276M583 282C589.674 278.843 595.38 282.194 602 284C601.099 282.078 600.924 282.001 599 281C598.97 278.939 598.923 278.909 598 277L602 277C594.212 273.732 581.749 278.368 575.189 283.005C570.825 286.09 570.244 291.877 574.279 295.566C582.864 303.416 593.829 287.683 583 282M352 282C352.934 289.445 357.789 296.542 365 299C360.19 293.434 356.386 287.771 352 282M671 283L671 286C671.696 284.446 671.696 284.554 671 283M669 287C666.008 292.766 661.28 296.394 656 300C661.776 300.542 670.626 293.121 669 287M642.667 289.333C642.222 289.778 643.278 289.722 643.333 289.667C643.778 289.222 642.722 289.278 642.667 289.333z"/>
<path style="fill:#041539; stroke:none;" d="M328.333 291.667C328.278 291.722 328.222 292.778 328.667 292.333C328.722 292.278 328.778 291.222 328.333 291.667z"/>
<path style="fill:#8cc1e6; stroke:none;" d="M350 291C350.327 304.903 362.146 311.965 375 312C368.248 308.384 360.787 308.24 355.39 301.907C352.627 298.664 351.82 294.69 350 291M673 291C670.782 299.478 667.152 305.849 658 308C655.279 299.805 647.516 309.003 645 313C655.664 312.78 678.982 306.333 673 291M612 299C611.982 305.666 611.354 312.396 607.362 318C605.372 320.793 602.812 323.384 600 325.351C583.782 336.698 566.275 322.641 563 306C560.143 313.322 566.611 320.651 570.816 326C574.255 330.373 575.948 334.566 581.015 337.426C593.468 344.455 614.055 340.537 619 326L615 328C614.517 324.142 612.132 320.796 611.799 317C611.263 310.903 614.55 305.077 612 299M631 301C630.405 329.824 601.812 355.539 573 342.956C563.704 338.896 557.264 331.391 552 323C550.694 326.809 552.874 330.017 555.329 332.999C560.173 338.882 566.777 343.902 574 346.452C595.624 354.087 618.723 344.709 628.359 324C631.398 317.467 633.913 307.942 631 301M393 302C391.201 308.087 392.36 314.071 394.356 320C402.19 343.279 426.06 353.975 449 346.489C457.17 343.823 467.068 338.552 470 330C463.287 333.13 458.998 339.576 452 342.536C432.797 350.657 410.468 343.184 399.877 325C397.402 320.751 395.307 315.85 394.376 311C393.782 307.91 394.223 304.915 393 302M411 303C411.093 307.482 412.64 311.526 412.992 315.911C413.374 320.674 412 326.083 412 331L405 326C410.447 342.013 430.208 342 444 342C441.11 340.787 438.126 341.002 435 341C438.986 339.615 443.339 338.701 446.74 336.034C449.709 333.705 451.085 330.112 453.032 327C455.604 322.887 458.594 319.733 460 315C456.548 318.306 454.094 322.355 449.999 325.034C439.123 332.15 425.289 329.099 417.394 318.996C413.617 314.162 414.035 308.033 411 303M680 303C680 336.157 663.939 370.798 632 384.572C610.471 393.856 586.726 392.791 566 381.765C556.561 376.744 548.045 369.994 543.518 360C540.097 352.45 541 344.073 541 336C538.268 341.139 539 347.331 539 353C535.879 345.949 535.604 339.519 537 332C534.672 334.958 534.296 338.283 534 342C529.858 334.825 530 327.05 530 319C525.478 325.581 527.314 335.235 530.606 342C537.161 355.474 543.888 368.945 556 378.32C596.625 409.766 659.571 393.747 676.333 344C680.213 332.483 686.192 314.648 680 303M348 305C348.269 317.973 356.467 329.839 370 331.79C376.613 332.743 382.545 330.563 389 330C375.916 338.125 363.456 337.127 351 329C352.892 338.723 357.014 347.867 368 349C361.381 344.521 357.154 341.01 353 334C359.117 336.871 365.217 338.708 372 339C372.343 341.806 373.155 344.305 374 347C379.016 346.559 383.224 344.365 388 343C382.216 346.953 375.925 348.453 369 349C372.697 350.552 377.017 350 381 350C376.096 358.611 366.952 353.526 360 351C370.197 362.675 388.108 353.085 399 348C391.082 357.789 380.137 360.992 368 361C371.588 368.293 379.809 369.125 387 367C382.174 364.975 376.194 365.621 371 364C376.935 362.242 383.859 361.044 390 360C384.683 368.419 397.648 366.586 402 365C395.313 372.239 387.211 373.164 378 372C387.37 380.78 404.197 369.393 410.816 361.997C412.924 359.641 414.666 357.131 417 355C413.384 366.421 403.592 376.804 392 380C400.875 383.716 410.926 376.616 418 372C417.043 373.517 416.613 374.338 416 376C418.232 376.363 419.768 376.363 422 376C418.845 380.247 415.06 382.539 410 384C413.981 385.538 417.655 383.593 421 381.211C428.835 375.631 432.411 367.947 435 359C437.43 370.249 429.377 380.616 421 387C430.155 388.632 439.432 379.497 443 372C443.217 376.687 441.263 380.678 438 384C441.558 384.578 444.403 382.334 446.957 379.895C454.025 373.145 455 365.227 455 356C453.622 358.588 453.239 361.08 453 364C451.307 358.899 450.301 357.451 445 356L449 355C445.654 353.635 442.528 354.669 439 354.911C434.045 355.25 428.873 355.183 424 354.191C404.041 350.128 389.003 331.148 385 312C384.076 313.648 383.551 315.175 383 317C376.114 315.361 368.804 316.325 362 314.085C356.511 312.277 352.626 308.219 348 305M675 305C669.775 312.077 660.716 315.465 652 315.74C648.29 315.857 644.049 314.016 640.529 315.858C636.101 318.176 634.866 324.931 632.676 329C629.012 335.808 623.212 341.84 617 346.394C610.644 351.054 602.847 353.986 595 354.826C590.32 355.328 584.886 354.011 580.429 355.768C576.557 357.295 573.888 361.158 571 364C570.276 360.96 570.026 358.122 570 355L568 355C568.107 367.811 573.687 382.046 587 386C585.314 384.344 584.254 383.749 582 383C582.28 378.369 580.058 374.455 579 370C585.5 379.74 591.923 386.216 604 388C594.899 379.174 588.277 371.357 588 358C593.998 369.381 597.881 383.451 613 385C610.539 383.094 607.951 381.993 605 381C606.218 378.882 606.867 378.155 609 377L605 370C612.129 376.977 621.552 383.271 632 381C621.068 373.644 611.016 367.653 607 354C616.447 365.903 629.295 380.049 646 373C639.452 370.444 633.005 374.698 627 369L632 369C635.419 366.658 638.12 368.756 642 368.725C647.661 368.681 652.564 366.375 656 362C643.05 361.733 628.244 356.028 622 344C629.781 351.102 640.12 356.855 651 356.82C655.958 356.804 661.562 355.465 664 351C657.565 353.849 650.513 355.481 645 350C656.382 350 668.569 348.421 671 335C667.553 339.098 665.131 344.125 660.004 346.525C656.932 347.963 653.776 347.304 652.709 343.836C652.249 342.34 652.22 340.542 652 339C659.399 338.846 670.521 337.057 673 329C661.903 335.841 646.027 340.472 635 330C640.045 330.44 644.925 332.909 650 332.736C662.165 332.322 680.812 318.981 675 305M333 308C330.855 312.531 328.731 317.128 327.478 322C325.941 327.979 326 333.877 326 340C326 357.258 328.825 378.078 344 389C341.945 384.382 338.545 380.547 336.27 376C331.258 365.984 328.236 354.205 328.015 343C327.871 335.665 329.405 328.101 331.13 321C332.128 316.889 334.252 312.123 333 308M690 308C695.044 330.002 698.642 352.718 688.677 374C685.693 380.373 680.963 385.306 677 391C683.015 388.193 686.893 382.668 690.127 377C698.093 363.038 700.163 342.723 697.385 327C696.238 320.507 694.696 312.84 690 308M342 309C342 347.405 363.754 385.817 404 393.539C427.587 398.065 456.385 390.707 473.91 373.826C480.217 367.751 484.377 359.734 488.247 352C493.467 341.567 497.499 333.925 496 322C493.384 328.177 492.522 336.346 491 343L488 332C486.807 335.057 487.842 337.78 487.74 341C487.623 344.681 486.471 348.35 486 352C484.378 346.523 484.38 340.601 483 335C481.219 339.562 483.404 345.079 482.816 350C481.641 359.818 476.303 368.369 468.999 374.816C441.19 399.361 395.714 394.801 370.004 369.961C353.936 354.436 344.951 331.145 344 309L342 309z"/>
<path style="fill:#041539; stroke:none;" d="M349 309C351.873 317.812 356.062 326.2 366 328C365.154 324.404 365.154 321.596 366 318C360.428 315.017 354.809 311.411 349 309M660 316C660.49 319.897 660.889 323.13 660 327C668.899 324.357 672.303 317.272 675 309C669.796 311.305 665.674 314.652 660 316z"/>
<path style="fill:#8cc1e6; stroke:none;" d="M511 335C508.638 342.385 504.931 350.095 505.129 358C505.316 365.448 509.191 371.83 510.532 379C511.473 384.026 510.541 389.065 512 394C514.662 387.715 513.031 380.545 514.343 374.004C514.941 371.023 517.013 368.739 517.701 365.83C520.382 354.486 518.693 344.925 513 335L511 335M333 336C333 348.998 333.753 361.267 340 373C341.025 369.303 338.824 365.648 337.896 362C335.826 353.866 336.157 343.521 333 336M690 336C688.812 340.989 689.414 345.989 688.536 351C687.124 359.06 684.223 366.224 682 374C689.727 366.354 694.292 346.227 690 336M545 345C545.106 357.795 549.266 368.433 560 376C559.039 373.045 557.057 370.151 556.917 367C556.727 362.688 558.242 359.324 557 355C555.985 356.139 555.691 356.612 555 358C549.531 354.241 548.581 350.018 545 345M478 346C476.698 351.017 476.295 355.071 471 357C470.024 364.215 466.268 369.388 464 376C472.424 370.065 482.637 357.055 478 346M339 349C339.593 355.801 342.141 362.45 344 369C346.479 363.034 342.253 354.145 339 349M499 350L499 355C500.381 352.859 500.346 352.176 499 350M524 350L524 355L526 355C525.697 352.706 525.421 351.788 524 350M682 355C680.297 358.663 679.208 361.952 679 366C681.472 362.804 683.5 358.963 682 355M464 356L464 360L458 362C457.453 368.691 454.746 374.602 453 381C462.699 375.954 464.703 366.039 466 356L464 356M467 358L467 362C467.71 360.241 467.71 359.76 467 358M559 358C559.19 367.224 562.071 376.801 571 381C568.912 373.75 566.16 367.743 566 360L559 358z"/>
<path style="fill:#041539; stroke:none;" d="M637 361C638.229 362.87 638.868 363.224 641 364C639.814 365.186 639.472 365.584 639 367C643.835 366.959 647.694 366.257 652 364C647.679 362.17 641.715 361.411 637 361z"/>
<path style="fill:#8cc1e6; stroke:none;" d="M528 365L528 369C528.71 367.241 528.71 366.759 528 365M348 367C351.899 381.257 364.273 391.311 378 396C373.378 390.956 367.021 387.632 362.004 382.911C356.824 378.036 353.203 371.751 348 367M675 367C671.088 372.751 667.034 378.125 661.999 382.961C658.061 386.743 653.436 389.752 650 394C658.271 391.382 666.197 385.034 671.211 378C673.476 374.822 675.811 370.921 675 367M343 372C343.535 375.019 344.496 377.327 346 380C346.531 376.82 345.013 374.441 343 372M324 374C323.999 385.858 321.221 396.138 316.573 407C313.751 413.592 311.801 419.086 304 419L303 407C301.301 410.938 301.088 415.719 301 420C296.042 420.807 294.04 423.403 289 421C289.651 422.803 290.843 424.973 290.601 426.951C289.732 434.045 279.208 434.342 274 435C278.534 436.903 285.036 436.608 290 437C290.084 441.888 289.705 445.395 288 450C290.36 448.687 292.391 447.659 295 447C288.949 462.601 282.141 479.004 282 496C284.771 492.659 286.573 488.601 289.029 485C292.145 480.431 296.15 476.609 297 471C293.422 473.745 291.008 476.968 289 481C288.945 471.27 295.897 461.117 299 452C299.095 455.063 298.297 457.936 298 461C299.267 459.457 299.489 458.952 300 457C301.847 462.219 301.004 467.538 301 473C315.49 469.648 330.264 467.342 340.181 454.985C345.358 448.533 348.321 440.884 345 433C343.126 437.456 343.555 442.442 341.366 447C334.672 460.936 320.12 468.875 305 469C305.353 460.907 309.318 455.327 312 448C317.208 452.935 309.093 459.122 315 463C314.364 458.685 315.118 454.591 320 454C317.722 443.353 328.67 439.41 334 432C331.081 431.513 331.489 432.043 332 430C327.843 431.047 324.342 433.206 320 433L321 427C319.805 425.777 319.684 425.58 319 424C325.292 422.51 330.445 421.001 337 421C333.55 418.934 329.947 419.011 326 419C329.179 416.198 332.823 415.365 337 415C330.395 412.228 324.099 415.465 318 418C321.437 413.12 325.923 408.356 331 405.133C334.603 402.847 339.406 402.454 342 399C333.911 399.172 328.671 402.887 322 407C325.447 400.318 331.269 395.103 334 388C331.073 390.296 329.498 392.6 328 396C326.521 389.175 328.674 382.03 327 375C325.263 375.062 325.36 375.02 324 374M699 374C694.217 380.82 696.444 390.455 698 398C696.115 395.16 694.447 392.371 692 390C692.249 395.991 697.879 400.407 700 406C693.273 402.419 688.752 400.005 681 400C684.027 402.16 687.677 402.711 691 404.378C696.676 407.226 701.381 411.862 705 417C699.086 415.386 694.203 414.004 688 414C691.359 416.22 695.081 417.181 699 418C693.783 419.545 688.242 419.342 683 421C686.25 422 689.592 420.815 693 421.188C697.938 421.729 702.47 424.142 707 426C705.255 426.89 703.875 427.453 702 428L703 433C697.051 432.258 692.134 429.144 686 429C689.079 435.3 696.584 437.272 700.129 443.17C702.043 446.354 702.39 453.073 696.991 452.199C693.7 451.667 690.711 448.768 688 447C691.853 454.884 698.356 455.838 705 451C705.289 453.384 704.91 453.387 707 453C708.372 456.367 709.628 459.363 710 463L712 463C711.522 458.333 709.283 454.455 708 450C716.988 451.857 717.166 461.555 719 469L712 469C715.333 471.097 719.174 472.115 723 473C722.935 465.189 718.977 457.619 720 450C728.452 455.955 733.209 468.919 735 479C732.002 476.419 729.617 473.698 726 472C728.58 477.54 733.417 482.017 737 487L739 486L741 493C742.395 489.101 740.554 484.932 739.651 481C737.382 471.113 733.386 461.763 731.039 452C729.84 447.017 731.883 442.021 732 437C736.377 436.447 740.578 436.003 745 436C739.224 433.508 728.176 434.925 730.93 425.045C731.314 423.666 732.327 422.229 733 421C727.333 421.543 724.217 418.248 719 417L719 408C716.438 412.275 717.105 416.582 713 420C710.323 410.708 704.791 402.356 702.043 393C700.258 386.92 701.392 379.699 699 374M668 383C660.38 393.788 649.02 396.614 637 400C640.938 401.637 644.983 400.403 649 399.37C658.12 397.025 666.971 392.479 670 383L668 383M355 384C359.494 395.6 373.325 400.758 385 401C380.71 397.807 374.83 397.167 370 394.752C364.287 391.895 360.146 387.621 355 384M497 386C498.025 392.844 501.077 399.749 504 406C505.552 400.682 500.263 390.316 497 386M479 387C470.673 401.253 461.146 413.716 447 422.76C442.271 425.784 437.054 427.627 432 430C436.564 431.349 441.954 428.33 446 426.215C457.09 420.42 466.531 411.478 473.301 401C475.779 397.164 479.777 391.663 479 387M620 395C626.65 397.594 636.161 392.113 642 389C635.838 387.183 626.163 393.25 620 395M419 424C424.018 425.543 430.224 422.871 435 421.139C449.987 415.704 462.66 403.348 471 390C462.918 393.772 457.792 402.838 451 408.561C441.135 416.872 430.996 420.196 419 424M523 393C520.594 399.925 514.584 424.057 507 409C505.832 413.271 509.225 417.198 511 421L513 421C516.678 414.01 525.875 401.106 523 393M547 393C550.741 401.671 557.106 408.738 563 416L559 415C561.633 417.832 564.727 418.353 568 420.263C577.002 425.516 585.153 431.504 596 432C588.116 426.101 577.908 424.018 570 417.535C561.226 410.343 555.499 400.024 547 393M556 393C564.435 409.933 585.863 424.603 605 425C601.353 422.773 596.995 422.259 593 420.771C587.686 418.792 582.732 416.032 578 412.921C569.522 407.347 564.186 398.767 556 393M560 393C567.872 403.286 584.012 411.488 596 416C591.415 409.788 584.583 406.812 578 403.138C571.988 399.782 566.244 395.915 560 393M427 417C434.368 413.885 440.111 408.273 448 406C443.977 408.37 438.643 410.091 436 414C441.869 412.52 446.878 409.135 452 406C450.341 405.594 449.758 405.691 448 406C453.233 402.195 458.884 399.088 463 394C451.056 398.347 434.513 406.556 427 417z"/>
<path style="fill:#041539; stroke:none;" d="M326.333 396.667C326.278 396.722 326.222 397.778 326.667 397.333C326.722 397.278 326.778 396.222 326.333 396.667z"/>
<path style="fill:#8cc1e6; stroke:none;" d="M540 396C540.67 399.48 542.07 402.037 544 405C544.605 401.363 542.531 398.506 540 396M482 397L478 406C480.842 403.555 483.049 400.837 482 397M352 403C356.387 407.431 363.065 409.502 369 411.116C387.574 416.165 401.244 411.787 419 406C415.46 404.518 411.777 405.391 408 405.255C397.093 404.86 386.813 406.536 376 407C384.387 410.52 397.222 407.109 406 406C396.452 410.792 382.467 412.763 372 410.251C365.016 408.575 358.832 404.967 352 403M401 419C405.224 420.511 409.866 418.309 414 417.024C424.139 413.873 432.329 408.048 442 404C437.443 402.617 432.166 405.403 428 407.309C418.95 411.45 410.629 416.267 401 419M582 403C591.801 411.517 608.922 419.402 622 420C618.176 417.109 613.314 415.828 609 413.742C600.262 409.514 591.744 404.439 582 403M622 408C628.952 405.964 637.692 408 645 408C634.173 401.513 617.019 405.949 605 405C609.877 408.897 616.98 409.932 623 411.094C640.37 414.447 657.18 412.434 673 404C666.752 402.286 656.523 408.95 650 410.331C640.291 412.387 631.433 409.597 622 408M485 409C479.945 417.745 471.911 424.645 462 427C463.797 424.337 465.667 421.92 467 419L455 428L456 432C465.057 429.904 473.448 425.713 479.957 418.985C482.657 416.195 485.652 413.015 485 409M541 414C545.52 423.69 558.4 431.456 569 432L569 428C567.503 427.75 563.297 427.778 562 427C560.386 426.031 559.938 423.292 558 422C556.694 421.129 555.779 422.889 555 423C554.263 423.105 554.625 420.873 554 424C549.19 421.22 545.511 417.175 541 414M489 415C487.115 420.057 485.078 425.529 485.079 431C485.08 443.801 496.247 452.207 502.755 462C506.514 467.656 508.42 474.339 512 480C515.616 474.625 517.702 468.36 521.439 463C528.507 452.862 539.54 443.417 538.953 430C538.783 426.121 537.226 422.63 536 419C534.993 422.402 536.741 425.497 536.867 429C537.029 433.478 535.52 437.861 534 442L534 434L531 434C529.774 438.188 526.716 441.607 524 445C526.556 438.145 528.938 431.37 529 424C526.193 427.648 526.293 432.636 524.961 437C523.252 442.597 520.239 447.623 518 453C518.511 447.461 521.506 442.62 522 437C515.591 441.806 510.579 441.325 503 441C503.885 445.966 506.611 450.178 508 455C502.302 445.69 497.485 436.114 497 425C494.066 431.992 498.158 439.252 500 446C497.609 443.068 495.522 441.392 492 440L492 444C488.722 439.185 486.728 432.923 487.34 427C487.77 422.85 490.414 419.077 489 415M393 423C399.017 425.519 415.246 423.659 419 418C410.247 419.359 402.002 422.289 393 423M608 419C612.396 422.288 617.625 422.955 623 423C618.574 421.012 612.811 419.818 608 419M634 493C635.081 491.542 635.436 490.752 636 489C638.057 496.16 635.914 505.446 636.004 513C636.171 527.039 637.433 542.184 640 556C642.3 550.508 639.718 543.734 639.17 538C638.103 526.841 639 515.209 639 504C642.531 504.309 645 503.836 647 507C649.568 500.894 649.714 491.661 650 485C654.244 492.585 652 502.484 652 511C652 525.569 654.177 539.584 656 554C658.775 547.384 655.569 537.996 655.089 531C654.406 521.017 656.972 511.792 657 502C658.891 508.383 658.778 515.423 660 522C665.156 509.714 653.818 493.882 665 483C665 502.971 667.571 522.725 673 542C675.051 535.313 670.556 525.984 670 519C671.023 520.534 670.805 520.402 672 521C672.925 512.588 670.173 504.383 670 496C672.016 499.492 672.91 503.133 674 507C677.731 501.435 672.917 494.578 670.94 489C669.323 484.439 669.013 479.792 669 475C673.194 477.257 673.556 480.846 675.337 485C678.117 491.483 682.891 502.812 690 505C686.942 496.932 681.046 490.615 679 482L682 486C689.907 476.754 677.715 466.962 676 457C685.216 472.004 699.235 484.069 705 501C706.252 497.382 704.39 494.307 702.752 491C699.301 484.029 695.09 477.882 690 472C721.182 492.623 729 526.787 729 562C724.578 552.667 720.434 543.45 712 537C714.457 544.285 720.568 550.079 724.029 557C726.176 561.292 727.038 567.086 731 570C731 541.455 731.011 512.865 712.764 489C701.913 474.808 685.559 467.546 676 452C675.315 453.248 675.251 453.549 675 455C673.393 449.563 674 443.642 674 438C667.248 446.249 670.225 462.185 671 472L667 472L667 464C665.919 465.458 665.564 466.248 665 468C662.771 460.459 664.737 453.46 666 446C662.905 449.427 661.331 454.006 659 458C657.537 447.386 666.976 439.787 671 431C667.845 430.534 665.152 430.516 662 431C664.094 427.979 666.453 425.339 668 422C658.766 426.309 653.194 437.272 648.752 445.999C646.579 450.269 642.814 453.106 640.637 457.184C635.261 467.258 634.001 481.801 634 493M357 423C359.267 427.862 363.523 431.226 366 436C362.682 436.552 360.639 437.317 358 435C357.39 438.735 359.977 441.752 361.68 445C364.602 450.574 367.446 456.694 368 463C362.698 459.768 361.166 450.615 359 445C357.709 449.642 361.195 454.327 361.787 459C362.321 463.212 360.615 466.296 359 470C357.521 469.014 357.797 469 356 469C354.777 470.195 354.58 470.316 353 471C353.001 461.325 354.308 452.585 352 443C350.137 446.505 350.364 450.222 349.392 454C347.291 462.162 344.001 468.379 344 477L346 477L348 463C351.617 476.155 338.319 487.61 340 500C347.281 493.804 350.643 482.222 352 473L356 473C355.891 486.138 349.38 496.737 346 509C347.661 508.792 347.54 508.505 348 510C350.595 505.876 351.905 500.733 353 496C354.404 500.795 353.127 505.108 353.015 510C352.915 514.336 354.041 518.709 353.671 523C353.066 530.03 350.892 536.982 350 544C353.858 538.163 354.281 530.753 355.414 524C358.064 508.195 359 493.024 359 477C369.158 493.715 362.002 510.957 362 529C366.846 519.888 366.999 505.172 367 495C368.548 500.236 367.72 505.602 368.09 511C368.683 519.66 369.508 528.28 368.91 537C368.382 544.709 366.332 552.272 366 560C369.693 553.875 369.524 544.987 370.086 538C371.029 526.262 372.479 514.834 371.961 503C371.659 496.11 367.925 485.485 373 480C373.695 488.733 375.976 497.172 376 506C376.685 504.752 376.749 504.452 377 503C379.755 504.151 381.833 505.349 384 503C385.521 508.146 385 513.661 385 519C385 530.387 384 541.647 384 553C387.358 545.519 386.816 535.097 387.015 527C387.204 519.295 388.301 511.769 387.961 504C387.565 494.957 386 486.085 386 477L388 478C387.95 472.418 386.956 458.356 380 458C376.133 446.135 368.923 428.607 357 423M601 471L601 463C600.315 464.248 600.251 464.548 600 466C597.724 458.226 601.889 451.857 608.039 447.159C618.144 439.44 633.957 439.248 642 429C635.502 431.365 629.466 435.014 623 437.536C614.754 440.753 606.288 443.021 600.214 450.015C594.918 456.113 592.66 466.637 601 471M383 430C391.652 439.44 404.681 439.518 414.999 445.994C421.087 449.814 425.967 456.549 424.775 463.998C424.369 466.536 423.139 468.734 422 471C431.596 467.549 429.269 456.294 423.787 450.015C416.966 442.202 406.308 439.571 397 435.938C392.249 434.084 387.912 431.415 383 430z"/>
<path style="fill:#041539; stroke:none;" d="M689 431C690.223 432.195 690.42 432.316 692 433C691.02 431.217 691.092 431.406 689 431z"/>
<path style="fill:#8cc1e6; stroke:none;" d="M419 432C421.332 432.985 423.457 432.981 426 433C423.669 432.015 421.543 432.019 419 432M597 432C600.77 434.004 604.797 433.988 609 434C605.237 432.192 601.137 432.034 597 432M679 432C672.961 444.566 685.482 462.032 698 465C693.374 459.547 687.345 455.447 684 449C685.666 450.802 686.846 451.89 689 453L684 444C683.378 445.943 683.564 446.949 684 449C680.146 443.337 681.437 437.807 679 432z"/>
<path style="fill:#041539; stroke:none;" d="M323 439C324.875 438.453 326.255 437.89 328 437C325.491 436.434 324.78 437.152 323 439z"/>
<path style="fill:#8cc1e6; stroke:none;" d="M458 441C454.843 445.792 452.773 450.286 452 456C449.567 451.359 449.014 447.189 449 442C441.449 447.672 446.245 459.194 451 465C446.507 461.835 442.322 457.873 439.648 453C437.477 449.043 437.004 444.44 433 442C434.049 462.43 450.928 469.178 464.877 479.89C470.188 483.968 472.258 489.164 479 492L479 490C490.412 495.921 499.811 511.318 504.547 523C506.989 529.024 507.144 540.78 514 543C516.848 521.846 530.209 497.862 549 487C548.014 488.479 548 488.203 548 490C554.953 486.711 564.009 481.866 569 476L565 477C577.575 467.334 589.853 459.524 590 442C587.2 445.174 586.231 449.299 584.201 453C581.076 458.696 575.892 464.253 570 467C576.301 462.084 584.238 449.128 575 443L575 452C573.085 450.723 573.915 450.723 572 452C571.324 448.212 570.285 445.154 567 443L570 451C565.617 445.057 561.236 440.306 554 438C558.968 444.016 567.001 448.211 567.697 457C568.813 471.1 552.93 477.362 544 484.619C531.56 494.728 523.74 507.206 518 522C516.638 517.045 518.171 512.85 519.42 508C523.273 493.032 535.456 480.405 537 465C526.856 473.18 519.577 486.577 516 499C515.436 494.19 518.115 490.236 520.248 486C525.377 475.813 532.475 466.923 538 457C533.231 459.324 530.254 463.773 527.155 468C519.314 478.697 515.281 489.322 512 502C507.154 486.707 501.826 465.013 486 457C487.531 462.361 487.325 467.726 489.453 473C496.346 490.084 507.841 505.846 508 525C500.686 512.421 496.945 499.502 485.985 489.09C476.483 480.063 456.155 473.721 456.358 458C456.496 447.297 466.373 443.292 472 436C467.092 437.858 463.441 441.028 458 441z"/>
<path style="fill:#041539; stroke:none;" d="M695 436C696.663 437.503 697.896 438.199 700 439C698.554 436.717 697.69 436.418 695 436z"/>
<path style="fill:#8cc1e6; stroke:none;" d="M636 441C619.464 457.895 620.77 492.05 593 497C599.382 487.938 610.163 480.77 613.891 470C615.334 465.831 615 461.343 615 457L613 457C613 460.596 613.402 464.516 612.351 468C609.644 476.975 601.505 481.614 594 486C596.849 486.574 598.537 485.509 601 484C594.501 493.201 583.502 497.846 577 507C588.829 502.082 602.964 498.835 611.815 488.985C619.468 480.469 621.745 469.137 626.312 459C628.86 453.344 635.238 446.891 636 441M476 442C478.824 452.676 477.056 467.359 488 474C485.505 464.855 484.06 447.909 476 442M548 444C548 450.526 548.119 456.875 545.475 463C538.947 478.118 524.909 489.105 522 506C525.608 501.866 528.33 497.057 532.09 493C543.337 480.868 559.885 470.135 552.532 451.001C551.461 448.214 550.092 446.072 548 444M391 445C393.238 451.15 396.633 456.92 399.139 463C403.591 473.803 406.931 484.788 416.004 492.815C422.098 498.207 429.656 499.579 437 502.464C441.829 504.361 446.055 507.435 451 509C443.116 499.314 430.91 492.885 422 484C424.398 485.027 426.416 485.678 429 486C422.45 480.516 414.355 476.97 411.649 468C410.688 464.813 411 461.288 411 458C406.566 461.133 408.325 466.685 410.324 471C415.02 481.134 425.429 487.198 430 497C414.097 493.221 407.135 479.054 401.808 465C399.066 457.768 397.173 450.115 391 445M336 446C331.645 449.882 327.915 452.137 322 451C325.777 457.441 336.142 452.667 336 446M544 447C541.423 456.015 538.266 464.599 537 474C544.424 467.141 545.973 456.658 546 447L544 447M473 448C459.486 472.126 489.968 486.999 500 505C501.352 500.126 497.402 494.31 495.247 490C488.788 477.082 478.304 467.413 475 453C473.768 455.561 473.365 458.178 473 461C471.755 456.469 473.993 452.345 473 448z"/>
<path style="fill:#041539; stroke:none;" d="M303 458C305.062 455.272 306.099 452.294 307 449C302.613 450.456 303.015 453.85 303 458z"/>
<path style="fill:#8cc1e6; stroke:none;" d="M347 453C339.406 468.352 322.775 473.983 312.518 487C293.404 511.256 293 540.677 293 570C296.647 567.511 297.509 562.901 299.309 559C301.442 554.379 305.314 550.179 305 545L303 545C300.735 550.413 297.57 555.307 296 561C294.119 554.636 295.604 548.466 295.965 542C297.545 513.625 308.457 489.927 332 473C327.06 481.672 319.057 489.679 318 500C321.466 495.421 323.711 489.799 327.025 485C331.395 478.672 336.742 473.156 341.334 467C344.14 463.239 348.328 457.843 347 453z"/>
<path style="fill:#041539; stroke:none;" d="M516.333 453.667C516.278 453.722 516.222 454.778 516.667 454.333C516.722 454.278 516.778 453.222 516.333 453.667M508.333 455.667C508.278 455.722 508.222 456.778 508.667 456.333C508.722 456.278 508.778 455.222 508.333 455.667z"/>
<path style="fill:#8cc1e6; stroke:none;" d="M420 472C418.766 469.245 417.45 467.018 417 464C418.277 465.985 418.981 466.849 421 468C421.343 465.194 422.155 462.695 423 460C415.387 460.851 412.496 468.062 420 472M608 465C606.276 466.055 606.079 466.036 604 466L603 471C606.576 470.409 608.757 468.836 608 465M557 469C555.152 471.618 553.904 473.927 553 477C556.245 474.901 559.553 472.808 557 469M397 470C399.425 500.723 413.648 537.457 449 541C445.52 538.117 441.333 536.248 437 535C444.454 534.16 452.623 533.244 460 535C458.199 535.562 456.878 535.824 455 536C457.332 536.984 459.457 536.981 462 537C460.199 537.562 458.878 537.824 457 538C461.794 541.688 466.736 539.221 472 540.678C475.653 541.69 478.818 545.012 482 547C476.909 536.09 463.453 531.18 452 531.179C441.597 531.178 433.218 533.314 424.004 526.79C411.891 518.213 406.539 502.772 402.884 489C401.26 482.879 400.306 475.413 397 470M532 555C539.309 547.769 543.18 536.831 550.129 529C565.315 511.886 590.378 497.527 594 473C589.52 476.295 587.664 483.571 584 488C583.817 484.069 583.49 481.135 580 479L587 470C578.532 473.926 572.82 481.229 570.029 490C568.379 495.185 567.824 501.247 565.066 506C562.827 509.857 559.098 512.77 556.089 516C551.124 521.332 546.471 527 542.341 533C537.976 539.342 530.805 546.801 532 555M439 471C440.48 474.166 442.168 475.951 445 478C441.496 483.01 444.674 487.68 446 493C444.067 490.83 442.258 488.815 440 487C440.613 488.661 441.043 489.483 442 491C436.208 486.201 435.584 477.19 430 473C434.286 495.023 455.114 509.755 469.985 525C481.005 536.296 488.919 550.026 496 564C497.728 558.74 492.646 551.709 490.36 547C481.807 529.382 467.9 516.303 454 503L459 506C455.03 492.01 451.472 479.786 439 471M626 472C618.716 490.908 617.184 516.542 598 528.07C587.407 534.436 575.591 530.778 564 532.184C557.245 533.004 550.863 536.388 546.005 541.043C543.458 543.483 541.478 545.83 540 549C544.95 545.516 549.1 540.164 555 538.164C558.833 536.865 563.915 537.514 568 537C566.494 536.317 565.685 536.174 564 536C571.961 533.647 580.78 535.526 589 534C585.646 535.958 581.869 538.463 578 539.193C569.771 540.745 562.871 538.457 555 543L557 546C552.732 547.118 548.808 549.774 545 552C545.598 553.195 545.466 552.977 547 554C540.382 556.911 534.074 562.408 531 569C535.726 565.671 539.404 561.187 544 557.684C550.066 553.06 558.657 549.025 566 547C561.46 550.499 556.086 552.398 551 555C554.471 555.581 557.797 553.521 561 552.15C565.601 550.182 570.343 548.783 575 547L574 545C584.266 538.817 596.973 535.189 605.826 526.7C615.056 517.85 618.693 505.808 622.34 494C624.227 487.891 627.92 478.244 626 472M278 541C280.466 536.397 281.467 530.878 283.452 526C285.88 520.036 289.565 514.273 291 508C284.899 511.921 282.021 523.09 281 530C279.652 525.094 281.161 520.773 282.59 516C285.396 506.621 290.254 498.099 297.04 491.001C301.121 486.732 306.272 483.514 310 479C283.404 484.014 272.223 516.735 278 541M715 480C719.568 485.003 725.287 488.846 729.816 494C738.099 503.427 743.453 516.446 744 529C741.418 524.1 740.6 516.207 736 513C737.65 522.283 743.05 530.674 745 540C748.019 535.58 747.112 529.19 746.985 524C746.536 505.676 735.455 481.693 715 480z"/>
<path style="fill:#041539; stroke:none;" d="M421 483L422 484L421 483z"/>
<path style="fill:#8cc1e6; stroke:none;" d="M457 486C461.687 493.795 461.611 502.132 465.558 510C468.03 514.928 472.676 518.637 476 523C477.017 519.56 475.413 516.35 474.344 513C472.625 507.612 471.038 502.283 469 497C475.728 506.07 478.081 518.504 482 529C485.172 529.602 486.122 530.947 487 534C489.029 529.119 487.057 522.856 485.49 518C480.977 504.015 471.839 490.367 457 486M537 528C545.204 521.552 548.618 515.296 551 505C551.848 510.29 549.207 514.906 548 520C552.049 516.906 556.75 512.565 559.084 507.961C562.527 501.17 563.044 493.111 566 486C549.068 492.199 537.759 510.373 537 528M325 494L325 497C325.696 495.446 325.696 495.554 325 494M324 498C322.891 502.714 323.307 506.48 325 511C326.122 507.353 325.48 501.526 324 498M698 499C698.467 502.695 698.969 506.265 699 510C700.549 506.307 700.258 502.305 698 499M411 500C417.383 508.848 427.891 509.721 438 511C437.014 512.479 437 512.203 437 514C442.716 518.528 448.148 519.809 455 522C449.226 522.725 443.035 520.017 437 520C439.052 520.874 440.747 520.953 443 521C444.906 526.711 450.018 525.493 455 526.515C460.895 527.724 466.265 530.361 472 532C466.356 523.987 458.072 516.023 449 512.043C440.957 508.514 432.334 508.368 424 506.073C419.351 504.793 415.233 502.227 411 500M611 501C601.669 507.637 591.448 506.363 581 509.439C569.132 512.933 559.037 522.011 552 532C558.111 530.24 563.602 527.244 570 526.299C575.309 525.515 582.685 526.76 585 521C578.752 521.052 573.072 522.747 567 524C573.416 520.065 587.632 520.999 586 511C592.338 509.819 598.949 509.283 604.996 506.881C607.864 505.742 610.769 504.203 611 501M347 511C345.296 518.191 341.289 524.749 340 532C344.114 527.759 349.072 516.84 347 511M311 513C311.003 517.422 311.447 521.623 312 526C313.727 521.884 313.074 516.901 311 513M400 513C400 523.044 400.88 533.016 401.83 543C402.241 547.32 401.712 551.685 402.174 556C403.558 568.928 408.411 580.019 416.615 590C419.395 593.382 422.19 596.818 426 599C423.181 593.341 418.655 589.123 415.043 584C410.394 577.406 407.082 569.852 405.236 562C402.609 550.828 403.301 539.324 402.169 528C401.679 523.104 401.928 517.551 400 513M712 513L711 526L713 526C713 521.737 713.661 516.959 712 513M293 515C289.677 526.626 283.206 537.016 280.669 549C277.681 563.113 280.439 580.235 284 594C286.32 587.706 284.324 580.498 284.039 574C283.657 565.262 284.999 556.71 285 548C286.081 551.657 286 555.199 286 559L288 559C288 551.274 287.774 543.636 289.17 536C290.484 528.809 293.36 522.085 295 515L293 515M490 515C491.994 524.667 493.224 534.167 494 544C495.44 540.568 495 536.7 495 533C496.497 535.62 497.022 537.647 500 538C502.828 548.361 506.774 558.074 507 569C509.033 564.156 507.438 558.953 506.449 554C503.928 541.372 500.244 523.775 490 515M533 515C520.579 533.833 515 556.603 515 579C518.452 570.85 517.658 560.604 519.924 552C522.062 543.883 527.85 536.097 529 528C530.402 533.1 529.004 538.701 529 544C531.835 538.1 531.314 530.438 532.159 524C532.564 520.912 533.694 518.039 533 515M593 521C595.286 522.119 596.616 521.328 595 519C597.741 518.069 599.104 517.181 601 515C598.164 515.473 594.001 517.497 593 520L595 521L593 521M424 516C426.442 518.565 428.492 519.533 432 520C429.534 517.964 427.071 516.887 424 516M623 516C622.699 523.013 621.569 529.998 621.089 537C620.232 549.516 620.37 561.122 615.384 573C611.617 581.975 603.714 588.227 600 597C620.131 582.81 622.735 557.591 623.004 535C623.077 528.834 625.464 521.873 623 516M620 518C613.562 528.481 603.268 537.727 600.669 550C599.589 555.099 600.781 559.897 601 565C603.478 559.095 602.109 552.183 604.904 546C608.605 537.812 621.592 527.558 620 518M404 519C405.77 528.809 413.836 535.509 418.355 544C421.694 550.273 421.999 557.063 422 564C429.059 550.723 418.331 538.835 410.9 529C408.449 525.757 406.597 522.101 404 519M731 519C731.301 525.57 734.165 531.605 735.576 538C737.05 544.685 737 551.193 737 558C738.797 558 738.521 557.986 740 557L739 587C739.683 585.494 739.826 584.685 740 583L741 587C743.834 581.668 743.97 573.972 743.999 568C744.063 554.716 742.842 543.349 737.573 531C735.786 526.814 734.178 522.275 731 519M329 535C321.241 548.635 320 562.686 320 578C322.743 573.421 321.806 568.144 322.039 563C322.265 558.022 323.557 552.683 325.24 548C326.721 543.88 330.205 539.393 329 535M612 536C609.335 542.021 609 547.5 609 554C610.772 549.787 612.928 540.402 612 536M412 538C413.332 543.827 414 549.007 414 555C416.174 549.819 415.342 542.491 412 538M697 541C697.829 545.817 699.963 550.244 701.101 555C702.601 561.266 702.947 568.559 703 575C706.665 566.266 703.25 547.952 697 541M455 544C458.008 546.427 461.198 547.43 465 548L464 546C471.03 548.025 477.263 552.195 484 555C482.255 552.146 479.847 551.083 477.258 549.05C469.356 542.844 464.937 541.729 455 544M425 544C428.312 552.612 432.799 558.267 433 568C438.115 560.469 431.296 548.648 425 544M597 545C590.31 553.142 590 560.906 590 571C591.999 566.84 591.396 562.348 592.637 558C593.882 553.641 597.767 549.603 597 545M437 549C440.733 555.266 442.274 560.999 444 568C445.968 563.308 444.242 558.693 443 554C445.3 557.271 446.589 560.009 447 564C448.491 560.412 447.642 557.413 446 554C456.07 561.114 457.888 570.665 460 582C463.137 574.454 458.563 559.375 451.957 554.702C447.765 551.737 441.778 550.82 437 549M556 593C564.191 589.609 563.694 581.429 565.455 574C567.44 565.624 570.871 559.036 578 554C576.015 556.747 575.241 558.622 575 562C577.368 559.328 579.327 556.163 581 553C580.859 557.746 579.103 562.176 579 567L581 567C581.541 560.205 583.864 554.961 587 549C580.831 550.462 572.681 552.899 568.649 558.105C563.756 564.423 564.584 573.605 562.649 581C561.456 585.557 558.525 589.131 556 593M539 555C541.217 553.837 542.394 552.914 544 551C541.515 552.013 540.402 552.726 539 555M548.667 557.333C548.222 557.778 549.278 557.722 549.333 557.667C549.778 557.222 548.722 557.278 548.667 557.333M564 557C550.217 565.045 533.288 576.51 531 594C532.656 592.314 533.251 591.254 534 589C534.765 593.521 534.001 598.372 534 603C536.089 598.069 535.437 592.182 536.939 587C538.077 583.074 540.398 580.063 543 577C542.121 580.694 542.003 584.214 542 588C545.606 579.968 544.956 573.718 553 568L552 574C554.074 571.261 555.082 567.888 557.394 565.289C559.731 562.661 564.089 560.741 564 557M459 558C461.878 561.242 465.789 563.505 468.348 567.039C471.885 571.924 472.747 579.128 473 585C475.05 580.103 473.231 573.995 472 569C475.701 572.015 478.093 575.638 480 580L482 577C484.36 582.055 487.419 586.329 488 592C488.685 590.752 488.749 590.452 489 589L493 597C494.929 592.006 491.179 587.245 488.715 583C482.421 572.154 471.944 560.309 459 558M483 559L495 575C495.91 568.731 488.202 561.432 483 559M696 568C696 573.353 701.783 580.361 699 585L698 584L701 590C703.339 584.007 699.984 572.799 696 568M584 576C575.401 592.845 555.461 598.936 543.59 613C540.418 616.759 537.253 620.183 536 625C541.963 621.392 545.609 613.922 551 609.3C563.821 598.309 579.103 592.561 586 576L584 576M298 577C286.362 601.998 290.573 633.406 304 657C305.437 651.819 300.898 646.066 299.677 641C296.685 628.591 294.499 614.783 295.039 602C295.35 594.657 300.41 583.793 298 577M439 577C443.969 592.563 460.361 598.916 472 608.464C476.966 612.538 480.531 618.787 486 622C482.135 607.813 464.777 600.003 454 591.764C448.253 587.37 444.237 581.782 439 577M726 579C726.641 593.942 729.341 607.883 727.829 623C726.881 632.49 722.274 641.515 722 651C725.907 646.572 727.62 639.661 729.116 634C732.363 621.712 733.386 610.611 731.95 598C731.233 591.701 730.026 584.038 726 579M711 580C710.249 589.512 709.655 603.145 704 611C701.642 602.75 697.608 591.665 691 586C694.196 597.093 702.454 606.055 703 618C710.429 612.931 710.323 599.051 711.286 591C711.741 587.19 712.515 583.613 711 580M323 581L322 590C324.718 587.169 324.67 584.512 323 581M312 583C312.001 594.806 314.101 607.624 320 618C324.767 612.543 325.407 603.694 327.839 597.004C329.282 593.032 332.15 590.205 333 586C325.694 590.542 322.547 603.186 320 611C315.751 602.02 316.18 591.695 312 583M461 583C461.537 587.021 462.895 589.401 466 592C464.764 588.718 463.11 585.804 461 583M398 585C402.581 604.276 422.752 610.028 432 626C433.038 621.503 428.833 617.15 425.907 614.004C420.262 607.936 412.853 603.91 407.184 597.911C403.497 594.008 401.559 588.903 398 585M625 585C622.289 591.469 618.316 597.084 612.996 601.7C605.761 607.976 596.63 612.629 593 622C596.827 619.809 599.597 616.273 603 613.464C609.237 608.316 616.529 603.902 621.034 597C623.247 593.61 626.108 589.042 625 585M443 591C447.469 606.513 458.328 615.515 472 622.782C476.364 625.101 480.084 628.049 485 629C477.77 622.209 467.671 619.07 460 612.674C452.473 606.399 449.194 598.128 443 591M580 592C572.719 607.39 560.172 615.721 546 624C549.905 624.65 553.615 621.923 557 620.079C565.209 615.61 571.587 610.033 576.533 602C578.396 598.975 580.593 595.557 580 592M669 596C671.288 605.977 680.682 617.132 691 619C684.959 612.179 683.151 604.911 682 596C680.016 600.731 681.786 606.024 682 611C676.748 606.752 673.919 600.508 669 596M352 597C348.753 602.486 345.425 607.373 341 612L342 599C338.852 603.582 338.517 610.615 337 616L335 615C330.971 619.476 325.804 619.88 320 620C322.332 620.984 324.457 620.981 327 621C325.247 627.237 324.054 633.509 324 640C327.363 635.584 327.886 627.505 328 622C333.519 622.363 335.858 624.709 339 629C340.406 624.426 340.861 619.161 343.394 614.996C346.438 609.988 355.702 603.295 352 597M559 606C563.955 606.868 570.439 603.187 573 599C568.255 600.966 563.547 603.575 559 606M581 599C576.985 605.873 572.148 612.703 569 620C573.881 615.966 582.114 605.685 581 599M452 600C455.541 603.59 460.129 605.772 465 607C461.556 603.656 456.568 601.443 452 600M443 601C445.277 608.889 450.752 615.117 455 622C455.854 616.111 447.173 605.046 443 601M625 602C623.61 605.342 622.004 608.516 621 612C623.611 609.309 625.666 605.801 625 602M412 612C414.988 615.583 418.611 617.5 423 619C420.032 615.535 416.268 613.554 412 612M607 614C609.462 614.697 610.665 614.11 613 613C610.63 612.411 609.293 613.045 607 614M405 614C409.26 627.37 422.398 635.484 427 649C428.563 644.953 426.461 641.57 424.42 638C419.604 629.576 412.477 620.175 405 614M617 615C611.451 623.873 602.241 630.828 599 641C604.37 636.234 609.435 629.89 613.56 624C615.514 621.21 617.559 618.422 617 615M361 616C358.154 630.674 355.955 645.096 354.91 660C354.409 667.156 353.307 673.889 355 681C357.345 675.412 355.776 668.003 356.039 662C356.445 652.73 358.11 643.208 359.285 634C359.986 628.514 362.893 621.279 361 616M417 621C418.795 623.507 420.493 625.205 423 627C421.441 624.291 419.588 622.758 417 621M606 621C602.268 623.853 599.294 626.393 598 631C601.296 628.479 605.051 625.116 606 621M697 623C697 631.035 698.216 638.196 700 646C702.401 640.225 700.187 628.286 697 623M562 626L558 632C560.348 630.227 562.084 628.999 562 626M713 626C708.046 652.293 704.33 678.535 697 704C701.65 699.395 703.869 692.105 706 686C710.787 672.286 713.999 658.598 714 644C714 638.381 715.189 631.216 713 626M461 627C463.767 632.336 468.234 637.355 473 641C470.965 635.014 466.08 630.579 461 627M664 627C664.297 641.405 667.998 655.545 668 670C669.441 666.566 669.001 662.702 669 659C668.996 649.245 668.678 635.734 664 627M311 629C309.397 634.425 309.974 640.37 310.001 646C310.092 664.96 316.111 685.326 325 702C326.658 694.281 323.28 685.362 321.025 678C318.535 669.873 316.817 661.352 315.261 653C313.842 645.388 314.357 635.985 311 629M469 630C474.259 635.032 480.982 637.284 487 641.133C493.308 645.167 498.061 651.19 501 658C502.215 653.558 498.676 649.234 495.815 646.004C489.04 638.356 478.94 632.361 469 630M530 645C537.696 640.716 548.352 636.816 554 630C546.069 632.285 534.04 637.508 530 645M343 631L343 642C344.431 638.59 344.431 634.41 343 631M390 632C395.792 656.386 418.739 671.485 438 685C433.152 674.61 420.108 668.71 412 660.961C407.153 656.328 402.286 651.577 398.52 646C395.48 641.499 393.611 635.999 390 632M556 633C554.361 634.981 553.15 636.711 552 639C554.348 637.227 556.084 635.998 556 633M446 637L446 642C446.83 639.969 446.83 639.031 446 637M630 639C625.409 646.475 620.613 653.839 613.996 659.714C604.63 668.029 593.023 674.413 586 685C598.509 676.447 612.983 666.749 622.671 655C625.878 651.111 630.865 644.193 630 639M673 639L673 643L671 642L671 650C673.115 650.342 675.6 651.028 677.568 649.782C683.958 645.734 677.925 639.546 673 639M462 642C462.831 650.719 469.158 656.365 477 660L462 642M476 642C478.491 645.547 481.219 648.834 485 651C482.459 647.395 479.605 644.541 476 642M546 642L543 647C545.136 645.451 546.451 644.136 548 642L546 642M561 643C557.689 649.658 552.211 654.023 548 660C553.346 656.656 563.246 650.335 561 643M332 653C332 676.352 335.33 699.373 344.579 721C347.424 727.652 350.637 738.108 357 742C356.633 734.919 352.559 729.348 349.787 723C345.539 713.273 342.209 703.165 339.209 693C336.764 684.716 335.441 675.555 334.289 667C333.663 662.358 333.868 657.33 332 653M421 657C425.195 662.484 431.712 668.12 438 671C433.788 665.071 427.497 660.236 421 657M602 657C596.376 661.169 590.169 665.337 586 671C591.11 668.659 600.591 662.641 602 657M687 657C685.286 663.958 684.005 670.826 684 678C686.952 673.08 689.242 662.394 687 657M337 660L338 673C339.727 668.884 339.074 663.901 337 660M691 660C688.28 669.182 687.971 679.537 685.997 689C684.159 697.807 680.633 706.511 677.655 715C675.069 722.373 667.649 732.191 669 740C673.21 735.918 675.733 730.266 678.219 725C684.751 711.164 688.265 696.055 690.421 681C691.276 675.026 693.344 665.599 691 660M663 661C663.023 669.371 664.487 677.581 663.911 686C663.206 696.288 661.085 706.748 661 717C663.698 713.056 663.596 707.67 664.155 703C665.383 692.741 666.167 683.302 665.17 673C664.761 668.776 665.037 664.832 663 661M465 670C468.782 681.124 483.213 687.79 493 693C489.666 686.475 481.847 683.812 476 679.896C471.839 677.109 468.748 673.242 465 670M556 672C549.878 679.689 540.18 682.736 534 690C540.701 687.21 556.18 680.514 556 672M359 673C359 687.568 359.322 701.625 362 716C365.087 708.091 360.409 695.444 360.039 687C359.838 682.399 360.801 677.292 359 673M620 673C620 679.083 619.886 684.999 621 691C622.775 686.648 621.816 677.328 620 673M577 699C585.323 696.366 595.646 690.979 601 684C593.384 687.203 582.292 692.613 577 699M428 688C433.056 693.472 442.047 698.368 449 701C444.263 694.863 435.557 689.729 428 688M382 703C383.35 710.568 389.291 721.055 396 725C392.543 718.051 387.489 708.431 382 703M557 703L554 708C556.015 706.356 557.098 705.587 557 703M641 703L636 714C639.201 711.255 642.194 707.353 641 703M585 710C580.82 712.225 574.738 713.072 572 717C576.285 716.008 583.662 714.714 585 710M441 712C443.435 714.433 445.618 715.388 449 716C446.988 713.32 444.21 712.747 441 712M363 717L363 721C363.71 719.24 363.71 718.76 363 717M633 717C632.014 718.479 632 718.203 632 720C633.289 718.557 633.401 718.766 633 717M610 718C611.025 721.449 612.27 723.654 615 726C613.822 722.793 612.451 720.383 610 718M559 736L574 726C568.014 725.022 562.16 731.552 559 736M451 726C454.086 729.128 458.028 731.145 462 733C459.557 729.005 455.396 727.269 451 726M601 732C601.805 736.676 603.66 740.888 606 745C606.709 740.769 603.898 735.051 601 732M421 735L420 740C421.318 738.074 421.651 737.234 421 735M561 745C566.573 743.22 570.638 739.733 574 735C569.195 737.031 563.586 740.397 561 745M456 740C458.315 743.606 461.861 745.202 466 746C463.138 743.048 459.915 741.24 456 740M418 742L417 746C418.303 744.332 418.553 744.008 418 742M615 745L615 756C616.431 752.59 616.431 748.41 615 745M543 766C548.404 763.595 554.226 759.566 558 755C552.319 757.08 545.931 760.562 543 766M714 775L714 788C710.041 787.956 706.762 787.174 703 786L706 791C687.133 799.186 662.525 796 642 796C648.679 798.829 656.887 797.728 664 798.039C674.722 798.509 685.224 800 696 800L696 802C687.906 802.067 680.032 804.063 672 804.83C657.829 806.184 643.246 806 629 806L629 810C645.942 810 663.109 810.067 680 808.911C687.034 808.429 693.927 807.02 701 807C688.772 814.525 669.043 814.998 655 815C658.959 816.661 663.74 816 668 816C680.47 816 691.006 813.218 703 810.529C709.729 809.02 713.618 811.038 714 818C715.401 814.879 715.73 811.411 716 808C727.559 811.432 719.881 825.669 718 833L635 833C640.707 835.395 648.846 834 655 834L699 834C704.324 834 715.157 836.056 719.442 832.397C730.837 822.665 715.311 798.221 734 798L734 796C728.475 795.98 723.758 795.591 724 789L716 789C715.962 784.401 715.829 779.24 714 775M424 808C425.499 804.886 426.06 801.342 427 798C428.627 802.805 427.607 810.21 433 812C434.131 806.562 435.206 797.83 441 796C440.02 794.217 440.092 794.406 438 794C437.666 791.488 436.854 789.38 436 787C433.004 787.225 431.751 787.552 430 790C429.963 784.624 433.098 780.497 437 777C432.963 776.19 430.301 779.773 428.272 783.001C423.669 790.321 421.519 799.607 424 808M591 778L590 779C591.851 783.466 594.644 787.305 596 792C593.578 788.983 591.742 786.213 588 785C587.472 788.589 585.836 792.342 586.264 796C586.86 801.107 590.498 806.035 592 811C597.639 808.041 596.999 802.692 597 797C598.944 802.19 598.996 807.59 600 813C604.647 801.925 599.125 787.288 593 778L591 778M413 838C409.127 832.313 404.27 826.864 402.554 820C400.855 813.204 402.461 805.824 403 799C404.43 803.794 403.47 809.208 409 811C409.496 803.597 414.625 798.761 414 791C410.248 791.119 408.056 791.8 405 794C407.083 787.476 411.12 783.093 418 782C409.113 778.314 402.232 788.631 400.044 796C396.228 808.851 399.781 831.701 413 838M608 781C612.624 785.484 617.082 788.543 619 795C616.563 792.039 614.816 790.591 611 790C611 793.777 610.402 798.143 611.302 801.83C612.181 805.428 614.922 808.371 616 812C620.628 809.169 619.997 803.922 620 799C621.587 803.208 622.633 807.513 623 812C630.755 801.764 619.968 781.803 608 781M459 811C469.532 807.337 464.91 798.062 463 790C452.66 790.824 456.219 804.48 459 811M561 811C566.876 808.438 570.491 797.852 565.988 792.337C562.146 787.633 559.522 794.956 559.174 798C558.95 799.969 558.935 802.021 559.042 803.998C559.187 806.661 559.858 808.628 561 811M300 821C302.192 816.44 302.623 810.896 304 806C309.902 810.745 317.931 808.451 325 809.286C348.238 812.027 371.889 807.646 395 812L395 806C365.236 806 335.769 803 306 803C310.857 798.04 319.544 800.243 326 799.961C343.637 799.188 361.331 797.049 379 797C373.537 794.708 365.887 796 360 796C347.613 796 335.352 795 323 795C318.108 795 309.435 793.346 305.39 796.603C298.468 802.179 300 813.245 300 821M569 797L570 815C572.191 809.778 571 802.632 571 797L569 797M475 806C476.134 812.792 483.535 811 489 811L533 811C538.705 811 547.796 813.212 549 806L475 806M337 815C340.699 816.552 345.017 816 349 816L371 816C360.888 811.755 347.595 814.545 337 815M621 822C617.684 826.22 614.847 830.953 613 836C617.58 833.659 622.472 827.366 621 822M426 827C426.742 834.202 431.4 841.855 438 845C434.028 839.185 430.447 832.366 426 827M306 833C312.445 835.704 322.032 834 329 834C322.555 831.296 312.968 833 306 833M395 837C395.936 848.763 399.702 866.03 409 874C406.826 867.128 402.782 860.944 400.519 854C398.71 848.45 398.419 841.798 395 837M590 839C588.21 841.438 586.395 843.143 584 845C588.071 845.543 590.368 842.416 592 839L590 839M628 839C625.351 848.404 623.111 858.245 618.626 867C616.216 871.703 612.21 875.233 610 880C619.511 874.907 624.216 860.859 626.845 851C627.862 847.185 629.355 842.779 628 839M592 857L592 861C592.71 859.24 592.71 858.76 592 857M452 864C453.342 873.122 457.38 882.083 462 890C462.601 886.392 460.3 883.243 458.782 880C456.326 874.757 455.213 868.839 452 864M569 871C566.789 876.699 563.689 882.137 562 888C565.857 884.184 570.164 876.545 569 871M607 874C603.796 877.204 600.697 880.714 597 883.363C593.804 885.653 590.197 886.647 588 890C594.139 887.443 607.164 881.774 607 874M474 875C474.167 878.827 474.966 882.32 476 886C477.648 882.034 476.615 878.288 474 875M420 879C423.778 884.085 429.759 887.797 436 889C431.899 884.854 425.372 881.259 420 879M512 879L511 903C506.956 897.671 501.521 900.44 497 904C495.785 901.999 495.001 901.215 493 900L493 904C487.834 899.717 485.414 893.134 483 887C481.683 891.467 484.778 896.041 486.753 900C490.936 908.386 495.559 916.642 503.001 922.621C505.426 924.569 508.75 927.105 512 927.191C516.624 927.314 521.691 922.899 524.714 919.826C532.694 911.715 540.845 898.522 542 887C537.193 892.801 533.892 901.054 531 908C527.928 905.798 525.882 903.152 522 903L518 896L515 896C514.313 899.7 514.01 903.237 514 907C511.376 898.121 515.55 887.46 512 879M579 882C571.239 894.624 562.368 902.664 549 909C558.905 912.857 570.494 899.149 575.135 892C577.114 888.952 579.601 885.678 579 882M445 884C448.927 896.406 460.598 908.823 474 910C468.666 905.534 462.215 902.587 457.015 897.826C452.45 893.648 449.661 887.956 445 884z"/>
</svg>
