<?xml version="1.0" standalone="yes"?>
<svg xmlns="http://www.w3.org/2000/svg" width="438" height="482">
<path style="fill:#f1f2f3; stroke:none;" d="M0 0L0 482L438 482L438 0L0 0z"/>
<path style="fill:#37c9d1; stroke:none;" d="M47 76C58.6855 68.2703 67.7902 57.024 80 50C77.6458 54.9471 73.8676 58.5736 70.8704 63.0895C67.478 68.2008 64.4348 75.5061 59.6242 79.4113C55.7145 82.5851 49.6257 82.1909 45.2855 84.9051C32.1 93.1508 23.3484 111.655 27 127C31.0319 124.975 33.8476 121.179 37.0039 117.999C42.9358 112.023 48.6447 105.497 55 100C53.1283 109.651 48.9683 119.285 48 129C25.7513 132.47 17.3801 158.502 21 178C28.603 170.971 41.141 161.21 44 151C48.4867 166.179 36.7002 172.328 28.5285 183C20.776 193.125 16.2468 212.045 22 224C30.2779 216.652 33.9743 205.356 42 198C40.4832 204.298 41.0617 212.007 38.2971 217.896C36.3197 222.108 31.3151 224.137 28.7022 228.004C21.5191 238.634 21.4961 255.756 27 267C34.5526 260.292 35.0289 249.373 42 243C41.9913 256.192 36.177 266.441 33.5177 279C30.8954 291.385 35.213 309.624 45 318C50.8146 307.99 54.2904 294.597 52.7099 283.004C51.4672 273.889 47.7423 265.393 47 256C51.3952 264.989 56.7585 273.499 62 282L64 282C67.7817 273.038 67.2806 258.799 62.6258 250.17C58.1562 241.884 50.7222 234.761 47.2832 226C44.6973 219.413 46 210.964 46 204C50.8637 213.678 53.9407 224.399 59 234C63.9755 231.322 64.0916 226.209 64.7145 221C65.7641 212.224 64.7675 202.551 59.8958 195C56.6113 189.909 51.2858 185.668 49.0093 180C47.1129 175.278 48.8987 169.908 49 165C55.7264 168.618 56.0412 179.705 60 186C68.7276 177.195 67.0077 158.597 62.24 148.17C60.3465 144.029 56.2746 140.646 55.5895 136C54.7719 130.455 57.7205 123.313 59.1512 118C63.4458 102.052 68.9262 80.9004 81 69C81.8848 75.0183 84.7354 81.8829 83.1605 88C80.6305 97.8266 70.9651 104.282 67.75 114C64.0585 125.158 65.8964 138.676 68 150C74.6037 141.274 81.0349 126.985 82 116L84 116C84 125.041 84.6079 134.366 81.3372 143C79.2557 148.495 74.8387 152.818 72.1343 158C67.3745 167.12 67.1531 177.052 69 187C79.2828 186.188 84.7449 166.82 85 158L87 158C87.0216 165.831 88.9233 173.296 86.4707 181C83.992 188.786 77.6127 195.643 73.9699 203C70.8135 209.374 69.9224 215.966 70.0039 223C70.0689 228.617 70.533 236.144 76 239C80.4232 226.639 87.0333 215.941 90 203C92.3624 210.992 93.3851 223.254 89.787 231C84.916 241.486 75.653 249.545 72.554 261.09C70.5693 268.483 68.9682 282.836 77 287C81.6849 275.747 88.4939 266.109 91 254C93.1118 261.144 93.3343 273.129 90.1019 280C85.4804 289.824 76.821 297.461 73.2485 308C70.0278 317.501 73.6167 325.764 75 335C78.8906 332.792 80.2807 328.906 82.2477 325C86.0592 317.432 90.2453 310.389 92 302C95.6835 314.462 89.3915 325.789 88.1705 338C86.8568 351.139 91.3126 361.585 97 373L100 373C103.526 363.859 106.277 353.918 105.957 344C105.714 336.484 102.928 329.251 101.235 322C99.6161 315.065 98.8905 308.047 98 301L103.119 312L116 330L118 330C121.55 317.99 116.902 303.342 110.533 293C107.347 287.826 102.944 283.543 100.327 278C96.6856 270.286 97 262.306 97 254C102.615 264.655 106.346 281.046 118 287C118.276 273.611 119.33 262.611 113.179 250C109.643 242.75 102.757 237.442 99.6844 230C96.6025 222.534 97.4405 214.759 96 207C101.942 215.347 106.291 231.85 117 235C119.35 222.342 117.077 208.885 109.896 198C105.43 191.231 98.6574 186.001 95.1883 178.576C92.2902 172.373 93.231 164.631 92 158C98.7453 168.118 103.266 181.528 115 187C115 175.563 113.962 163.806 107.401 154C103.045 147.49 95.5053 143.206 92.2778 136C89.164 129.048 90 120.412 90 113C98.1429 120.896 101.296 132.145 111 139C113.18 127.259 112.376 113.779 106.11 103.285C103.83 99.468 101.27 95.5043 98.4869 92.0394C96.6591 89.7636 94.088 87.8443 93.3187 84.9105C90.6475 74.7242 99.9761 64.4421 102 55C104.885 64.761 103.129 74.5311 107.343 84.2855C108.681 87.3809 109.154 90.0507 112 92C113.385 84.6468 114.889 77.2723 116.829 70.0394C117.84 66.2699 119.612 62.959 119.91 58.9992C120.474 51.5092 117.736 40.8851 121.769 34.1852C125.675 27.6945 135.076 26.0862 142 26.0038C155.069 25.8484 165.325 28.6063 177 34.2585C181.094 36.2406 185.625 37.9523 189 41C170.82 42.26 165.126 60.6693 160 75C154.133 73.96 150.257 75.2402 145 77.9236C123.713 88.7888 121 110.564 121 132C124.75 128.394 127.42 123.792 131.039 120C140.763 109.813 152.901 98.9617 157 85C159.195 92.4259 158.259 105.758 152.606 111.621C148.021 116.376 141.662 118.872 137.212 124.015C127.59 135.135 123.185 155.277 129 169L131 169C138.692 156.222 148.851 144.657 155 131C156.725 136.834 157.682 148.404 154.821 153.985C152.197 159.104 146.141 162.613 142.439 167C134.848 175.996 131.878 184.614 129.745 195.91C128.385 203.111 126.594 209.325 131 216C135.574 209.276 141.03 203.026 145.125 196C148.993 189.363 151.905 180.644 157 175C157 182.427 158.928 193.01 156.258 200C153.419 207.432 144.716 212.472 140.221 219C131.534 231.615 130.264 249.261 133 264C136.557 260.95 138.09 256.932 140.533 253C145.929 244.315 153.464 234.256 155 224C156.979 230.696 157.74 243.663 154.427 250C149.996 258.477 141.569 264.694 136.782 273.09C130.173 284.678 128.584 297.989 131 311C135.258 308.788 136.591 304.925 139.09 301C144.447 292.583 149.955 283.574 153 274C158.197 292.902 143.235 306.926 135.32 322C129.719 332.667 128.774 345.522 132 357C139.591 350.497 147 335.982 148 326L150 326C149.529 331.964 149.007 338.193 147.522 344C145.803 350.716 142.868 357.028 142.171 364C140.897 376.732 144.197 387.449 149 399C155.901 396.842 157.709 387.355 158.996 381C161.779 367.267 157.056 356.257 155.209 343C154.35 336.837 155 330.217 155 324C159.319 333.743 161.675 349.721 172 355C176.882 341.963 173.204 326.104 167.191 314C164.851 309.29 160.712 305.049 159.228 300C156.672 291.299 159 279.113 159 270C163.191 272.563 163.252 277.51 164.375 282C166.363 289.951 169.281 297.698 173 305L175 305C178.451 292.72 179.055 278.361 175.572 266C173.205 257.602 167.454 251.139 164.547 243C161.628 234.826 162 226.532 162 218C165.175 221.347 165.725 225.719 167.215 230C170.025 238.079 172.729 245.544 177 253C179.651 249.438 179.986 245.324 180.575 241C182.129 229.587 180.842 217.436 175.674 207.039C173.175 202.012 168.756 198.272 166.612 193C163.072 184.296 162.026 172.334 162 163C173.493 173.468 175.011 192.651 188 202C191.025 190.309 193.221 177.108 187.095 166C184.548 161.382 180.74 157.667 177 154.015C172.815 149.927 168.73 146.48 163 145L164 139C173.942 140.558 183.795 147.611 190.271 155C192.434 157.468 195.425 159.97 196.486 163.17C198.674 169.764 196.55 178.277 196.09 185C195.757 189.85 196.724 195.08 195.541 199.83C193.161 209.381 186.931 217.093 185.325 227C184.238 233.704 185.714 240.329 186 247C191.919 243.123 194.687 232.467 197 226C198.806 232.109 199.05 241.129 196.277 247C193.903 252.027 189.716 255.916 187.323 261C182.341 271.586 180.526 281.567 184 293C192.247 288.969 197.814 274.762 199 266C200.7 271.751 201.075 280.438 198.431 285.985C194.698 293.819 187.39 300.224 183.209 308C177.803 318.054 177.542 331.638 182 342L184 342C189.21 333.345 196.399 322.051 198 312C202.027 325.626 193.146 336.189 191.3 349C189.506 361.454 194.271 370.663 198 382C204.089 380.096 207.392 370.903 208.539 364.999C211.895 347.732 204 332.986 204 316C208.822 323.641 211.882 332.222 216.551 340C218.723 343.618 220.231 346.932 224 349C225.356 338.273 226.223 327.134 221.688 317C217.863 308.456 210.514 301.782 207.388 293C204.686 285.408 204.631 275.994 204 268C210.442 278.469 211.792 294.8 224 301C224 290.122 224.729 280.083 219.96 270C216.19 262.029 209.05 256.341 205.775 248C204.011 243.505 204.003 238.749 204 234C209.627 243.413 214.815 252.53 224 259C222.801 247.836 223.461 236.315 217.598 226.17C213.686 219.4 205.266 214.221 202.603 207C201.285 203.423 202 198.751 202 195C202 187.565 201.932 180.375 201 173C208.332 181.043 211.27 193.105 216.092 202.715C231.373 233.168 233.791 268.616 236.09 302C237.477 322.149 239.669 342.809 237.285 363C235.06 381.847 236.527 408.391 219.985 421.606C209.624 429.883 195.324 428 183 428L102 428L102 450L406 450C406 445.003 406.09 439.997 405.995 435.001C405.958 433.019 406.136 430.406 404.397 429.028C402.311 427.376 398.469 428.001 396 428L377 428L343 428C327.981 428 311.887 427.69 301.34 414.985C297.975 410.931 295.148 404.962 293.464 399.961C288.982 386.654 287.719 371.821 285.576 358C282.727 339.631 279.198 321.461 276.711 303C273.334 277.93 268.572 253.247 266.17 228C263.024 194.944 263.431 162.06 265.039 129C266.018 108.85 271.416 83.8931 283.838 67.5756C293.231 55.2366 306.851 50.5489 318.815 63.0934C322.806 67.2784 327.975 75.2986 326.795 81.4244C325.589 87.683 320.506 92.6815 318.896 99C316.079 110.056 316.93 120.368 321 131C329.849 121.55 332.621 109.018 336 97C339.291 105.764 342.242 116.552 337.853 125.576C334.063 133.367 326.655 138.893 323.04 147C317.605 159.191 317.603 171.133 320 184C323.474 181.893 325.56 178.369 327.794 175C333.086 167.02 338.717 156.744 339 147L341 147C341 154.921 342.434 164.453 339.671 172C336.484 180.706 329.325 187.066 324.944 195.09C318.093 207.64 317.468 222.347 321 236C326.795 229.81 330.926 220.797 334.139 213C335.967 208.563 336.793 203.638 340 200C340 206.356 341.419 214.683 339.236 220.715C336.425 228.482 330.746 234.779 326.985 242C320.988 253.511 316.88 274.132 324 286C328.23 279.765 331.722 272.997 334.547 266C336.231 261.83 336.99 257.414 340 254C340 260.568 341.246 268.614 339.161 274.91C336.387 283.288 330.174 290.192 326.27 298C320.212 310.117 319.223 324.248 324 337L326 337C332.771 328.023 337.274 315.852 340 305C344.235 319.327 334.3 333.121 332.3 347C330.343 360.579 336.006 371.097 341 383L343 383C349.64 371.58 352.66 358.121 350.406 345.015C349.293 338.541 346.239 332.574 345.3 326C344.37 319.493 345 312.564 345 306C348.78 314.784 350.853 330.312 360 335C363.008 326.579 363.527 314.506 360.336 306C356.774 296.503 350.088 288.346 346.562 279C343.512 270.912 344.829 263.294 345 255C348.3 262.308 351.26 269.758 354.703 277C356.711 281.225 358.33 285.462 363 287C366.281 270.081 364.025 257.138 355.688 242C352.747 236.66 347.605 231.828 345.8 225.985C343.307 217.913 345 207.393 345 199C351.246 211.425 355.527 224.074 363 236C366.035 232.015 365.977 225.908 365.999 221C366.035 212.938 364.935 204.496 361.334 197.17C357.386 189.138 350.551 182.208 347.409 173.83C344.269 165.458 346.117 154.838 345 146C348.922 153.466 351.697 161.531 355.707 169C357.823 172.942 359.592 176.569 364 178C364.871 166.967 366.418 155.648 361.91 145.09C358.285 136.599 350.119 129.583 347.498 120.83C345.644 114.638 346.772 107.375 345.486 101C341.97 83.5747 334.213 69.2838 324 55C331.377 57.6845 342.068 62.6928 345.821 70.0146C349.011 76.2384 346.332 85.2274 347.3 92C348.866 102.958 354.633 114.865 359 125L361 125C368.339 109.295 364.392 93.4456 356 79C361.639 83.6603 364.854 90.6064 368.258 96.9606C370.057 100.32 372.009 103.034 371.938 107.004C371.819 113.712 368.564 120.235 368.09 127C367.42 136.558 368.804 145.586 370 155C377.284 152.648 379.132 140.718 380 134C382.339 141.913 381.843 153.351 378.651 161C376.215 166.839 372.304 171.981 370.242 178C366.407 189.194 367.666 202.825 371 214L373 214C377.784 204.907 380.925 195.768 384 186C386.03 192.868 385 200.869 385 208C385 211.462 385.578 215.586 384.437 218.91C381.44 227.642 373.722 234.948 370.785 244C367.646 253.677 369.919 263.174 370 273C377.635 268.672 383.901 253.391 385 245C387.098 252.098 386.92 262.201 383.812 269C381.505 274.046 377.567 278.214 374.782 282.996C369.176 292.62 366.5 304.336 371 315C380.375 310.129 380.883 295.726 387 288C386.083 292.94 386.449 298.191 384.946 302.985C380.657 316.662 374.323 326.908 376.289 342C377.095 348.185 378.34 357.916 385 360C389.074 351.434 392.241 342.568 392.91 333C393.348 326.759 391.783 321.124 391.171 315C390.578 309.077 391 302.949 391 297L393 297C393.501 306.659 399.348 317.097 403 326L405 326C409.577 315.223 409.705 299.789 404.485 289.17C401.358 282.807 395.656 277.616 393.144 271C390.165 263.151 392 252.294 392 244L394 244C394.368 252.051 398.536 266.996 406 271C408.393 261.062 409.456 249.052 405.699 239.285C402.347 230.573 395.67 223.526 392.343 215C389.031 206.511 389.712 195.024 389 186L393.314 197.715L402 216L404 216C409.783 202.296 405.761 183.453 398.662 171C395.874 166.109 391.494 162.169 389.214 157C385.756 149.162 386.001 138.446 386 130C389.89 136.664 393.068 147.095 400 151C400.144 147.642 400.814 144.355 400.961 141C401.658 125.072 397.203 96.0644 375 100C373.066 89.6185 369.817 80.6395 363.39 72C346.11 48.7692 309.195 34.9424 283 50.213C262.209 62.3328 252.799 89.2344 251 112L249 112C248.128 98.2867 242.104 83.9779 235.781 72C229.124 59.3902 221.762 47.78 211 38.1736C182.409 12.6528 141.01 4.9234 106 21.5146C99.9242 24.394 94.1872 28.5596 88 31.0779C82.111 33.4749 75.7487 33.1811 70 36.4676C56.4637 44.2062 47.0428 60.4845 47 76z"/>
<path style="fill:#f1f2f3; stroke:none;" d="M87 69L89 69C89.9891 61.6605 92.4433 53.573 96.4398 47.2855C100.247 41.2962 105.611 36.2012 109 30C91.2836 33.207 85.0547 53.6079 87 69z"/>
<path style="fill:#37c9d1; stroke:none;" d="M154.424 30.787C140.108 34.1181 133.191 48.6903 128.66 61C127.738 63.506 123.169 77.5917 129.148 76.8241C132.917 76.3402 136.236 71.7392 139 69.4637C147.848 62.1805 158.069 56.1162 163.405 45.5363C166.202 39.9906 161.879 29.0522 154.424 30.787z"/>
<path style="fill:#f1f2f3; stroke:none;" d="M194 136C179.846 125.508 170.793 111.889 166 95C162.941 102.091 164.413 110.477 163.91 118C163.73 120.702 162.579 124.098 164.194 126.566C166.025 129.365 170.174 128.917 173 129.85C177.78 131.427 182.919 134.381 187 137.301C201.257 147.5 214.258 162.398 222.245 178C225.205 183.784 228.204 189.473 229 196L231 196C231 174.368 231.896 152.531 229.83 131C229.115 123.541 226.915 116.329 225.449 109C223.551 99.5127 221.47 89.2794 217.445 80.4244C213.478 71.6954 208.869 61.0749 200 56.3032C185.9 48.7174 170.602 64.5614 168.858 77.9962C168.264 82.5751 171.855 85.0771 175.004 87.7538C179.422 91.5101 183.426 95.3994 186.981 100C195.416 110.914 195.655 122.903 194 136z"/>
<path style="fill:#37c9d1; stroke:none;" d="M179 63C179.707 79.2221 190.175 91.4088 197.688 105C200.886 110.787 203.127 118.436 209 122C211.765 100.121 207.12 65.8802 179 63M293 63C288.721 72.1678 283.293 81.925 281.465 92C279.856 100.861 281.405 110.141 281.907 119C282.135 123.036 281.113 126.975 281.015 131C280.886 136.265 280.662 141.756 281.17 147C281.549 150.915 283.109 155.106 281.917 159C280.731 162.872 277.978 166.308 276.313 170C272.983 177.387 271.001 184.935 271 193C271 197.833 270.269 202.45 274 206C279.286 199.067 283.793 189.708 285 181C287.958 187.146 288.435 198.378 286.15 204.91C284.645 209.212 281.3 212.81 279.439 217C273.806 229.687 270.337 248.291 278 261C283.906 252.208 287.955 239.497 289 229C291.15 233.029 290.784 236.548 291.09 241C292.027 254.681 287.918 266.536 286.286 280C284.802 292.242 289.737 305.757 296 316L298 316C310.397 292.378 297.066 271.071 297 247C301.345 255.159 304.455 268.312 313 273C314.599 260.348 315.414 247.388 308.647 236C305.258 230.296 299.269 226.21 296.699 220C293.695 212.742 295.179 204.372 293 197C301.083 203.929 301.931 216.621 312 222C312.561 208.934 313.319 196.959 306.625 185.039C302.396 177.509 294.45 171.929 291.304 163.826C287.972 155.244 289.148 144.087 288 135C296.513 146.076 300.942 160.997 312 170C314.968 157.533 313.009 141.1 304.671 131C300.389 125.813 292.775 122.142 289.995 115.961C286.048 107.185 288.975 97.1434 289 88C297.313 96.5593 298.879 111.181 308 119C310.44 111.665 311.998 104.82 310.532 97C308.232 84.7242 299.844 74.7931 296 63L293 63z"/>
</svg>
