<?xml version="1.0" standalone="yes"?>
<svg xmlns="http://www.w3.org/2000/svg" width="1254" height="1254">
<path style="fill:#FFD700; stroke:none;" d="M0 0L0 1254L1254 1254L1254 0L0 0z"/>
<path style="fill:#eac56a; stroke:none;" d="M634 195C628.815 209.461 606.278 199.89 595 201.425C581.892 203.209 570.462 207.8 558 211.784C551.031 214.012 543.791 214.752 537 217.616C525.087 222.638 513.679 234.491 510 247C519.186 242.167 529.607 238.195 538 232.073C545.525 226.583 550.722 218.73 560 216C539.059 236.941 527.13 263.231 525.089 293C524.05 308.158 526.354 322.955 527 338C529.359 332.746 529.881 325.742 530 320L532 320C532.023 328.477 533.453 336.545 537.677 344C540.655 349.256 546.583 354.789 547.292 361C548.131 368.341 544.762 377.702 543.589 385C541.924 395.368 542 405.527 542 416C529.371 396.997 515.981 378.619 502.749 360C494.987 349.077 488.711 337.584 478.961 328.089C456.831 306.54 423.279 292.191 392 295.17C383.557 295.974 374.907 297.259 367 300.453C359.717 303.394 353.155 307.856 346 311.01C343.111 312.284 339.867 312.268 337.039 313.698C334.034 315.219 331.824 317.898 328.961 319.652C323.551 322.967 317.961 325.379 313.001 329.465C304.009 336.871 298.672 347.147 295 358C303.148 352.972 312.084 347.615 318.996 340.96C325.365 334.827 329.903 327.411 337 322C333.022 329.145 327.942 335.674 324.27 343C315.098 361.3 311 380.666 311 401L314 401C315.267 390.979 317.045 380.745 319.745 371C321.528 364.567 324.463 358.487 326 352C327.523 359.027 325.231 366.743 326.301 374C327.617 382.929 333.081 389.769 338 397C339.242 389.045 339.25 378.81 336.957 371C335.196 365.003 331.07 359.272 330.418 353C329.933 348.334 331.975 343.484 333 339C330.794 340.532 328.945 342.138 327 344C327.918 338.932 330.506 335.686 334 332L334 335C343.283 328.443 349.343 318.388 359 312C358.402 310.805 358.534 311.023 357 310C366.075 306.222 374.278 302.885 384 301C379.068 304.522 373.58 307.153 369 311.184C353.827 324.538 351.586 339.897 354 359C356.305 356.331 356.846 343.092 361 346C366.978 335.485 364.603 320.047 373.264 311.329C389.033 295.455 420.834 304.192 438 312.753C461.078 324.262 475.789 341.268 490.424 362C500.441 376.189 509.925 390.455 517.752 406C522.907 416.238 528.141 426.425 532.576 437C535.438 443.827 537.1 451.111 543 456L543 452C546.743 457.614 548.431 464.833 551 471C552.884 475.522 556.116 479.478 558 484C559.28 487.072 561.158 490.106 560 493L559 492C566.102 517.965 581.635 541.236 589 567C574.174 541.594 565.836 512.418 551 487C548.089 497.645 551.042 506.637 553.849 517C556.932 528.386 560.144 539.739 563.659 551C573.328 581.979 586.057 611.996 595.565 643C600.413 658.811 603.664 674.829 607 691C611.312 684.689 607.567 674.183 607 667C608.186 668.036 608.604 668.339 610 669L609 662C612.246 667.228 613.638 673.27 615.808 679C623.454 699.19 627.008 719.472 627 741C626.996 750.71 626.801 762.991 623 772C621.498 767.494 622.192 762.768 621 758C618.468 747.872 614.988 737.572 611 728C608.164 721.194 603.167 715.25 599 709C579.57 679.855 550.529 658.765 521 644L481 624C476.666 621.833 471.825 619.06 468 616L469 615C463.291 615.204 466.295 607.185 462.667 604.5C459.963 602.499 455.909 602.262 453 600C447.746 604.794 442.577 599.393 438 595.789C426.727 586.914 416.448 576.719 406.95 566C390.363 547.282 378.309 525.281 367.248 503C360.405 489.216 354.629 474.79 345.907 462C341.214 455.119 334.118 448.924 327 444.63C323.659 442.615 318.131 441.575 315.643 438.501C313.888 436.333 314.853 433.525 314.738 431C314.548 426.864 313.368 421.53 310 419C309.722 425.464 308.12 431.64 310 438L298 438C301.12 432.709 305.172 427.03 306.624 421C308.775 412.064 307.143 402.931 309 394C302.092 400.693 296.675 411.457 295.3 421C294.636 425.606 296.675 432.567 294.687 436.722C293.269 439.684 288.692 440.459 286 441.81C280.623 444.508 275.567 448.156 272 453C280.356 448.366 289.158 442.958 299 442.224C321.629 440.534 338.907 464.719 346 483C336.79 477.316 328.308 471.526 318 467.864C293.593 459.195 265.014 461.685 243 475.425C232.981 481.678 226.403 490.913 218 498.961C213.109 503.645 207.785 507.729 203.465 513C194.311 524.166 189.787 537.87 188 552C196.956 542.763 206.915 533.125 213.547 522C218.899 513.023 220.838 502.871 228 495L226 502C236.724 491.69 244.333 477.723 260 474C247.077 480.927 236.213 494.679 235.09 510C234.598 516.715 236.525 522.566 238 529L240 526C240.986 527.479 241 527.203 241 529C249.478 517.61 240.558 502.914 245.905 491C256.007 468.492 286.815 468.758 307 474.428C314.052 476.409 321.658 481.443 329 481C327.723 482.915 327.723 482.085 329 484C335.275 484.94 339.491 490.883 344 495.017C346.833 497.614 350.336 499.48 352.996 502.218C359.599 509.013 365.388 519.931 368 529L366 526C365.489 532.201 371.037 539.569 373.753 545C382.418 562.327 393.295 579.205 407.039 592.981C412.775 598.73 423.47 599.629 426 608L423 607C424.606 608.914 425.783 609.837 428 611C418.29 612.616 405.803 607.832 396 606.428C373.028 603.139 343.195 609.749 334 634C338.816 630.12 342.708 625.485 348 622.09C358.45 615.388 369.147 614.202 381 612C373.951 617.034 366.957 620.957 361.529 628C357.291 633.501 355.107 640.25 351.251 646C342.558 658.959 334.337 668.657 334 685L339 679L337 683C350.205 673.252 346.494 655.785 356 644L355 658C356.015 656.861 356.309 656.388 357 655C357.736 661.692 355.704 668.36 356.184 675C357.118 687.922 363.593 698.136 370 709C371.436 699.797 370.783 686.907 367.907 678C364.548 667.595 358.604 659.49 360.301 648C361.105 642.558 363.709 637.405 366.927 633C390.699 600.466 435.256 624.722 462 639.231C468.884 642.965 475.511 644.869 483 647L482 645C484.387 645.539 488.081 647.005 488 644C491.342 645.39 494.516 646.996 498 648C496.703 649.594 496.465 650.018 496 652C497.195 650.777 497.316 650.58 498 649C511.927 654.799 523.515 664.621 537 671C535.466 672.023 535.598 671.805 535 673L539 675C538.528 673.584 538.186 673.186 537 672C567.779 689.153 594.253 725.775 599 761C600.607 757.135 599.321 753.07 599 749C603.165 748.718 607.095 746.556 611 745C613.059 753.981 615.937 762.769 616.83 772C617.505 778.971 615.999 786.232 618 793C619.697 791.693 620.973 790.595 623 790C626.293 775.637 630.308 761.9 630.961 747C632.128 720.335 623.916 695.572 618 670L620 673C623.009 670.704 625.285 669.691 629 669C634.662 685.735 641.133 702.242 642.83 720C644.063 732.898 642.444 745.398 640 758C642.651 754.715 643.633 751.174 644 747C644.89 748.745 645.453 750.125 646 752C650.252 745.882 650.031 735.256 649.999 728C649.927 711.664 645.757 695.296 640.308 680C637.682 672.629 634.065 665.551 632 658L635 664C635.95 661.127 636.445 657.997 637 655C646.353 671.025 654.515 691.543 657 710C657.874 707.948 657.953 706.253 658 704C663.191 708.366 664.216 713.085 659 718C661.195 719.574 663.397 720.241 666 721C665.719 724.506 666.095 727.59 665 731C666.915 732.277 666.085 732.277 668 731C667.455 732.635 667.635 732.455 666 733L667 736L665 735C665.029 738.588 663.95 741.571 663 745C665.206 743.468 667.055 741.862 669 740L670 741C664.951 749.992 658.055 757.148 651.439 765C642.784 775.272 634.439 786.006 626.721 797C619.44 807.37 614.195 820.286 602 825C604.965 817.878 609.829 811.38 612 804C607.544 804.807 604.12 807.293 600 809L600 801C598.257 802.743 596.316 808.105 594 811L593 810L593 815C590.468 806.434 592 795.909 592 787C590.211 791.264 591.097 796.422 590.985 801C590.87 805.716 589.871 810.376 589 815C584.961 815.482 582 818.325 578 819L578 823C575.886 815.848 577 807.427 577 800C576.999 791.923 575.821 784.025 575.075 776C574.69 771.863 571.906 764.089 574.067 760.345C576.096 756.829 580.935 757.843 584 756C586.305 765.965 589.786 775.644 590 786C592.402 780.277 590.405 771.887 589 766L592 767C587.039 728.58 557.73 695.51 526 675.808C518.135 670.924 509.943 664.631 501 662C515.418 675.923 533.648 684.832 544 703C538.761 697.557 533.585 691.807 527 688C532.229 697.046 540.541 704.194 546.304 713C557.533 730.158 564.545 748.97 568.551 769C572.533 788.912 571.746 810.004 569 830C562.34 878.491 541.479 925.68 501 955.079C475.626 973.508 446.471 978.179 417 986.151C400.911 990.504 385.117 995.878 369 1000.12C338.569 1008.12 307.217 1014.03 276 1018C280.188 1019.5 285.622 1017.85 290 1017.28C299.999 1015.98 310.005 1014.77 320 1013.43C326.852 1012.5 334.029 1013.42 341 1012.91C364.087 1011.22 388.492 1008.54 411 1003C407.276 1001.55 402.973 1002.92 399 1003C412.662 997.846 430.428 994.897 445 993.819C449.344 993.497 453.658 994.273 458 993.711C467.784 992.443 477.807 989.301 487 985.808C493.859 983.202 501.309 980.76 507 976C505.521 975.014 505.797 975 504 975C527.842 960.355 548.099 942.069 561.255 917C564.823 910.202 568.844 903.718 570 896C565.186 901.373 561.465 910.226 559 917C555.991 914.736 552.521 914.235 549 913C553.796 902.729 560.352 893.174 563 882C566.873 883.291 571.474 879.526 574 877L575 878C574.002 874.967 573.942 873.483 576 871L575 876C580.279 869.605 582.349 860.573 585.454 853C587.912 847.003 591.981 841.731 595 836C600.546 842.278 597.124 846.076 594.15 853C589.566 863.672 584.558 874.133 580.424 885C567.623 918.652 556.46 954.967 526 977.079C510.303 988.475 490.885 994.1 473 1001C478.921 1002.82 485.933 998.783 492 998.333C495.479 998.074 498.581 999.615 502 999.892C510.056 1000.55 519.085 998.637 527 997.25C530.131 996.701 534.772 996.564 537.142 994.146C539.571 991.668 538.84 987.924 538 985C542.349 983.444 547.279 979.838 552 979.832C555.398 979.827 558.43 982.55 561 984.475C567.68 989.479 574.041 995.164 580 1001L574 1000C578.557 1004.27 585.026 1007.28 591 1009L590 1011C598.987 1014.69 608.305 1018.69 618 1020C608.57 1012.18 596.381 1007.81 586 1001.74C579.759 998.085 574.4 992.907 569 988.155C565.569 985.136 556.944 980.409 555.816 975.816C555.245 973.487 556.792 971.004 557.756 969C559.802 964.747 561.753 960.56 563 956L570 957C571.013 944.168 574.985 931.751 576 919C578.466 927.343 576.067 936.441 577.3 945C580.099 964.421 593.117 981.38 610 991C605.768 984.993 600.152 980.195 596.079 974C586.655 959.666 583 942.977 583 926C583.562 927.801 583.824 929.122 584 931L596 931L596 923C599.469 933.97 600.448 945.317 605.312 956C608.016 961.937 612.147 966.802 616 972C615.888 968.583 613.524 966.013 611.981 963C609.879 958.894 608.387 954.398 607.026 950C603.15 937.479 603 924.973 603 912C603.562 913.801 603.824 915.122 604 917C607.333 913.361 610.52 913.304 615 912L616 918C618.414 912.245 616.497 903.373 617 897L622 918C623.683 913.643 621.146 908.383 620 904L623 905C626.696 902.398 630.707 899.432 635 898L635 894C636.977 900.508 637.297 907.456 639.347 914C646.304 936.208 660.487 960.286 682 971C682.421 985.917 701.698 982.734 712 986L711 988C716.105 990.196 719.745 990.827 725 989C723.752 988.315 723.452 988.251 722 988C729.267 986.921 736.699 991.363 744 992C742.466 993.023 742.598 992.805 742 994L746 995C745.35 993.7 745.853 994 744 994C756.327 992.016 771.077 1001.24 783 1004C777.16 999.162 768.922 996.965 762 993.999C748.359 988.154 734.692 982.687 721 976.988C699.671 968.112 679.272 956.058 664.465 938C658.958 931.285 655.021 923.643 651 916C644.774 919.891 643.48 911.585 642.333 907C640.249 898.661 638.678 888.656 640 880C640.521 876.587 642.903 874.671 643 871C643.644 873.106 643.906 874.795 644 877C647.088 869.842 647.085 860.639 649.151 853C652.091 842.131 657.422 831.854 660 821C661.088 826.088 659.065 831.018 657.884 836C656.529 841.719 656.001 847.138 656 853C660.336 844.847 660.47 833.802 663.814 825C671.368 805.119 682.555 786.728 694.139 769C701.312 758.022 709.125 745.544 720 738C717.232 743.824 712.898 748.592 709.435 754C700.926 767.289 692.814 780.577 686.312 795C671.902 826.965 670.144 865.015 681.864 898C685.324 907.737 691.024 916.063 696 925L694 924C693.251 927.229 690.097 928.681 687.06 926.63C683.46 924.198 681.09 919.423 678.546 916C669.563 903.911 663.021 889.193 662 874C659.656 879.746 663.202 887.076 664 893L663 891C660.965 899.909 668.701 911.96 672 920L670 919C672.02 925.092 676.497 930.142 680.59 935C692.034 948.582 707.499 961.128 724 968C723.39 969.595 722.995 970.674 722 972C736.951 980.727 756.477 988.638 774 989C773.35 987.7 773.853 988 772 988C779.788 986.704 789.281 990.456 797 992C814.935 995.587 833.785 1000.55 852 1002C846.952 1003.09 841.224 1002 836 1002C845.782 1007.2 861.078 1006.71 872 1008.27C889.035 1010.7 906.801 1013.28 924 1013.74C927.366 1013.83 930.61 1012.89 934 1013.17C945.002 1014.09 955.949 1016.91 967 1017C961.292 1014.26 954.182 1014.36 948 1013.2C932.657 1010.3 917.26 1007.95 902 1004.58C879.74 999.659 858.103 992.399 836 986.873C817.033 982.132 797.688 978.788 779 972.975C750.151 964 723.686 948.58 704.464 925C697.808 916.835 692.678 907.55 688.309 898C683.433 887.344 680.997 875.55 679.425 864C677.538 850.139 679.335 835.582 682.211 822C686.618 801.185 696.344 780.718 708.003 763C732.275 726.115 764.25 694.437 791.8 660C801.908 647.365 815.012 634.706 822 620C819.944 620.487 818.856 620.952 817 622C819.896 617.35 823.241 612.959 827.039 609.001C832.222 603.601 836.56 602.588 843.001 599.61C855.213 593.963 869.612 585.966 880.895 598.018C882.572 599.809 884.023 601.754 885.03 604C888.944 612.726 883.929 620.515 881.899 629C880.573 634.542 881 640.343 881 646C882.416 645.528 882.814 645.186 884 644C883.188 648.312 882.346 652.625 882 657C896.577 638.251 895.773 618.208 885 598C888.605 600.541 891.459 603.395 894 607C894.965 600.345 886.317 594.977 882 591C888.121 593.896 895.366 598.1 898.995 604.004C903.468 611.282 903.541 621.165 907.323 629C910.996 636.607 917.279 643.003 922 650C922.959 646.884 922.183 643.277 921.914 640C920.778 626.124 914.506 615.671 905.001 605.911C899.611 600.375 896.158 593.67 889.999 588.819C875.137 577.114 856.555 581.042 841 589C842.896 586.714 844.644 584.795 847 583L846 585C854.065 578.339 859.367 567.971 866.134 560C883.667 539.351 914.508 512.874 941.996 533.159C945.699 535.891 948.837 539.172 951.401 543C954.75 547.999 956.703 554.042 957.37 560C958.275 568.081 952.906 574.912 949.873 582C946.202 590.577 944.862 599.791 946 609C947.3 608.35 947 608.853 947 607C947.965 610.948 946.664 614.076 946 618C956.411 607.913 963.318 591.502 962.985 577C962.823 569.926 960.557 563.051 960 556C962.269 559.189 963.913 562.235 965 566C966.497 562.398 965.478 558.78 965 555C973.175 563.762 974.22 576.428 979.323 587C983.576 595.81 991.156 602.329 997 610C996.766 606.227 993.683 603.51 991 601L993 600C993 596.268 991.277 595.403 994 592L995 593C992.591 576.691 981.169 567.914 971.329 556C967.012 550.774 964.281 544.431 960.239 539C955.947 533.233 950.375 528.696 945 524L969 530C948.636 507.718 913.29 513.9 889 524C895.445 517.419 900.38 509.424 907.015 503.089C921.124 489.617 939.946 479.943 959 476L959 471C960.396 470.339 960.814 470.036 962 469C962.895 477.754 965.307 486.287 966 495C972.942 486.408 974.681 471.627 972.674 461C971.739 456.044 969.153 452.174 969 447C965.545 452.648 963.879 460.47 963 467C949.688 467.573 937.105 472.967 925 478C931.753 467.991 939.224 458.257 949 451L949 465C962.413 451.995 960.914 435.62 964 419C965.161 422.891 964.578 427.395 968 430C969.436 411.805 969.625 393.076 966.565 375C965.639 369.532 964.552 359.45 960 356C961.485 364.12 961.219 376.439 957.597 384C954.589 390.279 949.749 395.479 947.093 402C943.833 410.006 943.177 419.427 943 428C957.808 414.476 961 399.058 961 380C963.872 387.669 963.686 395.934 964.039 404C964.199 407.637 965.467 411.402 964.448 415C962.427 422.132 957.167 428.485 953.784 435C951.825 438.773 951.165 444.415 948.411 447.582C945.246 451.223 938.935 452.95 935.001 455.896C926.196 462.489 918.084 470.882 910.884 479.17C900.107 491.575 889.984 504.534 879.286 517C874.945 522.058 871.205 527.8 866 532C869.402 517.874 872.208 502.907 866.546 489C863.33 481.1 857.301 474.886 854 467C853.172 470.449 853.994 474.402 854 478C854.014 486.58 853.726 494.853 856.927 503C860.765 512.77 867.493 521.828 864.57 533C863.094 538.643 857.753 543.558 854.2 548C846.455 557.681 838.442 567.182 830.881 577C801.935 614.586 772.936 652.013 737 683.282C723.269 695.229 709.686 711.881 690 711C687.516 713.54 685.524 713.888 682 714C680.896 716.357 680.044 717.376 678 719C677.344 703.726 671.41 689.024 665.8 675C654.752 647.38 640.44 621.13 626.309 595C590.473 528.739 554.772 456.218 560.089 379C561.96 351.833 567.916 323.599 585.468 302C592.912 292.839 602.741 284.997 614 281.101C635.92 273.515 659.603 284.417 673 302C673.587 295.752 666.215 289.015 661.999 285.09C648.246 272.288 626.019 266.928 608 273.1C574.971 284.414 556.641 321.911 550 354C547.696 346.419 547.661 338.441 544.536 331C541.528 323.84 536.071 318.116 533 311C531.908 313.528 531.651 316.302 531 319C528.253 309.708 529.991 298.382 531.565 289C532.788 281.704 532.975 274.131 535.039 267C537.494 258.52 542.021 251.187 545 243C545.69 253.317 541.377 262.305 544.043 273C545.856 280.27 551.378 285.22 554 292C555.279 288.946 554.578 286.241 554.684 283C554.896 276.486 555.911 271.552 553.958 265C550.828 254.501 545.921 247.858 551.273 237C557.339 224.695 569.391 215.891 582 211.065C587.685 208.889 598.462 209.029 602 204L598 204C602.618 202.624 607.222 202.889 612 203L610 207L616 207C611.057 210.923 605.788 214.573 601.428 219.17C585.455 236.01 575.996 260.852 575 284C576.875 281.601 579.513 270.595 583 272C583.479 270.503 583.4 270.65 583 269C587.53 265.354 588.313 256.266 590.782 251C596.402 239.01 603.303 228.328 614 220.239C648.904 193.845 691.75 234.174 695.71 270C696.522 277.346 692.558 283.4 690.066 290C687.863 295.831 687.02 302.842 688 309C701.265 299.207 698.039 285.16 698 271C702.619 283.244 704.68 295.915 698.622 308C694.888 315.448 688.648 321.162 685.454 329C682.135 337.144 682.126 345.427 681 354C698.504 341.41 703 320.187 703 300C705.735 308.999 705 318.695 705 328C705 342.687 704.846 357.383 705.259 372C705.524 381.367 704.976 391.732 706.3 401C707.471 409.195 710.394 416.585 710 425C718.31 415.765 720.522 397.575 717.359 386C715.655 379.767 711.967 374.452 711 368C709.095 370.74 708.635 373.737 708 377C704.376 364.712 710.406 348.694 710.961 336C711.198 330.58 710.146 325.379 710.015 320C709.302 290.896 706.136 262.569 690.985 237C682.29 222.325 667.632 207.643 650 205C660.737 199.342 676.041 197.797 688 199.425C693.058 200.114 702.763 203.849 706 199L723 204L717 205C721.897 209.042 728.542 210.891 734 214.204C748.271 222.868 764.578 237.337 766.685 255C767.658 263.157 762.275 271.15 760.666 279C759.019 287.036 760.933 294.954 761 303C771.413 290.444 772.317 277.376 772 262C774.267 266.631 775.313 271.896 776 277L778 277C778 268.732 778.042 260.925 775.304 253C763.708 219.442 729.175 198.539 695 194.286C680.977 192.541 667.961 194.231 654 194.545C650.297 194.628 646.685 193.441 643 193.414C639.962 193.392 637.01 194.634 634 195z"/>
<path style="fill:#FFD700; stroke:none;" d="M694 197C697.763 199.485 701.619 199.439 706 199C702.23 196.996 698.203 197.012 694 197M703.667 200.333C703.222 200.778 704.278 200.722 704.333 200.667C704.778 200.222 703.722 200.278 703.667 200.333z"/>
<path style="fill:#eac56a; stroke:none;" d="M707 200L708 201L707 200z"/>
<path style="fill:#FFD700; stroke:none;" d="M620 204L616 206C618.14 206.41 618.962 205.969 621 205L620 204M723.667 205.333C723.222 205.778 724.278 205.722 724.333 205.667C724.778 205.222 723.722 205.278 723.667 205.333z"/>
<path style="fill:#eac56a; stroke:none;" d="M683 211C684.458 212.081 685.248 212.436 687 213C685.466 214.023 685.598 213.804 685 215C693.262 225.128 699.546 232.985 711 239.667C714.424 241.664 723.518 244.265 724 248C725.377 243.037 721.349 236.98 718.56 233C709.536 220.123 697.916 214.411 683 211z"/>
<path style="fill:#FFD700; stroke:none;" d="M687 214L688 215L687 214M721 242C721.684 243.58 721.805 243.777 723 245C722.317 243.42 722.195 243.223 721 242z"/>
<path style="fill:#eac56a; stroke:none;" d="M702 247C705.615 253.473 707.224 260.795 711.363 267C717.497 276.196 728.03 283.706 737 290L732 281C733.186 282.186 733.528 282.584 734 284C734.887 279.775 732.331 274.748 730.367 271C724.537 259.877 713.644 251.407 702 247M530 248C524.348 251.728 518.078 254.616 513.015 259.184C503.757 267.537 499.532 278.943 498 291C507.893 281.89 519.199 274.173 525.677 262C527.818 257.976 530.419 252.599 530 248M780 273C780 287.115 776 300.738 776 315C781.307 308.875 780 299.595 780 292C783.523 298.615 787.03 305.706 784 313L786 312C776.086 323.461 764.767 332.433 757.312 346C743.657 370.849 736.158 398.115 718.765 421C711.691 430.307 705.338 439.288 694 443C694 438.415 694.488 433.499 693.471 429C692.414 424.321 690.261 420.92 691 416C685.57 422.216 687.308 431.349 686.961 439C686.647 445.905 683.854 454.15 680.157 459.996C677.002 464.986 671.415 468.612 667 472.425C661.731 476.977 656.895 482.05 652.004 487C637.313 501.867 625.711 519.901 619.721 540C617.717 546.722 615.042 554.923 616.225 562C617.238 568.065 621.919 574.721 625 580C625.465 574.901 623.015 569.364 623 564C626.53 565.021 628.571 565.433 632 564C631.424 566.231 631.094 566.093 629 567C632.136 572.617 631.819 576.893 632.819 583C634.4 592.664 636.748 602.306 638 612L640 612L640 604C640.986 605.479 641 605.203 641 607C643.269 601.541 640.504 594.74 640.209 589C639.892 582.831 641.226 576.124 642 570C644.593 570.084 647.043 570.712 649 569C651.379 577.048 649.904 586.643 650.004 595C650.103 603.367 651.729 611.796 653.261 620C655.165 630.199 658.094 640.274 661.681 650C664.349 657.232 667.866 664.322 669 672C671.094 666.16 667.308 656.92 665.87 651C662.254 636.111 658.673 621.169 656.427 606C653.315 584.975 653.607 563.513 659.721 543C662.547 533.515 667.223 525.071 671 516C669.584 516.472 669.186 516.814 668 518L674 507C648.591 524.828 638.348 553.251 636 583C634.667 578.447 635.921 574.617 635.921 570C635.921 564.794 635.338 560.241 636 555L637 559C641.065 550.559 642.217 540.627 646.32 532C655.181 513.37 671.887 495.96 691 488L690 491C704.341 486.93 716.79 481.349 732 482.039C739.066 482.36 745.214 487.052 752 487C754.067 490.873 757.631 493.52 760.319 497.001C763.907 501.645 766.243 507.227 767.316 513C768.541 519.588 764.3 525.651 763.095 532C761.528 540.254 762.932 547.757 763 556C771.268 546.486 774.778 534.461 772.535 522C771.552 516.535 769.249 511.4 768 506L773 514C774.583 509.538 771.674 504.563 771 500C779.48 509.738 780.389 520.7 785.785 532C789.599 539.988 796.225 546.065 800 554C800.914 551.717 800.812 549.461 801 547C799.804 547.598 800.023 547.466 799 549L796 540C798.061 541.988 798.579 543.157 799 546C802.516 537.618 796.514 525.937 791.895 519C787.871 512.956 781.946 508.544 777.326 503C765.296 488.565 755.129 473.973 735 471C758.049 457.883 783.845 462.798 800 484C800.017 474.743 787.358 465.49 780 461.633C751.671 446.786 722.65 467.448 695 474C713 461.855 727.303 445.66 738.396 427C741.584 421.637 741.667 416.542 743.894 411C747.133 402.942 754.009 395.925 761 391L761 394C768.11 390.057 774.75 385.49 783 384.3C801.51 381.632 823.768 395.188 825.66 415C826.376 422.499 821.016 429.916 819.156 437C816.742 446.194 817.829 454.738 819 464C832.373 448.029 832.995 432.364 829 413C837.844 425.433 843.143 443.066 838.251 458C835.379 466.766 829.476 474.047 826.91 483C823.95 493.326 825 504.361 825 515C829.795 507.913 835.381 500.096 838.301 492C842.41 480.606 842 468.909 842 457C845.628 465.598 845.923 477.697 846 487C849.398 478.906 848.988 467.591 848.17 459C846.062 436.867 840.375 418.289 829 399C835.734 402.523 838.942 409.284 843.666 414.961C849.85 422.393 861.03 430.624 871 431C871.936 432.948 872.393 433.55 874 435C869.626 423.742 862.693 412.582 852 406.349C845.238 402.407 837.468 401.501 831 396.956C819.742 389.045 810.615 378.276 796 377C807.521 370.756 820.571 374.739 832 379C827.334 373.373 819.962 371.224 813 369.665C793.235 365.238 771.736 372.906 756 385C762.949 363.68 772.036 342.462 789 327.104C798.035 318.925 813.708 315.32 823.996 323.394C828.512 326.937 832.617 332.049 832.867 338C833.146 344.683 828.395 358.005 837 361C836.883 363.73 836.501 366.314 836 369C845.822 358.085 841.174 341.886 834 331C842.854 338.685 847.789 349.926 851 361C848.418 363.172 848.138 366.751 847.424 370C846.455 374.418 845.036 379.453 845.274 384C845.487 388.072 847.403 391.961 848 396C858.996 388.497 851.829 372.064 851 362C852.502 365.169 853.763 368.29 856 371C859.903 352.986 845.019 337.648 836 324C843.117 327.692 846.895 334.707 853.001 339.66C857.987 343.704 864.972 345.948 871 348C867.33 339.495 861.416 331.88 853 327.659C848.526 325.415 843.467 324.716 839 322.482C828.902 317.434 820.65 312.501 809 312C813.614 308.715 818.791 306.104 824 303.873C850.774 292.407 896.345 290.552 906.072 326C909.297 337.755 903.469 345.224 900.428 356C898.325 363.453 899 371.332 899 379C910.301 368.643 912 354.387 912 340C914.473 345.822 914.551 351.93 916 358C918.579 351.91 918.032 344.415 917.13 338C914.158 316.856 897.529 295.258 875 293C887.942 289.176 902.762 297.653 915 301C913.2 301.562 911.878 301.824 910 302C913.915 306.24 919.366 308.737 924 312.156C932.685 318.564 941.755 327.611 945.451 338C948.759 347.296 943.502 354.172 941.514 363C939.433 372.241 940.974 380.74 941 390C949.854 381.415 954.126 367.095 952.826 355C952.273 349.851 950.161 345.016 949 340L952 345C954.097 335.581 947.495 326.929 942 320C952.685 325.323 955.891 335.135 961.312 345C966.643 354.702 973.933 363.985 984 369L984 366L987 371C987.96 366.794 985.795 361.896 984.127 358C979.519 347.233 972.239 339.144 964 331.004C953.692 320.819 941.483 313.269 929 306.127C923.614 303.046 918.705 299.391 913 296.862C892.534 287.788 870.059 285.311 848 288.282C838.51 289.561 828.935 291.725 820 295.204C810.933 298.734 803.649 304.12 794 300C793.122 302.017 792.348 303.232 791 305C791 292.647 789.365 282.073 780 273M712 281C714.262 289.527 714.455 299.05 718.373 307C722.948 316.28 731.357 322.469 737 331C737.579 327.034 734.448 323.13 734 319L736 320C735.642 303.212 723.554 291.682 712 281M535 284C531.749 291.706 533.792 300.867 537.88 308C539.758 311.276 542.01 315.339 546 314L551 325C552.372 321.166 550.671 316.831 549.573 313C546.559 302.488 541.195 292.923 535 284z"/>
<path style="fill:#FFD700; stroke:none;" d="M551 284L552 285L551 284z"/>
<path style="fill:#eac56a; stroke:none;" d="M520 286C513.897 295.226 505.829 302.229 502.101 313C499.288 321.13 500.547 329.669 499 338C502.315 335.835 503.873 332.111 506.289 329C512.555 320.929 517.424 313.132 519.571 303C520.809 297.157 519.916 291.721 522 286L520 286M620 295C617.785 300.215 617.313 306.02 614.468 311C610.186 318.493 603.707 323.71 600.464 332C598.013 338.265 598.693 344.655 597 351C604.732 345.309 611.79 336.16 614.896 327C616.529 322.183 616.784 316.935 618 312C620.392 320.092 620 329.592 620 338C620 350.997 619.849 364.004 620.004 377C620.139 388.351 623.685 399.683 622.911 411C622.418 418.205 621.645 425.893 620.405 433C619.751 436.749 618.802 439.81 615 441C613.717 444.331 612.53 447.46 612 451C613.3 450.35 613 450.853 613 449C615.574 456.275 612.49 462.799 611 470C615.28 465.527 618.081 460.129 619 454C620.793 462.277 618.404 471.403 620 480C620.685 478.752 620.749 478.452 621 477C622.684 477.224 623.313 477.218 625 477L624 489C629.715 477.107 625.946 463.302 624.289 451C623.318 443.796 623.941 437.184 624 430C626.412 435.715 626.595 442.064 628.442 448C630.348 454.128 633.777 460.457 637 466C638.721 460.331 634.134 455.273 632.637 450C631.044 444.385 634.141 439.326 633.234 434C632.156 427.672 626.706 423.298 625.595 416.996C624.003 407.964 625 398.148 625 389C625 370.676 625.435 352.344 624.985 334C624.765 324.992 624.003 316.063 624 307C623.998 302.078 624.459 297.898 620 295M894.667 296.333C894.222 296.778 895.278 296.722 895.333 296.667C895.778 296.222 894.722 296.278 894.667 296.333z"/>
<path style="fill:#FFD700; stroke:none;" d="M885 299C887.11 301.181 889.322 302.562 892 304C889.918 301.422 888.087 300.212 885 299M916 302L917 303L916 302M690 304C688.814 305.186 688.472 305.584 688 307C689.548 305.738 689.808 305.806 690 304M893 304L894 305L893 304z"/>
<path style="fill:#eac56a; stroke:none;" d="M625 305C628.979 319.125 633.446 329.157 646 338C643.33 325.101 637.738 310.94 625 305z"/>
<path style="fill:#FFD700; stroke:none;" d="M356 311L357 312L356 311M819 315L820 316L819 315z"/>
<path style="fill:#eac56a; stroke:none;" d="M714 322C714.112 331.035 713.542 340.311 716.545 349C720.111 359.318 727.844 367.084 732 377C733.551 373.305 733.006 368.98 733 365C732.973 348.231 724.946 334.292 714 322M520 329C518.997 334.557 515.509 338.816 513.464 344C509.939 352.939 509.747 364.312 514 373C523.133 361.977 525.683 342.175 520 329M628 330C629.409 347.855 632.337 361.967 648 373L646 369C651.058 367.916 648.16 361.657 647 358C643.652 347.443 635.646 337.749 628 330M370 407C379.669 400.275 389.938 393.789 397.896 385C403.575 378.728 406.539 370.647 413 365C411.14 368.925 409.203 372.823 408 377C413.207 372.133 416.776 365.771 422 361C417.902 370.522 414.889 382.774 418.055 393C420.07 399.509 424.467 405.247 428 411C429.112 405.629 422.92 399.757 429 396C428.914 385.629 421.681 375.084 423.333 365C425.468 351.963 441.339 341.921 454 342.259C461.411 342.457 468.269 345.239 475 348C467.622 331.491 448.352 332.547 434 338.065C421.249 342.967 417.278 355.15 407.907 363.787C403.334 368.001 397.113 369.405 392 372.761C380.527 380.29 371.853 393.303 370 407z"/>
<path style="fill:#FFD700; stroke:none;" d="M360 343L361 344L360 343z"/>
<path style="fill:#eac56a; stroke:none;" d="M615 344C611.818 350.688 606.221 355.646 602.454 362C596.833 371.48 595.001 382.142 595 393C607.284 382.365 622.289 361.369 615 344z"/>
<path style="fill:#FFD700; stroke:none;" d="M599.333 345.667C599.278 345.722 599.222 346.778 599.667 346.333C599.722 346.278 599.778 345.222 599.333 345.667z"/>
<path style="fill:#eac56a; stroke:none;" d="M702 347C698.645 356.041 691.63 363.104 687.876 372C683.635 382.049 684 392.337 684 403C694.992 389.92 704.07 374.618 703.196 357C703.028 353.61 703.315 350.134 702 347z"/>
<path style="fill:#FFD700; stroke:none;" d="M355 348L355 354C355.951 351.715 355.951 350.285 355 348z"/>
<path style="fill:#eac56a; stroke:none;" d="M855 350C856.781 360.685 862.913 370.942 872 377C873.386 377.924 874.447 379.577 876 380C878.195 380.599 877.763 379.237 879 378L880 379C875.652 365.75 867.015 356.844 855 350M920 356C919.701 362.974 918.03 370.025 919.518 377C920.993 383.913 925.061 389.706 928 396C929.441 392.566 929 388.702 929 385C929 374.424 926.996 364.356 920 356M530 357C526.158 371.851 530.694 386.936 536 401L538 401C540.042 395.39 538.445 392.566 538.054 386.985C537.726 382.301 538.346 377.635 537.33 373.001C536.149 367.613 532.63 361.83 530 357M313 358C297.807 368.914 288.41 380.033 286 399C297.902 390.862 315.053 374.218 313 358M627 369C627 381.432 627.676 394.672 633.377 406C636.797 412.794 642.294 418.349 646 425C647.136 422.118 646.651 419.097 646.804 416C647.556 400.809 640.725 390.112 632.598 378C630.605 375.029 629.283 371.755 627 369M451 415C454.584 408.308 455.277 400.587 459.548 394C466.104 383.889 477.85 377.481 490 380.61C494.744 381.831 498.776 384.66 503 387C500.691 382.943 497.946 377.636 493.896 375.089C483.107 368.305 467.768 374.101 460.329 383.004C452.995 391.78 451.092 403.901 451 415M987 372C987.684 373.58 987.805 373.777 989 375C988.309 373.612 988.015 373.139 987 372M971 374C971.89 381.042 971.827 388.313 974.464 395C978.044 404.075 985.224 410.418 991 418C991.15 415.808 990.067 414.277 989.8 412.085C989.464 409.318 990.653 406.855 990.093 403.985C987.762 392.038 979.469 382.298 971 374M649 375L650 376L649 375z"/>
<path style="fill:#FFD700; stroke:none;" d="M495 377L496 378L495 377z"/>
<path style="fill:#eac56a; stroke:none;" d="M857 379C857.401 388.333 859.224 397.842 861 407C864.32 399.589 863.084 384.617 857 379M911 382C906.723 392.286 904 400.746 904 412L911 403C909.114 413.157 911.743 422.155 914 432C922.796 415.817 916.011 400.773 916 384C914.919 385.458 914.564 386.248 914 388C913.356 385.894 913.094 384.205 913 382L911 382M864 383C867.226 394.479 867.587 409.901 882 413C879.562 400.435 874.756 390.577 864 383M319 385C320.961 397.318 315.427 412.854 327 422L326 419C328.871 418.519 327.602 415.413 327 413C330.582 412.232 330.352 409.32 329.583 406C328.332 400.593 324.895 395.942 322.556 391C321.385 388.527 321.368 386.329 319 385M408 386C406.957 388.095 406.397 389.699 406 392C404.977 390.466 405.195 390.598 404 390C400.721 396.533 399.989 403.87 398.75 411C395.046 432.319 396.513 453.462 395.985 475C395.615 490.103 391.03 504.891 392.09 520C392.578 526.976 395.184 533.344 397 540C399.087 535.026 398 528.362 398 523C399.527 525.368 400.86 527.186 403 529C403.592 520.191 404.729 511.803 403 503C402.349 499.687 402.677 495.462 399 495C398.999 485.277 397.08 475.701 397 466L398 468C399.866 463.674 399.704 458.651 400.169 454C401.14 444.29 401.424 434.709 402.09 425C402.647 416.869 405.356 409.094 406 401L408 401C408 411.454 407.584 422.352 412.377 432C416.226 439.747 423.076 445.426 427 453C427.907 449.731 425.992 447.292 425.788 444C425.526 439.772 426.777 436.346 425.764 432C423.147 420.778 415.928 413.219 411.532 403C409.198 397.573 410.222 391.283 408 386M615 386C612.25 394.63 605.427 401.404 602.229 410C598.69 419.514 599.798 428.209 600 438C609.599 426.577 615.994 413.027 616 398C616.002 394.018 616.552 389.698 615 386z"/>
<path style="fill:#FFD700; stroke:none;" d="M761 390L762 391L761 390M915.333 396.667C915.278 396.722 915.222 397.778 915.667 397.333C915.722 397.278 915.778 396.222 915.333 396.667z"/>
<path style="fill:#eac56a; stroke:none;" d="M394 404C388.657 408.348 382.859 412.664 378.468 418.004C369.495 428.914 366.009 443.108 366 457C378.926 442.193 394.938 425.294 394 404M971 407L972 408L971 407M972 409C972.78 418.888 972.273 429.67 976.094 439C978.747 445.477 983.608 450.908 987 457C987.613 453.339 985.262 449.784 984.997 446C984.713 441.955 986.246 438 985.656 434C984.422 425.639 977.007 415.589 972 409z"/>
<path style="fill:#FFD700; stroke:none;" d="M879.333 410.667C879.278 410.722 879.222 411.778 879.667 411.333C879.722 411.278 879.778 410.222 879.333 410.667z"/>
<path style="fill:#eac56a; stroke:none;" d="M871 412C872.852 419.512 874.266 423.53 881 428C880.027 421.761 876.767 414.948 871 412z"/>
<path style="fill:#FFD700; stroke:none;" d="M645 414L645 417C645.696 415.446 645.696 415.554 645 414M914 423L914 428C914.83 425.97 914.83 425.03 914 423z"/>
<path style="fill:#eac56a; stroke:none;" d="M848 429L849 430L848 429M849 431C851.984 439.007 853.081 447.67 857.711 455C863.236 463.75 872.087 469.606 878 478C878.982 474.225 874.821 468.171 874 464C875.455 466.35 876.322 468.322 877 471C878.183 467.105 876.318 462.757 874.985 459C870.458 446.248 860.178 437.9 849 431M439 491C443.101 485.251 444.31 477.253 448.015 471C455.192 458.886 465.135 451.932 477 445C466.858 460.399 460.523 479.273 464 498C466.143 493.077 466.982 487.362 467 482C469.058 488.964 466.456 494.214 465.326 501C464.41 506.497 465 512.44 465 518C466.91 513.451 466.898 506.962 467 502C469.057 506.64 470.349 511.565 472.879 516C475.437 520.484 478.984 524.231 481 529C482.524 525.361 481.576 521.829 481.166 518C479.989 507.005 475.728 499.143 471.951 489C466.541 474.469 471.014 460.607 482.004 450.04C486.512 445.705 491.648 442.597 498 442.093C505.366 441.51 513.637 443.221 521 444C517.956 429.05 492.68 432.415 482 435.428C465.334 440.131 451.297 450.782 444.465 467C441.18 474.797 440.523 482.802 439 491M403 435C405.231 447.02 403.247 459.113 407.029 471C410.119 480.715 417.26 488.132 422 497C423.173 491.413 419.169 483.666 418 478C420.717 479.087 418.914 479.086 421 477L422 478C421.473 465.912 414.576 457.124 408.876 447C406.674 443.089 405.83 438.44 403 435M880 435L880 444C879.014 442.522 879 442.797 879 441C872.913 449.18 877.093 457.23 884 463C886.121 454.089 885.66 442.566 880 435z"/>
<path style="fill:#FFD700; stroke:none;" d="M982 437L983 438L982 437M984 437L985 438L984 437z"/>
<path style="fill:#eac56a; stroke:none;" d="M634 438L635 439L634 438z"/>
<path style="fill:#FFD700; stroke:none;" d="M983.333 439.667C983.278 439.722 983.222 440.778 983.667 440.333C983.722 440.278 983.778 439.222 983.333 439.667z"/>
<path style="fill:#eac56a; stroke:none;" d="M986 440L986 445C986.83 442.97 986.83 442.03 986 440z"/>
<path style="fill:#FFD700; stroke:none;" d="M693 444L694 445L693 444M880 444L880 447C880.696 445.446 880.696 445.554 880 444M692 447L691 449C692.263 448.029 692.392 448.306 692 447M881 448L883 454C883.444 451.417 882.631 450.043 881 448M620 450L620 453C620.696 451.446 620.696 451.554 620 450z"/>
<path style="fill:#eac56a; stroke:none;" d="M611.333 452.667C611.278 452.722 611.222 453.778 611.667 453.333C611.722 453.278 611.778 452.222 611.333 452.667M391 453C387.727 460.858 382.293 467.829 379.774 476C376.1 487.914 377.762 501.943 380 514C388.432 500.667 392.995 484.751 393 469C393.002 463.674 393.213 457.93 391 453M489 508C493.813 507.344 495.622 505.945 496 501L498 501C498 513.854 499.936 527.256 498.907 540C498.33 547.144 494.869 553.772 494.17 561C493.233 570.675 495.87 579.689 498 589C509.129 568.526 502.458 543.696 501.375 522C500.889 512.255 502.577 500.609 504.25 491C506.948 475.498 516.922 458.698 535 463C529.704 451.683 517.23 454.45 509.174 461.519C503.273 466.696 500.481 473.943 497.597 481C493.845 490.182 490.266 498.034 489 508M976 467C976.487 468.943 976.682 471.813 978.013 473.398C980.587 476.463 990.125 476.12 994 477.155C1003.25 479.625 1011.7 484.208 1018.96 490.424C1021.79 492.844 1024.95 495.38 1026 499C1027.48 499.986 1027.2 500 1029 500C1028.92 508.497 1034.95 516.03 1033.7 525C1032.42 534.205 1026.26 541.361 1023.36 550C1019.82 560.498 1020 571.079 1020 582C1027.8 573.055 1035.68 560.89 1037.68 549C1038.99 541.197 1038.01 533.815 1038 526C1041.68 534.558 1045.29 547.665 1043.67 557C1041.69 568.386 1034.7 578.414 1033 590C1039.18 584.129 1043.08 577.277 1045 569C1048.51 580.97 1038.43 590.846 1032.36 600C1025.83 609.844 1022.03 621.176 1022 633L1024 630C1024.57 633.622 1023.98 636.49 1023 640C1034.46 630.752 1043.79 614.82 1045 600L1047 600C1047 609.203 1050.26 621.286 1046.85 630C1044.65 635.612 1039.25 639.222 1035.79 644C1030.49 651.303 1026.84 660.201 1025 669C1026.85 666.554 1027.89 663.863 1029 661C1030.48 661.986 1030.2 662 1032 662C1037.9 653.613 1043.55 647.328 1046 637C1048.85 647.392 1039.86 655.104 1034.7 663C1028.18 672.955 1024.25 684.055 1024 696C1025.27 693.17 1025.61 690.084 1026 687C1031 693.949 1024.12 702.428 1023 710C1039.41 692.862 1046.52 671.329 1047 648C1049.03 654.868 1048 662.869 1048 670C1048 681.745 1048.5 693.312 1049 705C1051.96 699.432 1050.58 693.063 1051.17 687C1052.57 672.556 1053 658.564 1053 644C1053 599.715 1057.57 550.693 1039.14 509C1035.05 499.76 1028.69 493.116 1023 485C1028.24 488.094 1033.41 491.587 1039 494C1038.82 498.655 1042.05 502.689 1043.8 507C1047.82 516.904 1053.16 526.001 1060.43 533.911C1065.84 539.797 1072.11 544.584 1077 551C1076.7 545.856 1072.7 543.727 1074 538C1076.69 542.739 1078.27 547.6 1079 553C1080.6 549.066 1079.19 544.942 1077.97 541C1075.44 532.821 1071.72 525.016 1066.79 518C1062.24 511.522 1056.62 506.469 1051 500.985C1036.21 486.552 1019.64 473.632 999 469.211C991.913 467.693 983.118 465.202 976 467z"/>
<path style="fill:#FFD700; stroke:none;" d="M260 473C262.605 473.729 264.45 472.922 267 472C264.467 471.463 262.488 472.22 260 473M692 476L695 475C693.234 474.599 693.443 474.711 692 476M690 476L691 477L690 476M688 477L689 478L688 477M324 479L325 480L324 479M326 480L327 481L326 480M329 482L330 483L329 482M679 483L680 484L679 483M1022 484L1023 485L1022 484M750 486L751 487L750 486M753 488L754 489L753 488z"/>
<path style="fill:#eac56a; stroke:none;" d="M980 489C979.599 496.73 975.039 503.422 973.619 511C972.052 519.362 973.642 527.65 974 536C980.388 525.898 984.813 511.935 983.282 500C982.755 495.893 982.685 492.281 980 489M265 576C280.796 560.87 286.446 543.143 293 523C293.353 526.469 292.661 529.583 292 533C297.428 529.341 299.267 521.589 304 517C299.831 529.311 298.866 542.916 304.313 555C307.402 561.853 312.364 567.476 316 574C319.31 565.018 315.844 549.528 312.124 541C309.783 535.633 305.929 530.968 305.185 525C303.468 511.21 315.237 498.549 329 498.044C334.299 497.849 338.976 499.657 344 501C332.651 487.228 314.315 488.676 302.043 501.04C295.727 507.404 293.455 515.886 288.363 523C283.602 529.651 277.222 534.925 272.927 542C266.231 553.03 265.898 563.666 265 576z"/>
<path style="fill:#FFD700; stroke:none;" d="M381 492C378.673 496.429 379.793 500.181 380 505C381.54 501.329 381.613 495.928 381 492z"/>
<path style="fill:#eac56a; stroke:none;" d="M548.333 492.667C548.278 492.722 548.222 493.778 548.667 493.333C548.722 493.278 548.778 492.222 548.333 492.667z"/>
<path style="fill:#FFD700; stroke:none;" d="M551 493L552 494L551 493M1039.67 495.333C1039.22 495.778 1040.28 495.722 1040.33 495.667C1040.78 495.222 1039.72 495.278 1039.67 495.333M348 497C348.545 498.635 348.365 498.455 350 499C349.455 497.365 349.635 497.545 348 497z"/>
<path style="fill:#eac56a; stroke:none;" d="M842 499C839.09 511.693 836.34 521.867 838 535C840.047 530.61 840.704 527.827 846 527C846 520.196 845.441 513.731 844.414 507.004C843.956 503.997 843.974 501.347 842 499M406 500C406.534 505.177 408.394 508.48 413 511C412.74 505.408 411.346 502.162 406 500M722 501C720.291 504.546 720.227 508.56 718.348 512C713.703 520.501 706.182 526.851 702.454 536C699.654 542.871 699.333 549.821 698 557C710.849 545.771 718.645 531.197 719 514C723.175 521.822 720.802 533.304 721.015 542C721.479 560.978 723 579.992 723 599C727.759 590.049 725.132 574.839 724.514 565C723.403 547.318 725 528.791 725 511L727 511C727.267 517.231 728.16 524.37 730.999 530C733.338 534.637 737.084 538.109 739 543L733 539C734.598 547.956 741.846 555.366 750 559C749.313 555.67 748.763 551.992 747.063 549C745.229 545.772 742.006 543.457 740.515 540.016C739.283 537.175 740.148 535.429 743 535C739.831 521.659 727.729 514.106 724 501L722 501z"/>
<path style="fill:#FFD700; stroke:none;" d="M826 501L826 505C826.71 503.24 826.71 502.76 826 501M1029 501L1030 502L1029 501M1030 503L1031 504L1030 503z"/>
<path style="fill:#eac56a; stroke:none;" d="M459 504C455.983 514.472 447.936 522.531 444.52 533C441.324 542.797 443.17 552.09 442 562C452.601 549.22 460.298 532.708 459.975 516C459.9 512.077 460.495 507.63 459 504z"/>
<path style="fill:#FFD700; stroke:none;" d="M767 505L768 506L767 505M1031 505L1032 506L1031 505z"/>
<path style="fill:#eac56a; stroke:none;" d="M506 507C506 516.973 506.504 527.653 510.312 537C514.082 546.253 520.434 553.818 526 562C527.169 556.434 522.763 550.811 523 545L525 552C528.031 539.383 519.22 525.724 512.439 516C510.287 512.914 508.68 509.644 506 507M987 507C985.976 515.105 985.24 523.081 987.89 531C989.809 536.732 993.461 541.569 996 547C1002.13 533.342 995.248 517.95 987 507z"/>
<path style="fill:#FFD700; stroke:none;" d="M1032 507C1032.55 508.635 1032.36 508.455 1034 509C1033.45 507.365 1033.64 507.545 1032 507z"/>
<path style="fill:#eac56a; stroke:none;" d="M413 512L414 513L413 512z"/>
<path style="fill:#FFD700; stroke:none;" d="M1038 512C1038.83 515.983 1040 519.449 1042 523C1042.52 518.855 1040.85 514.952 1038 512M844 515L844 519C844.71 517.241 844.71 516.759 844 515z"/>
<path style="fill:#eac56a; stroke:none;" d="M415.333 518.667C415.278 518.722 415.222 519.778 415.667 519.333C415.723 519.277 415.777 518.223 415.333 518.667M223 519C213.858 534.721 213.737 555.298 212.961 573C212.271 588.727 213.363 604.343 212.985 620C212.696 632 211.511 643.926 212.039 656C212.42 664.686 214.346 673.287 214.545 682C214.953 699.866 206 715.337 206 733C208.905 729.494 210.539 725.29 212 721C213.961 725.647 213.999 730.018 214 735C217.885 729.313 217.857 716.912 218 710C221.997 720.445 218.733 731.162 220.439 742C222.251 753.51 228.624 762.489 233 773C234.566 766.146 230.564 757.083 230 750L231 752C231.683 750.494 231.826 749.685 232 748C233.764 753.577 233.999 759.185 234 765C236.211 759.731 235.047 752.515 234.076 747C231.319 731.326 221.589 717.694 218.286 702C214.718 685.045 217.665 667.08 218.305 650C218.547 643.548 218.951 636.355 217.61 630C216.608 625.249 214.238 621.02 214.354 616C214.534 608.25 217.995 600.989 218 593L220 593C220 605.315 220.767 618.782 226.377 630C230.669 638.584 237.892 645.354 242 654C242.757 650.767 240.746 648.562 239.998 645.424C239.27 642.375 239.818 639.085 240 636L241 640C242.941 635.242 240.799 628.739 239.251 624C234.917 610.737 225.661 599.708 220 587C219.315 588.249 219.251 588.548 219 590C214.351 574.273 219.74 554.965 221 539C223.181 546.378 221.75 554.414 223.756 562C226.833 573.632 233.908 581.658 241 591C241.629 588.384 241.11 585.717 241 583C242.635 583.545 242.455 583.365 243 585C247.011 568.291 231.507 553.946 225.93 540C223.198 533.17 225.071 525.648 223 519z"/>
<path style="fill:#FFD700; stroke:none;" d="M399 521L400 522L399 521z"/>
<path style="fill:#eac56a; stroke:none;" d="M416 521C416.297 524.304 417.978 527.723 417.78 531C417.387 537.525 413.599 543.135 414.174 550C414.868 558.304 419.495 565.956 420 574L422 573C421.82 575.647 422.181 577.469 423 580C424.195 579.402 423.977 579.534 425 578L427 582C428.368 575.357 420.173 567.37 418 561C420.864 562.062 422.88 562.8 425 565C426.441 561.566 426.001 557.702 426 554C425.996 543.6 423.667 528.653 416 521M469 525C468.741 531.024 467.448 536.932 468.184 543C469.083 550.403 473.301 557.663 477 564C481.189 552.107 475.73 535.005 469 525M845 528L845 531C845.696 529.446 845.696 529.554 845 528z"/>
<path style="fill:#FFD700; stroke:none;" d="M1044.33 529.667C1044.28 529.722 1044.22 530.778 1044.67 530.333C1044.72 530.278 1044.78 529.222 1044.33 529.667z"/>
<path style="fill:#eac56a; stroke:none;" d="M844 535L845 536L844 535M843 538L844 539L843 538M780 539C780.602 544.39 780.866 551.704 779.582 557C777.118 567.159 771.57 576.372 770 587C773.361 583.92 775.616 580.344 777 576C778.879 582.54 777.45 591.029 778 598L782 589C783.635 589.545 783.455 589.365 784 591C786.229 585.638 783.421 579.453 782.464 574C781.716 569.736 782 565.312 782 561C786.366 568.536 789.623 577.889 793 586C796.161 578.248 785.939 569.958 791 563C789.635 557.251 786.711 552.349 784.312 547C783.005 544.085 782.506 541.017 780 539z"/>
<path style="fill:#FFD700; stroke:none;" d="M1070 540C1070.55 541.635 1070.36 541.455 1072 542C1071.45 540.365 1071.64 540.545 1070 540M376 541L377 545C377.393 543.076 377.146 542.64 376 541M191 542L190 547C191.627 545.412 192.774 543.922 194 542L191 542z"/>
<path style="fill:#eac56a; stroke:none;" d="M208 548C202.452 555.362 195.615 561.947 191.043 570C185.299 580.118 184 590.609 184 602C184.685 600.752 184.749 600.451 185 599C185.344 601.727 184.911 603.383 184 606C196.101 594.91 204.96 578.172 207.271 562C207.897 557.62 209.031 552.293 208 548M463 548C459.694 556.569 456.45 565.659 457.09 575C457.602 582.483 460.673 589.499 461 597C462.221 594.717 462.652 592.572 463 590C458.501 590 461.008 582.789 461.667 580C463.375 572.765 462.897 563.447 463 556C463.039 553.156 464.455 550.135 463 548M716 548C713.258 553.771 708.808 558.387 705.796 564C701.125 572.703 700 581.3 700 591C710.03 581.174 722.27 562.942 716 548M292 549L291 555L289 551C286.718 555.748 287.318 560.891 286.715 566C285.564 575.746 285.048 586.189 285.001 596C284.971 602.107 285.905 609.009 284.61 615C282.768 623.517 275.785 630.676 271.454 638C266.222 646.847 264.028 656.8 264 667C265.063 665.031 265.532 663.202 266 661C266.986 662.479 267 662.203 267 664L271 664L267 671C280.97 659.454 284 638.991 284 622C286.042 628.907 284.919 636.835 285.004 644C285.158 656.938 287.446 670.576 282.373 683C275.314 700.289 260.535 714.468 265 735C265.951 733.059 266.439 731.102 267 729C267.687 735.407 265.133 741.573 265 748C267.43 744.993 268.54 741.345 270.464 738C280.486 720.576 283.601 704.951 284 685C285.709 690.78 284.868 697.016 285.015 703C285.279 713.808 285.78 724.146 284.907 735C284.383 741.505 282.018 747.344 282 754C283.422 752.211 283.697 751.294 284 749L286 749C286 756.384 286.21 763.682 287.299 771C288.582 779.61 290.642 786.156 289 795L287 789C281.378 797.934 279.001 809.6 279 820L284 815L281 826C283.655 823.046 284.606 819.93 285 816C288.968 824.245 286.856 835.02 289 844C290.697 839.955 289.793 835.33 290.09 831C290.709 821.959 291 813.089 291 804C291 791.621 289.488 779.329 289.414 767.039C289.376 760.573 291.696 753.553 292.2 747C292.889 738.051 291 728.127 291 719C290.126 721.052 290.047 722.747 290 725C288.339 719.969 288.976 715.217 288.999 710C289.051 698.223 290.996 686.69 291 675C291.002 669.469 292.933 660.558 288 657C290.598 648.21 290.924 636.227 291 627C295.886 634.304 298.963 642.602 304 650C304.532 644.394 299.81 637.016 299 631C299.986 632.479 300 632.203 300 634C300.676 631.836 300.387 630.268 300 628C299.315 629.248 299.251 629.549 299 631C293.249 618.85 288.88 603.55 290.17 590C291.063 580.618 291.627 571.409 292.039 562C292.234 557.567 293.768 553.223 292 549M776 549C774.491 553.641 772.99 558.215 772 563C774.709 559.379 777.027 553.497 776 549M729 550C729 558.013 729.029 566.452 732.093 574C735.055 581.295 740.451 587.649 745 594C745.66 590.564 734.661 576.222 743 575C741.57 565.325 735.399 557.124 729 550M1056 550C1058.22 557.965 1057.92 565.855 1059.46 574C1060.6 580.034 1063.31 585.211 1064.99 591C1065.79 593.742 1064.71 596.264 1065.14 598.982C1065.76 602.88 1069.82 606.109 1073 608C1073 606.203 1073.01 606.479 1074 605C1078.3 609.969 1081.2 615.098 1084 621C1086.11 615.971 1084.51 610.26 1084.09 605C1082.35 583.371 1070.86 565.342 1056 550z"/>
<path style="fill:#FFD700; stroke:none;" d="M443 552L444 553L443 552M382 553L383 554L382 553z"/>
<path style="fill:#eac56a; stroke:none;" d="M1080 554L1081 555L1080 554z"/>
<path style="fill:#FFD700; stroke:none;" d="M1059 558L1060 559L1059 558z"/>
<path style="fill:#eac56a; stroke:none;" d="M507 560C506.273 572.482 506.874 585.354 511.873 597C515.257 604.885 520.531 611.73 525 619C526.079 613.862 522.432 607.045 521 602C525.456 598.784 523.398 593.6 521.974 589C518.83 578.84 512.915 568.792 507 560z"/>
<path style="fill:#FFD700; stroke:none;" d="M314 562L314 565C314.696 563.446 314.696 563.554 314 562M392 564L393 565L392 564z"/>
<path style="fill:#eac56a; stroke:none;" d="M296 566C295.992 577.959 294.67 588.42 299.066 600C302.669 609.493 309.705 616.921 314 626C315.088 622.089 313.038 617.209 313 613L314 615C315.722 610.887 314.543 606.279 313.739 602C311.307 589.058 303.24 576.761 296 566z"/>
<path style="fill:#FFD700; stroke:none;" d="M315.333 567.667C315.278 567.722 315.222 568.778 315.667 568.333C315.722 568.278 315.778 567.222 315.333 567.667M589 567L590 571C590.393 569.076 590.146 568.64 589 567M266 569L266 573C267.073 571.118 267.084 570.862 266 569M1021 570L1021 577C1022.06 574.466 1022.06 572.534 1021 570M422 575L423 576L422 575M497 576L497 581C497.83 578.97 497.83 578.03 497 576M423 577L424 578L423 577z"/>
<path style="fill:#eac56a; stroke:none;" d="M718 577C716.33 582.786 712.701 587.508 710.338 593C707.551 599.479 706.058 606.977 706 614C715.285 605.383 723.405 589.882 718 577z"/>
<path style="fill:#FFD700; stroke:none;" d="M848 580C847.014 581.479 847 581.203 847 583C848.082 581.616 848.191 581.662 848 580z"/>
<path style="fill:#eac56a; stroke:none;" d="M972 584C970.838 591.904 970.537 600.192 968.88 608C967.722 613.454 965.26 618.555 964 624C965.656 622.314 966.251 621.254 967 619C967.492 627.481 960.172 634.019 956.312 641C950.69 651.171 948.008 661.389 948 673C948.683 671.494 948.826 670.685 949 669C950.132 672.654 950.189 675.361 949 679C964.645 665.328 969.151 645.785 970 626C974.194 638.388 972.391 654.176 971.17 667C970.631 672.661 970.863 677.649 968.485 683C965.289 690.193 960.06 696.137 956.312 703C951.671 711.501 949.08 721.322 949 731C950.3 730.35 950 730.853 950 729C950.864 734.211 948.33 738.809 948 744C961.743 728.256 970.825 711.181 971 690C973.052 696.943 971.838 704.805 972.015 712L973.015 753C973.567 775.558 973.051 798.422 974.039 821C974.824 838.91 976.988 857.088 977 875C980.448 867.32 979 857.242 979 849L979 798C982.114 803.355 984.398 808.911 988 814C990.35 811.65 984.4 806.596 984 803C983.973 802.759 985.777 800.279 986 800L987 801C986.712 794.382 983.789 789.212 982 783C981.221 784.769 981.088 786.036 981 788C978.869 782.95 979.603 778.233 978.625 773C977.358 766.219 974.76 759.012 975.414 752C976.13 744.324 978.62 736.763 978.961 729C979.152 724.634 979.619 719.462 978.726 715.17C978.13 712.305 976.424 709.977 976.108 706.996C975.241 698.831 976 690.212 976 682C976.562 683.801 976.824 685.122 977 687C978.769 682.785 978 677.536 978 673L978 647C976.409 649.314 976.142 651.19 976 654C970.936 644.511 975.294 631.98 976.7 622C977.278 617.897 976.368 614.067 976.089 610C975.522 601.715 975.995 591.513 972 584M280 585C276.741 591.188 272.907 597.126 271.239 604C269.624 610.658 270.593 617.378 269 624C274.977 618.776 281.465 610.137 282.443 602C283.093 596.589 282 590.505 282 585L280 585z"/>
<path style="fill:#FFD700; stroke:none;" d="M1046 588L1046 593C1046.83 590.97 1046.83 590.03 1046 588M840 589L839 591C840.263 590.029 840.392 590.306 840 589M638 590L638 597C639.059 594.466 639.059 592.534 638 590z"/>
<path style="fill:#eac56a; stroke:none;" d="M243.333 592.667C243.278 592.722 243.222 593.778 243.667 593.333C243.722 593.278 243.778 592.222 243.333 592.667M728 595C728 603.048 726.81 612.174 728.927 620C730.698 626.544 734.757 632.151 738 638C741.166 630.456 738.545 618.063 735 611L732 612C730.548 606.675 730.472 599.754 728 595z"/>
<path style="fill:#FFD700; stroke:none;" d="M837 599L836 601C837.263 600.029 837.392 600.306 837 599M990 599L991 600L990 599M423 600C423.545 601.635 423.365 601.455 425 602C424.455 600.365 424.635 600.545 423 600z"/>
<path style="fill:#eac56a; stroke:none;" d="M207 601C203.033 610.466 195.556 617.828 190.971 627C186.159 636.624 185 646.404 185 657C185.779 655.231 185.912 653.964 186 652C188.18 657.361 186.047 663.296 186 669C194.464 656.418 203.193 641.164 205.561 626C206.381 620.748 205.774 615.451 205.924 610.17C206.016 606.952 207.657 604.146 207 601z"/>
<path style="fill:#FFD700; stroke:none;" d="M639 601L639 604C639.696 602.446 639.696 602.554 639 601z"/>
<path style="fill:#eac56a; stroke:none;" d="M719 601C712.547 614.619 710.176 626.096 709 641C718.787 630.581 721.181 614.633 719 601M730 602L731 603L730 602z"/>
<path style="fill:#FFD700; stroke:none;" d="M428 604C428.545 605.635 428.365 605.455 430 606C429.455 604.365 429.635 604.545 428 604M1082 608L1082 614C1082.95 611.715 1082.95 610.285 1082 608M717 609L718 610L717 609M204 610L205 611L204 610M589 610L590 611L589 610z"/>
<path style="fill:#eac56a; stroke:none;" d="M1058 610C1060.88 622.588 1058.74 635.478 1062.75 648C1066.76 660.55 1076.38 670.344 1080 683C1081.97 677.905 1077.82 673.961 1077.06 669C1076.31 664.053 1077.79 658.938 1078 654C1080.48 661.332 1081 669.305 1081 677C1083.24 671.672 1082.29 663.641 1081.41 658C1079.14 643.453 1073.11 632.069 1064.89 620C1062.58 616.604 1060.92 612.892 1058 610M980 611C981.985 621.692 980.362 632.445 983.746 643C986.948 652.988 994.199 660.498 1000 669C999.875 663.966 997.26 657.116 996 652C997.58 652.683 997.777 652.805 999 654C1003.36 643.314 991.424 628.374 986.089 620C984.082 616.849 982.666 613.638 980 611z"/>
<path style="fill:#FFD700; stroke:none;" d="M590 612L591 613L590 612M596 618L595 616C594.183 620.91 598.561 625.461 601.591 628.985C608.725 637.284 616.497 644.339 622 654C622.708 649.767 619.581 644.802 617.742 641C613.043 631.29 608.437 621.315 603 612C599.687 613.472 597.679 614.765 596 618M271 618L272 619L271 618M968 618L969 619L968 618z"/>
<path style="fill:#eac56a; stroke:none;" d="M723 621C721.966 628.678 719.076 636.164 719.079 644C719.081 649.394 720.919 654.758 722 660C722.911 658.623 723.404 657.56 724 656C724.796 659.672 724.077 663.244 724 667C728.846 658.082 729.124 644.884 727.7 635C727.011 630.223 725.222 625.865 725 621L723 621z"/>
<path style="fill:#FFD700; stroke:none;" d="M816 622L815 624C816.263 623.029 816.392 623.306 816 622M811 628C809.814 629.186 809.472 629.584 809 631C810.548 629.738 810.808 629.806 811 628z"/>
<path style="fill:#eac56a; stroke:none;" d="M904 636C904 653.213 904.916 672.49 910.026 689C912.758 697.831 918.003 705.354 921 714C923.654 707.616 919.464 699.384 918 693C919.672 693.338 919.31 693.537 920 692C921.186 693.036 921.604 693.339 923 694C921.728 688.659 921.77 683.237 919.911 678C918.084 672.855 914.66 668.164 913.083 663C911.805 658.812 913.591 654.296 912.606 650C911.46 645.004 907.133 639.966 904 636z"/>
<path style="fill:#FFD700; stroke:none;" d="M472 643L473 644L472 643M487 643L488 644L487 643M480.667 644.333C480.222 644.778 481.278 644.722 481.333 644.667C481.778 644.222 480.722 644.278 480.667 644.333z"/>
<path style="fill:#eac56a; stroke:none;" d="M219 646C220.975 656.637 219.306 667.379 221.898 678C225.018 690.782 232.423 700.85 239 712C240.058 708.187 237.724 704.611 236.439 701C235.059 697.12 234.326 693.092 234 689C236.249 690.154 236.846 690.751 238 693C242.397 682.22 230.111 666.916 225.309 658C223.158 654.005 221.999 649.399 219 646z"/>
<path style="fill:#FFD700; stroke:none;" d="M627 647L628 648L627 647z"/>
<path style="fill:#eac56a; stroke:none;" d="M295 648C292.387 668.672 298.657 693.615 316 707C313.091 699.861 311.105 692.419 309 685C310.853 685 310.35 685.3 311 684L312 686C313.639 681.979 312.041 677.954 310.655 674C307.494 664.981 301.111 655.298 295 648M803 658L807 658C805.723 659.915 805.723 659.085 807 661L798 663C804.415 665.717 811.026 664.96 816.999 669.532C829.239 678.902 836.105 697.483 829.482 712C825.687 720.316 818.52 726.508 814.873 735C810.456 745.283 810.444 756.144 809 767C817.916 757.691 827.039 745.533 830.572 733C832.954 724.549 832.907 715.649 834 707C839.498 723.242 837.668 742.118 839 759C839.984 756.669 839.981 754.543 840 752C841.561 757.28 841.564 763.48 842 769C841.119 766.979 840.504 765.146 840 763C836.895 770.399 839 781.993 839 790C839 812.681 840.813 835.356 841 858C843.037 854.168 842.761 850.224 843.17 846C844.106 836.327 844 826.727 844 817C844 784.632 842.004 752.306 842 720C840.708 721.922 839.858 723.84 839 726C836.375 717.119 839.642 708.851 839.871 700C840.035 693.693 837.693 687.012 836 681C838.596 683.651 841.608 686.351 843.296 689.714C846.323 695.749 846.306 703.601 849.015 710C853.051 719.535 860.585 728.072 869 734C867.668 730.373 866.738 726.79 866 723C869.018 724.207 868.276 721.105 869 724C870.796 717.908 864.975 708.865 861.56 704C856.712 697.094 849.904 692.991 844.3 686.911C834.456 676.23 829.126 663.912 815 658C838.121 651.165 859.459 666.231 871 685C871.159 679.937 867.592 674.183 864.91 670C856.012 656.125 842.476 648 826 648C816.494 648 807.331 648.317 803 658M899 648C897.049 661.013 889.038 671.231 889 685C890.062 683.307 890.52 681.96 891 680C892.493 680.999 892.266 680.968 894 681L892 686C900.785 677.883 903.581 658.917 899 648z"/>
<path style="fill:#FFD700; stroke:none;" d="M628 649L629 650L628 649z"/>
<path style="fill:#eac56a; stroke:none;" d="M489 650C490.949 651.573 492.588 652.291 495 653C493.051 651.427 491.412 650.709 489 650M496 653L497 654L496 653z"/>
<path style="fill:#FFD700; stroke:none;" d="M630 654L631 655L630 654z"/>
<path style="fill:#eac56a; stroke:none;" d="M395 737C396.3 736.35 396 736.853 396 735C396.07 737.315 395.74 738.779 395 741C403.731 733.027 413.075 722.501 418.677 712C424.756 700.604 426.832 688.608 436 679C434.15 684.685 426.623 699.277 432 704C428.408 716.147 429 729.477 429 742C435.119 736.185 433.995 720.979 434 713L436 713C436.497 724.576 437.093 737.433 442.377 748C446.991 757.229 455.002 764.656 461 773C460.995 768.151 456.482 763.986 454 760C455.186 761.186 455.584 761.528 457 762C456.701 760.385 456.048 752.796 459 756C459.838 752.328 458.191 748.523 456.996 745C452.913 732.959 441.481 725.046 438.16 713C431.81 689.971 448.979 666.56 473 665.21C482.724 664.663 492.036 668.967 501 672C498.686 668.85 496.653 666.501 493 665C493.09 659.11 487.191 657.092 482 656.3C470.913 654.608 459.114 655.62 449 660.821C438.702 666.116 434.208 675.781 426.7 683.91C422.078 688.913 415.834 692.055 411.174 697.039C401.444 707.445 395.61 722.822 395 737z"/>
<path style="fill:#FFD700; stroke:none;" d="M623 655L624 656L623 655M631.333 656.667C631.278 656.722 631.222 657.778 631.667 657.333C631.722 657.278 631.778 656.222 631.333 656.667M993 656C993.81 658.222 994.739 659.99 996 662C996.011 659.271 994.918 657.91 993 656M1042 656L1041 658C1042.26 657.029 1042.39 657.306 1042 656z"/>
<path style="fill:#eac56a; stroke:none;" d="M800 657L801 658L800 657z"/>
<path style="fill:#FFD700; stroke:none;" d="M614 659C614.41 661.774 615.149 664.327 616 667C616.955 663.851 616.046 661.499 614 659z"/>
<path style="fill:#eac56a; stroke:none;" d="M209.333 660.667C209.278 660.722 209.222 661.778 209.667 661.333C209.722 661.278 209.778 660.222 209.333 660.667M496.667 660.333C496.222 660.778 497.278 660.722 497.333 660.667C497.778 660.222 496.722 660.278 496.667 660.333M499 661L500 662L499 661z"/>
<path style="fill:#FFD700; stroke:none;" d="M785 661C783.814 662.186 783.472 662.584 783 664C784.548 662.738 784.808 662.806 785 661z"/>
<path style="fill:#eac56a; stroke:none;" d="M797 661L798 662L797 661z"/>
<path style="fill:#FFD700; stroke:none;" d="M491 662C491.545 663.635 491.365 663.455 493 664C492.455 662.365 492.635 662.545 491 662z"/>
<path style="fill:#eac56a; stroke:none;" d="M208 663C203.885 678.046 194.002 688.703 194 705C195.272 703.728 194.723 701.128 196 699L197 700L196 695C197.023 696.534 196.805 696.402 198 697L199 693C200.302 701.089 197.83 711.994 196 720C203.673 710.749 208.172 697.965 208.791 686C209.217 677.764 207.666 671.242 210 663L208 663z"/>
<path style="fill:#FFD700; stroke:none;" d="M271 663L272 664L271 663z"/>
<path style="fill:#eac56a; stroke:none;" d="M795 664L796 665L795 664z"/>
<path style="fill:#FFD700; stroke:none;" d="M782 665C771.931 675.281 762.722 686.468 752.911 697C740.568 710.25 728.723 722.12 720 738C726.875 733.055 731.886 725.491 737.25 719C746.439 707.88 755.756 696.828 765.286 686C770.298 680.305 780.615 672.635 782 665M950 666L950 669C950.696 667.446 950.696 667.554 950 666M1075 667L1076 668L1075 667M617.333 668.667C617.278 668.722 617.222 669.778 617.667 669.333C617.722 669.278 617.778 668.222 617.333 668.667M955 668L952 673C953.903 671.352 954.875 670.505 955 668z"/>
<path style="fill:#eac56a; stroke:none;" d="M281 669C278.352 675.863 275.324 682.564 275 690C280.796 684.838 284.168 676.55 281 669M982 669C982.408 678.507 981.687 689.819 984.159 699C987.052 709.746 993.49 718.21 1000 727C1000.25 720.646 996.557 712.319 995 706C997.02 705.474 998.004 705.399 1000 706C997.38 692.534 989.574 680.257 982 669z"/>
<path style="fill:#FFD700; stroke:none;" d="M206 673L207 674L206 673M951 674L952 675L951 674M205 675L206 676L205 675M339 678L340 679L339 678M436 678L437 679L436 678M984 678C985.086 681.199 986.348 682.911 989 685C987.636 682.269 986.17 680.147 984 678z"/>
<path style="fill:#eac56a; stroke:none;" d="M1056 678C1056.89 684.597 1059.42 689.963 1062 696C1060.08 694.723 1060.91 694.723 1059 696C1059.18 693.504 1058.96 692.317 1058 690C1049.39 710.334 1066.61 729.49 1071 748C1072.72 743.587 1070.11 739.428 1069.32 735C1068.38 729.717 1068.45 724.244 1067.33 719C1066.03 712.882 1063.69 707.269 1063 701C1065.53 705.457 1066.96 709.993 1068 715C1068.68 713.752 1068.75 713.452 1069 712C1072.29 721.724 1072 731.871 1072 742C1078.86 725.658 1069.43 705.359 1062.25 691C1060.12 686.739 1058.84 681.796 1056 678z"/>
<path style="fill:#FFD700; stroke:none;" d="M230 680L231 681L230 680z"/>
<path style="fill:#eac56a; stroke:none;" d="M348 684C343.059 695.867 337.036 705.746 337 719L341 717L340 723C338.977 721.466 339.195 721.598 338 721C337.103 723.637 336.531 726.262 336 729C347.306 719.187 348.183 707.999 347.92 693.999C347.857 690.677 348.739 687.18 348 684z"/>
<path style="fill:#FFD700; stroke:none;" d="M236.333 686.667C236.278 686.722 236.222 687.778 236.667 687.333C236.722 687.278 236.778 686.222 236.333 686.667z"/>
<path style="fill:#eac56a; stroke:none;" d="M334.333 686.667C334.278 686.722 334.222 687.778 334.667 687.333C334.722 687.278 334.778 686.222 334.333 686.667M901 688C895.094 697.65 889.502 708.476 889 720C897.08 713.421 905.449 698.603 901 688z"/>
<path style="fill:#FFD700; stroke:none;" d="M198 689L199 690L198 689M200.333 691.667C200.278 691.722 200.222 692.778 200.667 692.333C200.722 692.278 200.778 691.222 200.333 691.667M989 691L990 692L989 691M197 692L198 693L197 692M993 692C992.014 693.478 992 693.203 992 695L991 693C990.294 696.411 992.092 699.673 993 703C993.622 701.057 993.436 700.051 993 698C994.479 698.986 994.203 699 996 699C995.493 696.163 994.799 694.248 993 692M368 693L368 697C368.71 695.24 368.71 694.759 368 693z"/>
<path style="fill:#eac56a; stroke:none;" d="M992 696L993 697L992 696z"/>
<path style="fill:#FFD700; stroke:none;" d="M1062 696L1062 700C1064.82 700 1065.08 702.507 1066 705C1066.59 701.396 1064.41 698.577 1062 696z"/>
<path style="fill:#eac56a; stroke:none;" d="M908 699C908.476 703.484 907.127 707.576 907.26 712C907.445 718.165 910.118 724.216 912 730C918.392 723.74 914.885 704.166 908 699M1047 700L1048 701L1047 700z"/>
<path style="fill:#FFD700; stroke:none;" d="M838.333 701.667C838.278 701.722 838.222 702.778 838.667 702.333C838.722 702.278 838.778 701.222 838.333 701.667z"/>
<path style="fill:#eac56a; stroke:none;" d="M1046 702C1043.39 711.069 1037.84 719.083 1034.7 728C1032.37 734.591 1032 741.087 1032 748C1033.67 744.028 1033.39 739.241 1034.48 735C1036.2 728.28 1039.17 722.174 1042.25 716C1044.36 711.759 1047.69 706.768 1046 702z"/>
<path style="fill:#FFD700; stroke:none;" d="M544 703C545.163 705.217 546.086 706.394 548 708C546.794 705.954 545.752 704.59 544 703M667 704L668 705L667 704M994 704L995 705L994 704z"/>
<path style="fill:#eac56a; stroke:none;" d="M295 705C295.918 712.265 295.175 719.837 296.465 727C298.689 739.361 306.252 752.134 316 760C313.43 755.106 312.736 750.18 310.996 745C309.276 739.879 306.741 735.112 305 730C306.944 730.402 307.056 730.402 309 730L312 740C313.339 736.223 311.476 732.577 309.988 729C306.516 720.649 300.79 711.914 295 705z"/>
<path style="fill:#FFD700; stroke:none;" d="M1067 706L1068 711C1068.65 708.766 1068.32 707.926 1067 706z"/>
<path style="fill:#eac56a; stroke:none;" d="M193 707L193 710C193.696 708.446 193.696 708.554 193 707M356 708C352.749 718.999 354.797 734.383 358.814 745C360.54 749.56 363.611 753.279 365 758C367.12 752.803 365 744.716 365 739C363.804 739.598 364.023 739.466 363 741C362.285 738.26 361.882 735.422 359 735C358.949 728.887 357.262 723.077 357 717L359 721C359.517 716.892 357.795 711.705 356 708z"/>
<path style="fill:#FFD700; stroke:none;" d="M704 710L703 712C704.263 711.029 704.392 711.306 704 710z"/>
<path style="fill:#eac56a; stroke:none;" d="M902 710C900.066 716.715 895.861 722.433 893.548 729C891.937 733.572 892.001 738.223 892 743C893.455 740.23 894.03 737.518 896 735L894 748L893 746C891.49 751.015 891.97 756.777 891 762C902.106 751.012 904.152 732.602 903 718C901.354 720.209 900.144 722.491 899 725C899.554 720.076 903.593 714.84 902 710M1046 710C1045.29 715.545 1042.33 720.646 1040.72 726C1036.72 739.298 1033.01 753.035 1033 767C1040.97 754.401 1046.98 738.002 1047 723C1047.01 718.743 1047.66 713.955 1046 710z"/>
<path style="fill:#FFD700; stroke:none;" d="M297 713C298.662 716.26 300.826 719.057 303 722C302.802 718.135 299.899 715.362 297 713M992 713C993.42 715.865 995.146 718.391 997 721C997.104 717.22 995.031 715.016 992 713z"/>
<path style="fill:#eac56a; stroke:none;" d="M195 721L196 722L195 721z"/>
<path style="fill:#FFD700; stroke:none;" d="M221 721L222 725C222.393 723.076 222.146 722.64 221 721M679 722L680 723L679 722M666 723L667 724L666 723M305 724L306 725L305 724z"/>
<path style="fill:#eac56a; stroke:none;" d="M346 724C341.378 733.773 335.491 741.744 335 753C336.393 750.689 336.765 748.691 337 746C340.359 753.019 336.482 758.063 335 765C345.079 754.476 347 742.9 347 729C345.634 730.631 344.858 732.038 344 734C344.412 730.564 346.567 727.401 346 724M361.333 725.667C361.278 725.722 361.222 726.778 361.667 726.333C361.722 726.278 361.778 725.222 361.333 725.667z"/>
<path style="fill:#FFD700; stroke:none;" d="M306 726L307 727L306 726M679 727L678 735C679.753 733.67 680.67 732.753 682 731C679.214 731 680.358 728.868 679 727M307 728L308 729L307 728z"/>
<path style="fill:#eac56a; stroke:none;" d="M362 728L363 735C363.965 732.295 363.466 730.45 362 728z"/>
<path style="fill:#FFD700; stroke:none;" d="M668 728L669 729L668 728M865.333 728.667C865.278 728.722 865.222 729.778 865.667 729.333C865.722 729.278 865.778 728.222 865.333 728.667z"/>
<path style="fill:#eac56a; stroke:none;" d="M982 728C984.155 739.61 981.565 751.521 984.745 763C988.139 775.247 996.551 785.051 1000 797C1002.65 788.059 993.079 778.756 999 770C999.724 775.702 1000.95 781.228 1001 787C1003.05 782.12 1001.85 776.115 1001.13 771C999.016 755.958 991.109 740.033 982 728M360.333 729.667C360.278 729.722 360.222 730.778 360.667 730.333C360.722 730.278 360.778 729.222 360.333 729.667M663 730L664 731L663 730z"/>
<path style="fill:#FFD700; stroke:none;" d="M397 731L397 735C397.71 733.241 397.71 732.759 397 731z"/>
<path style="fill:#eac56a; stroke:none;" d="M212 733C203.376 751.196 195.044 768.185 200 789C210.843 772.881 214.646 752.101 212 733z"/>
<path style="fill:#FFD700; stroke:none;" d="M896.333 733.667C896.278 733.722 896.222 734.778 896.667 734.333C896.722 734.278 896.778 733.222 896.333 733.667M228.333 734.667C228.278 734.722 228.222 735.778 228.667 735.333C228.722 735.278 228.778 734.222 228.333 734.667M342 734C340.5 737.658 338.917 741.141 338 745C339.65 743.762 339.333 742.333 340 745C342.016 741.789 343.514 737.649 342 734z"/>
<path style="fill:#eac56a; stroke:none;" d="M422 734C418.326 741.397 412.519 747.093 408.09 754C401.276 764.626 398.001 776.474 398 789C399.098 786.387 398.993 783.836 399 781L400 783C400.685 781.752 400.749 781.452 401 780C401.921 786.227 397.918 791.872 397 798C411.703 783.864 420.489 765.136 421.015 745C421.111 741.316 422.747 737.541 422 734M848 735C849.464 741.323 848.49 747.637 849.615 754C852.019 767.601 860.291 780.365 871 789C868.726 782.902 866.102 776.407 865 770C866.734 769.968 866.507 769.999 868 769L869 774C870.494 769.824 868.453 764.919 866.687 761C862.416 751.525 855.478 742.163 848 735M1051 736C1050.05 743.039 1047.59 749.89 1047.09 757C1046.18 769.951 1048.41 781.445 1051 794C1052.37 790.184 1050.76 785.909 1050 782C1052.22 783.845 1053.22 784.603 1056 785L1054 801C1056.11 797.053 1056.73 792.373 1057.6 788C1059.07 780.669 1060.55 772.488 1059.83 765C1059 756.365 1055.94 748.372 1054 740C1052.45 744.367 1055.08 749.565 1056 754C1053.53 754.666 1051.67 755.087 1050 757C1048.23 749.973 1053.72 742.675 1051 736z"/>
<path style="fill:#FFD700; stroke:none;" d="M227 737C226.25 740.599 227.191 743.451 228 747C228.911 745.623 229.404 744.56 230 743L228 743L229 739C229.986 740.479 230 740.203 230 742C230.622 740.057 230.436 739.051 230 737L227 737z"/>
<path style="fill:#eac56a; stroke:none;" d="M364 737L365 738L364 737M427 737C427 768.968 426.232 801.042 427.015 833C427.32 845.463 429.67 858.57 428.906 871C428.242 881.799 421.476 891.092 421 902C424.527 895.511 426.591 887.238 428 880C428.722 882.418 428.948 884.472 429 887C430.405 883.653 430.248 879.625 430.718 876C432.064 865.638 432 855.435 432 845L432 780C432 766.513 432.33 749.58 427 737M871 737L872 738L871 737z"/>
<path style="fill:#FFD700; stroke:none;" d="M674 738C672.138 739.945 670.532 741.794 669 744C671.408 742.263 673.302 740.905 674 738z"/>
<path style="fill:#eac56a; stroke:none;" d="M310 739L311 740L310 739z"/>
<path style="fill:#FFD700; stroke:none;" d="M210 740L208 746C209.915 743.968 210.744 742.735 210 740z"/>
<path style="fill:#eac56a; stroke:none;" d="M340 741L341 742L340 741M969 741C959.866 754.537 951.11 766.395 949 783L952 779C952.603 785.667 948.698 791.658 947 798C963.032 784.949 971.533 761.358 969 741z"/>
<path style="fill:#FFD700; stroke:none;" d="M231.333 743.667C231.278 743.722 231.222 744.778 231.667 744.333C231.722 744.278 231.778 743.222 231.333 743.667z"/>
<path style="fill:#eac56a; stroke:none;" d="M906 743C905.594 752.447 903.213 761.425 904.171 771C905.096 780.254 909.595 788.707 910 798C917.371 784.436 915.263 768.267 912 754C911.028 756.744 911.037 758.779 909 761L908 743L906 743z"/>
<path style="fill:#FFD700; stroke:none;" d="M339 746L340 747L339 746z"/>
<path style="fill:#eac56a; stroke:none;" d="M590.333 746.667C590.278 746.722 590.222 747.778 590.667 747.333C590.722 747.278 590.778 746.222 590.333 746.667z"/>
<path style="fill:#FFD700; stroke:none;" d="M207 747L208 748L207 747M967 747C965.356 749.748 964.213 751.822 964 755C965.969 752.56 967.262 750.167 967 747M229.333 748.667C229.278 748.722 229.222 749.778 229.667 749.333C229.722 749.278 229.778 748.222 229.333 748.667z"/>
<path style="fill:#eac56a; stroke:none;" d="M293 748C294.084 751.974 295.991 755.842 296.25 760C296.739 767.851 295.484 775.204 297.478 783C300.6 795.201 307.693 805.307 314 816C314.594 808.861 309.61 800.465 309 793C310.964 793.828 311.682 794.442 313 796C314.385 783.073 305.546 771.702 299.665 761C297.314 756.722 296.229 751.659 293 748z"/>
<path style="fill:#FFD700; stroke:none;" d="M309 749L311 753C310.961 750.962 310.466 750.495 309 749z"/>
<path style="fill:#eac56a; stroke:none;" d="M354 749C353.79 759.179 352.151 768.877 354.761 779C356.654 786.345 360.811 792.786 365 799C365.047 795.566 363.111 792.265 362 789C369.442 785.697 362.03 770.441 359.972 765C359.265 763.13 357.771 758.392 356 761C354.83 757.043 355.58 752.766 354 749M591 749L591 752C591.696 750.446 591.696 750.554 591 749M909 750L910 753C910.401 751.234 910.289 751.443 909 750z"/>
<path style="fill:#FFD700; stroke:none;" d="M989 752L990 753L989 752M571 753L572 754L571 753M812 753L811 757C811.954 755.419 812.197 754.811 812 753z"/>
<path style="fill:#eac56a; stroke:none;" d="M282 755C276.891 764.732 270.45 773.968 268.465 785C266.977 793.267 268.564 801.608 267 810C279.874 794.477 285.156 774.728 282 755z"/>
<path style="fill:#FFD700; stroke:none;" d="M679 770L677 767C673.712 769.537 671.529 772.724 669 776C672.182 779.209 674.648 778.819 677 775C683.627 773.76 690.171 761.171 692 755C683.449 756.358 681.507 762.578 679 770z"/>
<path style="fill:#eac56a; stroke:none;" d="M834 755C828.799 765.647 819.812 773.845 815.431 785C814.342 787.771 810.948 796.324 815 797C813.197 802.339 811.713 807.388 811 813C825.048 799.235 832.424 784.436 832.924 765C833.013 761.56 834.693 758.334 834 755z"/>
<path style="fill:#FFD700; stroke:none;" d="M205 756L206 757L205 756M572 756L572 759C572.696 757.446 572.696 757.554 572 756z"/>
<path style="fill:#eac56a; stroke:none;" d="M685 758L684 760C685.263 759.029 685.392 759.306 685 758M316 761L317 762L316 761z"/>
<path style="fill:#FFD700; stroke:none;" d="M280.333 762.667C280.278 762.722 280.222 763.778 280.667 763.333C280.722 763.278 280.778 762.222 280.333 762.667M297 762L303 779C303.507 776.92 303.237 775.162 303 773L305 776C305.051 770.847 300.663 765.357 297 762M356 762C356.884 766.268 358.463 769.966 360 774C361.337 769.596 358.986 765.229 356 762z"/>
<path style="fill:#eac56a; stroke:none;" d="M216 764C213.575 776.507 210.185 788.097 211.09 801C211.566 807.804 214.094 814.269 215 821C215.969 818.302 215.353 815.839 215 813C217.045 817.878 216.219 821.875 216 827C223.614 812.704 221.21 795.203 220 780C219.015 782.332 219.019 784.457 219 787C216.21 785.972 214.444 784.333 214 788C212.705 780.223 218.874 771.363 216 764M437 764C438.349 770.354 437.324 776.661 438.465 783C440.926 796.676 450.304 810.369 461 819C457.634 811.746 453.2 803.181 454 795L456 795L457 800C458.091 796.309 456.239 792.467 454.769 789C450.816 779.68 443.588 771.547 437 764z"/>
<path style="fill:#FFD700; stroke:none;" d="M831 764L830 766C831.263 765.029 831.392 765.306 831 764z"/>
<path style="fill:#eac56a; stroke:none;" d="M600 766L601 767L600 766M635 766C632.38 770.579 629.47 772.445 629 778C632.322 775.152 635.757 770.544 635 766z"/>
<path style="fill:#FFD700; stroke:none;" d="M829 767L828 769C829.263 768.029 829.392 768.306 829 767M439 770C439.545 771.635 439.365 771.455 441 772C440.455 770.365 440.635 770.545 439 770M995 771L996 772L995 771z"/>
<path style="fill:#eac56a; stroke:none;" d="M302 772L303 773L302 772z"/>
<path style="fill:#FFD700; stroke:none;" d="M201 773L202 774L201 773z"/>
<path style="fill:#eac56a; stroke:none;" d="M348 773C344.577 781.222 339.594 789.025 338.3 798C337.148 805.991 339.789 814.216 338 822C341.181 819.668 342.521 815.509 344.244 812C349.245 801.815 350.076 793.086 349.039 782C348.751 778.914 349.119 775.885 348 773z"/>
<path style="fill:#FFD700; stroke:none;" d="M441 773C442.33 774.753 443.247 775.67 445 777C443.67 775.247 442.753 774.33 441 773z"/>
<path style="fill:#eac56a; stroke:none;" d="M678.333 773.667C678.278 773.722 678.222 774.778 678.667 774.333C678.722 774.278 678.778 773.222 678.333 773.667z"/>
<path style="fill:#FFD700; stroke:none;" d="M200 775L200 780C200.83 777.969 200.83 777.03 200 775z"/>
<path style="fill:#eac56a; stroke:none;" d="M870.333 775.667C870.278 775.722 870.222 776.778 870.667 776.333C870.722 776.278 870.778 775.222 870.333 775.667M218.333 777.667C218.278 777.722 218.222 778.778 218.667 778.333C218.722 778.278 218.778 777.222 218.333 777.667z"/>
<path style="fill:#FFD700; stroke:none;" d="M306 777C306.684 778.58 306.805 778.777 308 780C307.309 778.611 307.016 778.139 306 777M910 777C909.313 780.7 909.01 784.237 909 788C910.362 784.783 911.029 780.344 910 777M400 778L401 779L400 778M347 779L345 786C347.134 783.725 348.042 782.023 347 779M402 779L403 780L402 779z"/>
<path style="fill:#eac56a; stroke:none;" d="M848 783C849.356 793.729 848.329 804.571 851.749 815C854.922 824.672 861.355 832.701 867 841C867.097 832.736 862.231 823.366 861 815C862.687 815.218 863.316 815.224 865 815C866.744 823.45 868.994 831.301 869 840C870.865 835.556 869.58 830.654 869.05 826C867.279 810.448 857.825 794.844 848 783M423 785C420.596 793.327 414.547 799.737 410.065 807C405.174 814.925 402.077 823.656 402 833C403.232 830.439 403.635 827.822 404 825C404.709 827.171 404.714 827.826 404 830C405.416 829.528 405.814 829.186 407 828C404.767 834.861 401.631 841.773 401 849C415.363 834.005 421.825 816.484 421.899 796.17C421.913 792.304 424.102 788.728 423 785z"/>
<path style="fill:#FFD700; stroke:none;" d="M618 789L618 792C618.696 790.446 618.696 790.554 618 789M981 789L982 790L981 789M270 790C269.428 792.377 269.109 794.558 269 797C270.466 794.55 270.965 792.706 270 790M308 792L309 793L308 792M851 792L852 793L851 792M454 793L455 794L454 793M814 793L815 797C815.393 795.076 815.146 794.641 814 793M816 793L817 794L816 793z"/>
<path style="fill:#eac56a; stroke:none;" d="M968 793C960.7 808.436 951.012 820.059 951 838C951.779 836.231 951.912 834.964 952 833C952.986 834.479 953 834.203 953 836C954.3 835.35 954 835.853 954 834C955.13 840.788 951.588 847.262 951 854C963.484 838.948 969 821.208 969 802C966.004 803.798 965.241 807.199 963 810L962 809C962.476 813.629 960.764 817.503 960 822C959.438 820.199 959.176 818.878 959 817C957.701 817.65 958 817.147 958 819C957.931 809.76 969.86 802.026 968 793z"/>
<path style="fill:#FFD700; stroke:none;" d="M420 795L419 798C420.289 796.557 420.401 796.766 420 795z"/>
<path style="fill:#eac56a; stroke:none;" d="M1052.33 795.667C1052.28 795.722 1052.22 796.778 1052.67 796.333C1052.72 796.277 1052.78 795.223 1052.33 795.667M812.333 799.667C812.278 799.722 812.222 800.778 812.667 800.333C812.722 800.278 812.778 799.222 812.333 799.667z"/>
<path style="fill:#FFD700; stroke:none;" d="M856 799L857 800L856 799M213 801C213.031 804.735 213.533 808.305 214 812C215.786 808.159 215.088 804.594 213 801M855 802C855.426 804.469 856.132 806.645 857 809C857.866 806.048 856.981 804.277 855 802z"/>
<path style="fill:#eac56a; stroke:none;" d="M1053.33 802.667C1053.28 802.722 1053.22 803.778 1053.67 803.333C1053.72 803.277 1053.78 802.223 1053.33 802.667M835 804C829.254 817.797 819.236 828.473 818 844C819.393 841.689 819.765 839.691 820 837L824 838C822.89 846.242 819.206 853.833 818 862C826.784 852.828 833.556 839.731 834.829 827C835.225 823.047 836.16 816.761 833 814C834.068 810.717 835.717 807.414 835 804z"/>
<path style="fill:#FFD700; stroke:none;" d="M284.333 806.667C284.278 806.722 284.222 807.778 284.667 807.333C284.722 807.278 284.778 806.222 284.333 806.667z"/>
<path style="fill:#eac56a; stroke:none;" d="M352 807C351.144 813.354 349.1 819.536 349.019 826C348.916 834.103 351.377 842.13 353 850C354.46 845.919 352.349 841.268 352 837C354.74 844.157 354.32 849.559 354 857C359.827 847.459 359.699 833.433 357 823C355.7 823.65 356 823.147 356 825C354.668 822.802 355.14 822.618 353 823C353 817.91 353.982 811.724 352 807z"/>
<path style="fill:#FFD700; stroke:none;" d="M217 810L217 816C217.951 813.715 217.951 812.285 217 810z"/>
<path style="fill:#eac56a; stroke:none;" d="M437 811C437.777 815.493 439.749 819.075 442 823L440 822L441 824L437 823C437.002 840.389 444.86 851.38 453 866C453.562 862.559 451.264 860.262 450.36 857C449.45 853.716 450.389 850.254 451 847C452.672 847.338 452.31 847.537 453 846C454.003 848.667 454.621 851.175 455 854C456.596 849.91 454.931 845.078 453.653 841C450.256 830.158 443.313 820.33 437 811z"/>
<path style="fill:#FFD700; stroke:none;" d="M863.333 812.667C863.278 812.722 863.222 813.778 863.667 813.333C863.722 813.278 863.778 812.222 863.333 812.667z"/>
<path style="fill:#eac56a; stroke:none;" d="M982 813C982.43 819.412 986.545 824.313 989.218 830C992.244 836.436 993.693 843.064 995 850C989.014 848.119 989.229 837.357 987.667 832C986.933 829.486 984.569 825.308 984 830C983.438 828.2 983.176 826.878 983 825C975.843 842.056 991.362 856.826 995 872C996.125 868.75 994.515 866.298 994.058 863C993.607 859.751 993.998 856.278 994 853C995.003 855.667 995.621 858.175 996 861C997.852 856.586 997.209 850.661 996.385 846C994.349 834.478 989.084 822.322 982 813z"/>
<path style="fill:#FFD700; stroke:none;" d="M832 814C828.01 820.03 824.339 826.132 822 833C824.121 833.228 823.89 833.151 825 835C828.534 830.622 833.632 819.535 832 814z"/>
<path style="fill:#eac56a; stroke:none;" d="M294 817C294.43 829.396 293.427 841.052 297.698 853C300.416 860.603 305.827 866.646 309 874C310.094 870.057 307.549 865.926 306.665 862C304.005 850.188 296.615 837.98 296 826C302.245 835.468 307.503 845.465 308 857C312.056 847.242 303.316 835.103 298.865 827C297.071 823.734 295.98 820.131 294 817M864 818L865 819L864 818z"/>
<path style="fill:#FFD700; stroke:none;" d="M956.333 819.667C956.278 819.722 956.222 820.778 956.667 820.333C956.722 820.278 956.778 819.222 956.333 819.667M592 820L591 824C592.303 822.332 592.553 822.008 592 820z"/>
<path style="fill:#eac56a; stroke:none;" d="M829 820L830 821L829 820z"/>
<path style="fill:#FFD700; stroke:none;" d="M955 822C954.062 825.336 953.283 828.542 953 832C954.663 828.94 956.004 825.393 955 822M958 822C956.641 825.645 955.523 829.138 955 833C956.992 829.834 958.78 825.715 958 822M442 823C444.086 828.209 444.308 833.659 446 839L449 835L450 836C448.007 831.214 445.84 826.548 442 823M576 823L576 830C577.059 827.466 577.059 825.534 576 823M295 825L296 826L295 825M601 825L602 826L601 825M407.333 826.667C407.278 826.722 407.222 827.778 407.667 827.333C407.722 827.278 407.778 826.222 407.333 826.667z"/>
<path style="fill:#eac56a; stroke:none;" d="M445 829L446 830L445 829z"/>
<path style="fill:#FFD700; stroke:none;" d="M861 829L863 833C862.961 830.962 862.466 830.495 861 829z"/>
<path style="fill:#eac56a; stroke:none;" d="M446 831L447 832L446 831z"/>
<path style="fill:#FFD700; stroke:none;" d="M821 835L822 836L821 835M354 837L354 841C354.71 839.24 354.71 838.76 354 837M450 837L451 838L450 837M824 837L825 838L824 837z"/>
<path style="fill:#eac56a; stroke:none;" d="M285 839C281.477 847.462 278.17 854.79 277 864C281.732 864 277.541 874.063 277 877C285.736 868.529 286.484 856.298 286 845C284.515 847.236 283.713 849.409 283 852C282.901 847.511 286.201 843.329 285 839z"/>
<path style="fill:#FFD700; stroke:none;" d="M451 840L452 841L451 840z"/>
<path style="fill:#eac56a; stroke:none;" d="M847 841C848.042 845.346 850.132 848.98 852 853C850.312 852.311 849.931 852.324 849 851C842.87 865.609 856.323 880.858 862 893C864.015 888.198 862.993 882.053 862.271 877C860.419 864.04 855.494 851.145 847 841M869.333 842.667C869.278 842.722 869.222 843.778 869.667 843.333C869.722 843.278 869.778 842.222 869.333 842.667z"/>
<path style="fill:#FFD700; stroke:none;" d="M452 843L452 846C452.696 844.446 452.696 844.554 452 843z"/>
<path style="fill:#eac56a; stroke:none;" d="M423 845C420.745 852.664 414.909 858.534 412.066 866C409.094 873.802 410.036 880.039 409.505 888C409.28 891.38 408.156 894.578 408 898C417.207 887.005 423.381 873.408 424 859C418.745 860.559 417.356 865.043 416 870L414 865L416 866C416.364 858.72 425.037 851.981 423 845z"/>
<path style="fill:#FFD700; stroke:none;" d="M994 851L995 852L994 851M281 852L280 858L283 856C282.404 854.44 281.911 853.377 281 852M852 853L854 857C853.961 854.962 853.466 854.495 852 853z"/>
<path style="fill:#eac56a; stroke:none;" d="M306 854L307 855L306 854z"/>
<path style="fill:#FFD700; stroke:none;" d="M448 854L449 855L448 854z"/>
<path style="fill:#eac56a; stroke:none;" d="M655.333 854.667C655.278 854.722 655.222 855.778 655.667 855.333C655.722 855.278 655.778 854.222 655.333 854.667M838 854C835.161 860.92 832.009 867.513 831 875C834.025 870.216 839.539 859.55 838 854M972 854C966.814 867.366 961.002 878.303 961 893C961.874 890.948 961.953 889.253 962 887C962.986 888.479 963 888.203 963 890C964.3 889.35 964 889.853 964 888C965.467 894.79 962.058 902.024 962 909C972.985 895.403 974.305 877.53 973 861C970.093 867.473 968.615 876.018 967 883C964.884 882.719 965.062 882.4 964 884C961.782 873.351 974.923 863.911 972 854M288 856L288 876L292 869C291.013 864.683 290.288 859.795 288 856z"/>
<path style="fill:#FFD700; stroke:none;" d="M853 858C853.221 862.302 854.633 865.953 856 870C856.685 868.752 856.749 868.452 857 867L858 869C859.142 865.238 857.335 861.581 856 858L853 858z"/>
<path style="fill:#eac56a; stroke:none;" d="M855 860L856 861L855 860M292 861C292.281 867.131 294.81 872.354 297 878C298.802 872.917 294.751 865.35 292 861z"/>
<path style="fill:#FFD700; stroke:none;" d="M992 861L993 862L992 861z"/>
<path style="fill:#eac56a; stroke:none;" d="M838 864C835.092 874.879 830.984 885.717 830 897C835.994 889.766 843.298 873.021 838 864z"/>
<path style="fill:#FFD700; stroke:none;" d="M413 867L414 868L413 867z"/>
<path style="fill:#eac56a; stroke:none;" d="M436 869C436.438 878.22 435.319 887.037 438.217 896C440.438 902.87 445.166 908.431 448 915C450.255 909.458 445.863 903.912 447 898L445 898C446.012 895.627 446.622 893.551 447 891C445.938 892.693 445.48 894.04 445 896C441.916 889.042 438.755 881.407 437 874L441 880C441.039 876.015 438.342 872.146 436 869M292 870C292 882.732 292.993 891.58 299 903C299.41 900.86 298.968 900.037 298 898L300 898C297.755 889.327 296.58 877.633 292 870z"/>
<path style="fill:#FFD700; stroke:none;" d="M857.333 871.667C857.278 871.722 857.222 872.778 857.667 872.333C857.722 872.278 857.778 871.222 857.333 871.667M413 874C410.715 877.715 410.247 880.708 410 885C412.137 881.781 414.127 877.822 413 874z"/>
<path style="fill:#eac56a; stroke:none;" d="M843 874C841.031 889.499 839.47 901.565 843 917L847 914L846 927C850.923 917.807 850.857 905.003 849 895L846 896C844.195 889.024 845.682 880.39 843 874z"/>
<path style="fill:#FFD700; stroke:none;" d="M858 875L859 876L858 875z"/>
<path style="fill:#eac56a; stroke:none;" d="M830.333 877.667C830.278 877.722 830.222 878.778 830.667 878.333C830.722 878.278 830.778 877.222 830.333 877.667z"/>
<path style="fill:#FFD700; stroke:none;" d="M564 879L564 882C564.696 880.446 564.696 880.554 564 879z"/>
<path style="fill:#eac56a; stroke:none;" d="M980 879C980.275 884.363 982.603 888.892 984 894C982.682 891.673 981.739 889.567 981 887C974.233 901.081 984.769 916.501 990 929C996.696 913.477 987.631 892.505 980 879M286 881C282.354 890.397 277.535 898.838 276.286 909C275.42 916.051 276.981 922.96 277 930C282.329 922.958 286.573 911.869 286.961 903C287.131 899.107 287.35 895.367 284 893L282 901C280.497 893.766 288.324 887.718 286 881M442 881L443 882L442 881z"/>
<path style="fill:#FFD700; stroke:none;" d="M860 881C860.109 883.442 860.428 885.623 861 888C862.078 885.227 861.663 883.435 860 881z"/>
<path style="fill:#eac56a; stroke:none;" d="M443 883L444 884L443 883M444.333 885.667C444.278 885.722 444.222 886.778 444.667 886.333C444.722 886.278 444.778 885.222 444.333 885.667M300.333 887.667C300.278 887.722 300.222 888.778 300.667 888.333C300.722 888.278 300.778 887.222 300.333 887.667M428 888L420 921C425.291 914.613 427.013 906.022 428.13 898C428.618 894.497 429.381 891.321 428 888M445 888L446 889L445 888z"/>
<path style="fill:#FFD700; stroke:none;" d="M664 893L664 896C664.696 894.446 664.696 894.554 664 893z"/>
<path style="fill:#eac56a; stroke:none;" d="M447 896L448 897L447 896M430 897C429.973 906.752 427.402 916.191 428.09 926C428.668 934.248 432.625 941.792 433 950C439.377 938.026 437.559 921.42 434 909C432.84 904.953 432.572 900.342 430 897z"/>
<path style="fill:#FFD700; stroke:none;" d="M985 900L986 905C986.473 902.857 986.133 901.899 985 900M280 903C278.344 908.892 277.127 914.867 277 921C279.187 916.451 281.49 907.86 280 903z"/>
<path style="fill:#eac56a; stroke:none;" d="M300.333 904.667C300.278 904.722 300.222 905.778 300.667 905.333C300.722 905.278 300.778 904.222 300.333 904.667M420.333 904.667C420.278 904.722 420.222 905.778 420.667 905.333C420.722 905.278 420.778 904.222 420.333 904.667M977 908C975.395 915.36 975.157 924.414 975 932L974 930C973.126 932.052 973.047 933.747 973 936C971.357 930.431 972.858 925.534 974 920C965.972 930.788 971.449 947.993 973 960C979.365 948.291 980.503 933.94 979.05 921C978.579 916.8 978.628 911.871 977 908M289 910C288.93 918.418 286.324 926.531 287.171 935C288.029 943.582 292.457 951.54 293 960C296.603 953.815 296.625 944.028 296.278 937C296.119 933.778 296.472 930.436 293 930C292.023 927.064 290.476 924.129 290.278 921C290.012 916.807 291.526 913.719 289 910z"/>
<path style="fill:#FFD700; stroke:none;" d="M548 913L547 916C548.289 914.557 548.401 914.766 548 913z"/>
<path style="fill:#eac56a; stroke:none;" d="M974 917L975 918L974 917M844.333 918.667C844.278 918.722 844.222 919.778 844.667 919.333C844.722 919.278 844.778 918.222 844.333 918.667z"/>
<path style="fill:#FFD700; stroke:none;" d="M696 925C696.545 926.635 696.365 926.455 698 927C697.455 925.365 697.635 925.545 696 925z"/>
<path style="fill:#eac56a; stroke:none;" d="M604.333 927.667C604.278 927.722 604.222 928.778 604.667 928.333C604.722 928.278 604.778 927.222 604.333 927.667z"/>
<path style="fill:#FFD700; stroke:none;" d="M971 936L972 941C973.081 939.542 973.436 938.752 974 937C972.701 937.65 973 937.147 973 939L971 936M433 941L433 944C433.696 942.446 433.696 942.554 433 941M564.333 954.667C564.278 954.722 564.222 955.778 564.667 955.333C564.722 955.278 564.778 954.222 564.333 954.667M724 969C725.458 970.081 726.248 970.436 728 971C726.542 969.919 725.752 969.564 724 969M724 971L725 972L724 971M682 972C683.139 973.015 683.612 973.309 685 974C683.777 972.805 683.58 972.684 682 972M503 975L504 976L503 975M700.667 980.333C700.222 980.778 701.278 980.722 701.333 980.667C701.778 980.222 700.722 980.278 700.667 980.333M703 981C707.213 984.151 712.841 985.305 718 986C713.626 983.251 708.013 982.149 703 981z"/>
<path style="fill:#eac56a; stroke:none;" d="M630 984C634.389 988.928 640.823 992.738 647 995L636 1005C672.908 1022.47 714.97 1024 755 1024C750.165 1021.83 744.219 1021.8 739 1020.92C728.97 1019.23 718.842 1017.44 709 1014.85C695.369 1011.26 683.065 1005.48 670 1000.47C663.795 998.085 657.211 996.912 651 994.396C643.722 991.448 637.084 987.307 630 984z"/>
<path style="fill:#FFD700; stroke:none;" d="M719 986C720.248 986.685 720.548 986.749 722 987C720.752 986.315 720.451 986.251 719 986M769 986C770.248 986.685 770.548 986.749 772 987C770.752 986.315 770.452 986.251 769 986z"/>
<path style="fill:#eac56a; stroke:none;" d="M727 989L728 990L727 989z"/>
<path style="fill:#FFD700; stroke:none;" d="M647.667 996.333C647.222 996.778 648.278 996.722 648.333 996.667C648.778 996.222 647.722 996.278 647.667 996.333M497.667 997.333C497.222 997.778 498.278 997.722 498.333 997.667C498.778 997.222 497.722 997.278 497.667 997.333z"/>
<path style="fill:#eac56a; stroke:none;" d="M471 1002L472 1003L471 1002M747 1003C752.184 1006.13 760.014 1007.19 766 1008L762 1014C789.591 1021.75 817.806 1021.08 846 1021C843.15 1019.05 840.41 1019.03 837 1019C849.227 1015.39 864.399 1020.74 877 1021C871.636 1018.59 864.815 1018.54 859 1017.84C847.334 1016.45 835.68 1015.09 824 1013.83C807.658 1012.08 791.245 1010.1 775 1007.58C765.727 1006.14 756.381 1003.4 747 1003z"/>
<path style="fill:#FFD700; stroke:none;" d="M593 1005L594 1006L593 1005z"/>
<path style="fill:#eac56a; stroke:none;" d="M357 1023C360.246 1024.27 363.567 1023.3 367 1023C375.358 1022.27 383.64 1020.66 392 1020L388 1021C394.192 1023.6 403.316 1022 410 1022C430.312 1021.99 454.8 1021.2 474 1014C473.523 1011.67 473.353 1011.38 471 1011C476.867 1008.8 483.754 1007.51 490 1007C486.107 1005.37 482.089 1006.49 478 1006.95C468.661 1008 459.31 1009.29 450 1010.58C432.36 1013.01 414.626 1014.73 397 1017.27C383.761 1019.18 370.321 1021.95 357 1023M751 1006L752 1007L751 1006M446 1027C449.387 1028.38 452.44 1027.22 456 1027.13C462.461 1026.97 468.462 1027.79 475 1027.17C486.944 1026.03 499.026 1025.99 511 1024.83C518.308 1024.12 525.693 1022.35 533 1022.04C553.369 1021.17 574.018 1028.48 594 1031.58C616.881 1035.12 639.898 1035 663 1035C658.235 1033 652.14 1033.35 647 1032.72C635.347 1031.28 623.533 1030.33 612 1028C583.225 1022.16 557.247 1007.28 527 1010.17C499.634 1012.78 473.391 1025.81 446 1027z"/>
<path style="fill:#FFD700; stroke:none;" d="M592 1010L593 1011L592 1010z"/>
<path style="fill:#eac56a; stroke:none;" d="M750 1011C751.506 1011.68 752.315 1011.83 754 1012C752.494 1011.32 751.685 1011.17 750 1011z"/>
<path style="fill:#FFD700; stroke:none;" d="M483 1021C488.988 1023.15 497.896 1019.26 504 1018C497.976 1015.84 489.265 1020.16 483 1021z"/>
<path style="fill:#eac56a; stroke:none;" d="M968 1017C969.506 1017.68 970.315 1017.83 972 1018C970.494 1017.32 969.685 1017.17 968 1017z"/>
<path style="fill:#FFD700; stroke:none;" d="M394 1019C395.769 1019.78 397.036 1019.91 399 1020C397.231 1019.22 395.964 1019.09 394 1019z"/>
<path style="fill:#eac56a; stroke:none;" d="M619 1020L620 1021L619 1020z"/>
<path style="fill:#FFD700; stroke:none;" d="M479 1022C480.248 1022.68 480.549 1022.75 482 1023C480.752 1022.32 480.452 1022.25 479 1022M466 1025C469.555 1026.09 473.386 1024.7 477 1024C473.445 1022.91 469.614 1024.3 466 1025M488.667 1023.33C488.222 1023.78 489.278 1023.72 489.333 1023.67C489.778 1023.22 488.722 1023.28 488.667 1023.33z"/>
</svg>
