<svg fill="currentColor" xmlns="http://www.w3.org/2000/svg" width="100%" height="100%" viewBox="0 0 229 312">

<path style="fill:currentColor; stroke:none;" d="M105 108C106.092 114.321 109.507 120.706 113.105 125.995C114.41 127.914 116.335 130.793 118.971 130.793C124.125 130.793 128.715 118.035 130.03 114C132.244 107.21 125.014 104.125 123.533 98C120.754 86.5074 129.693 74.19 138 67.3287C157.973 50.8312 192.629 59.108 202.945 31C204.354 27.1625 205.448 23.0815 205.829 19C206.087 16.2374 206.217 10.8515 201.941 11.8896C198.923 12.6226 196.377 15.4949 194 17.3349C189.874 20.5287 185.494 23.3441 181 25.9892C165.371 35.1885 147.345 41.6379 133.001 52.8148C127.207 57.3293 120.76 62.5979 119 70C115.415 66.464 113.433 61.7111 109.907 58.0394C103.191 51.0461 94.5309 45.7304 86 41.2554C77.5157 36.8048 69.2107 31.9363 61 27C54.0486 22.8208 47.253 18.4236 41 13.2462C38.7202 11.3585 35.3527 7.37711 32.1481 7.34491C28.1078 7.30429 28.9077 14.4963 29.0903 17C29.7718 26.3471 34.528 37.0498 41.3002 43.5355C49.0509 50.9583 59.042 52.381 69 54.679C81.9826 57.6751 96.7591 63.1685 105.101 74.0039C113.115 84.4131 117.391 99.0055 105 108M77 34C93.1178 40.7015 105.681 49.6805 118 62C125.47 56.7377 131.175 49.6462 139 44.696C146.908 39.6936 156.266 37.2023 164 32C144.997 23.8218 125.188 24.0442 105 24.9606C95.8176 25.3775 83.5405 26.8395 77 34M45 236C44.0329 231.357 45.9018 227.424 47.3295 223C49.5337 216.17 51.8331 209.021 53.331 202C58.4858 177.839 57.2483 151.977 43.3326 131C40.5022 126.733 37.9642 122.276 34 119C13.5911 153.967 20.8598 200.055 39.7315 234C46.4638 246.11 57.1047 261.995 70 268C68.7266 271.915 67.0985 275.822 67.0795 280C67.0589 284.506 69.1213 288.275 66 292L64 283L0 283L0 298L229 298L229 283L185 283C177.471 283 171.098 281.377 169 290C167.72 285.671 168.28 281.452 167.897 277C167.703 274.756 166.687 272.24 167.403 270.015C168.823 265.596 174.783 262.324 177.83 258.996C185.706 250.395 192.759 241.341 198.219 231C216.651 196.09 220.708 154.705 202 119L200 119C195.225 127.971 188.66 136.16 185.623 146C176.155 176.674 183.596 206.106 192 236C184.733 228.487 182.147 212.073 180.715 202C178.107 183.662 176.157 166.083 181.9 148C186.243 134.328 196.345 123.431 201.034 110C202.851 104.796 202.968 98.4671 203.561 93C204.592 83.4871 201.411 71.4355 197.1 63C195.77 60.3991 194.162 56.648 191.61 55.0278C187.749 52.5758 181.717 54.2114 178 56C183.08 69.2073 192.944 77.4351 190.7 93C188.539 107.992 177.449 116.891 165 123.846C139.596 138.037 103.483 139.257 77 127.208C62.0637 120.412 43.3332 105.644 45.304 87C46.6451 74.3132 54.0586 66.8928 61 57C56.5757 55.0418 50.1327 52.4993 45.304 54.6034C42.0733 56.0112 40.3836 60.0725 38.841 63C34.0537 72.0854 31.6528 83.7362 32.1042 94C32.4567 102.016 33.7145 109.789 37.3735 117C43.5612 129.195 52.6836 138.506 56.4059 152C62.0757 172.554 58.4646 195.967 52.4298 216C50.3798 222.805 47.0873 229.227 45 236M77 67.5185C61.7765 70.6989 54.1473 89.383 64.419 101.907C69.8284 108.502 79.9791 110.197 88 108.482C101.144 105.673 108.48 90.0544 101.721 78.0008C97.3132 70.1394 85.7216 65.6965 77 67.5185M152 67.4406C132.074 70.5515 123.567 99.1812 145 107.656C149.194 109.314 154.589 109.446 159 108.671C185.386 104.034 178.266 63.34 152 67.4406z"/>

</svg>
